{"glyphs":{"0":{"ha":833,"x_min":43,"x_max":790,"o":"m 417 958 q 693 831 596 958 q 790 468 790 703 q 694 105 790 232 q 417 -22 597 -22 q 140 105 236 -22 q 43 468 43 232 q 140 831 43 703 q 417 958 238 958 m 417 790 q 294 706 336 790 q 251 468 251 622 q 294 227 251 311 q 417 143 336 143 q 540 227 497 143 q 582 468 582 311 q 540 706 582 622 q 417 790 497 790 z "},"1":{"ha":833,"x_min":133,"x_max":560,"o":"m 360 0 l 360 635 l 133 635 l 133 776 q 308 814 251 776 q 378 936 365 851 l 560 936 l 560 0 l 360 0 z "},"2":{"ha":833,"x_min":60,"x_max":768,"o":"m 415 958 q 655 886 565 958 q 744 690 744 814 q 715 552 744 610 q 637 453 686 494 q 508 365 588 411 q 378 282 422 315 q 318 222 335 249 q 300 164 301 196 l 768 164 l 768 0 l 61 0 q 60 31 60 11 q 82 197 60 128 q 163 328 104 267 q 329 453 221 390 q 449 529 406 497 q 514 598 492 561 q 536 682 536 635 q 504 763 536 732 q 415 793 472 793 q 274 643 276 793 l 72 643 q 167 877 76 796 q 415 958 257 958 z "},"3":{"ha":833,"x_min":58,"x_max":764,"o":"m 418 958 q 661 887 572 958 q 750 694 750 815 q 710 565 750 615 q 586 485 671 515 l 586 482 q 721 396 678 451 q 764 251 764 340 q 722 106 764 168 q 601 11 679 44 q 421 -22 524 -22 q 152 62 246 -22 q 58 306 58 146 l 260 306 q 421 143 260 143 q 523 176 485 143 q 561 261 561 208 q 374 388 561 388 l 344 388 l 344 549 l 374 549 q 503 583 456 549 q 550 675 550 617 q 513 760 550 728 q 413 793 475 793 q 271 639 271 793 l 69 639 q 161 874 69 790 q 418 958 253 958 z "},"4":{"ha":833,"x_min":19,"x_max":804,"o":"m 672 210 l 672 0 l 472 0 l 472 210 l 19 210 l 19 376 l 403 936 l 672 936 l 672 367 l 804 367 l 804 210 l 672 210 m 478 367 l 478 481 q 488 792 478 646 l 485 792 q 297 497 403 651 l 206 367 l 478 367 z "},"5":{"ha":833,"x_min":68,"x_max":765,"o":"m 289 774 l 265 553 l 268 553 q 349 606 301 588 q 451 624 397 624 q 615 585 543 624 q 726 475 686 546 q 765 313 765 404 q 720 135 765 211 q 593 19 675 60 q 404 -22 511 -22 q 159 53 250 -22 q 68 257 68 128 l 269 257 q 310 172 271 203 q 406 142 350 142 q 517 183 478 142 q 557 304 557 225 q 517 423 557 382 q 408 464 476 464 q 320 438 356 464 q 275 367 285 411 l 76 379 l 129 936 l 718 936 l 718 774 l 289 774 z "},"6":{"ha":833,"x_min":64,"x_max":775,"o":"m 450 958 q 672 885 589 958 q 763 681 756 811 l 560 681 q 522 765 553 736 q 439 794 490 794 q 308 726 358 794 q 253 514 257 657 l 256 514 q 469 611 338 611 q 629 572 560 611 q 737 464 699 533 q 775 306 775 394 q 731 134 775 208 q 606 19 686 60 q 424 -22 526 -22 q 157 94 250 -22 q 64 440 64 211 q 165 824 64 689 q 450 958 265 958 m 426 460 q 324 415 363 460 q 285 294 285 369 q 322 183 285 225 q 424 142 360 142 q 528 184 489 142 q 567 299 567 226 q 528 416 567 372 q 426 460 490 460 z "},"7":{"ha":833,"x_min":60,"x_max":758,"o":"m 758 764 q 575 415 654 615 q 458 0 496 215 l 240 0 q 378 442 289 239 q 565 767 468 644 l 60 767 l 60 936 l 758 936 l 758 764 z "},"8":{"ha":833,"x_min":60,"x_max":774,"o":"m 417 958 q 592 926 515 958 q 711 836 668 894 q 754 700 754 778 q 709 567 754 624 q 585 488 664 511 l 585 485 q 723 400 672 461 q 774 251 774 339 q 676 51 774 124 q 417 -22 579 -22 q 157 51 254 -22 q 60 251 60 124 q 110 400 60 339 q 249 485 161 461 l 249 488 q 124 567 169 511 q 79 700 79 624 q 122 836 79 778 q 242 926 165 894 q 417 958 318 958 m 417 796 q 312 765 351 796 q 272 683 272 735 q 311 594 272 626 q 417 561 350 561 q 522 594 483 561 q 561 683 561 626 q 522 765 561 735 q 417 796 482 796 m 417 401 q 303 366 346 401 q 261 272 261 331 q 303 178 261 213 q 417 143 344 143 q 531 178 489 143 q 572 272 572 213 q 530 366 572 331 q 417 401 488 401 z "},"9":{"ha":833,"x_min":31,"x_max":742,"o":"m 356 -22 q 133 51 217 -22 q 43 256 50 125 l 246 256 q 284 171 253 200 q 367 142 315 142 q 498 210 447 142 q 553 422 549 279 l 550 422 q 336 325 468 325 q 176 364 246 325 q 69 472 107 403 q 31 631 31 542 q 75 802 31 728 q 199 917 119 876 q 382 958 279 958 q 649 842 556 958 q 742 496 742 725 q 641 113 742 247 q 356 -22 540 -22 m 379 476 q 482 522 443 476 q 521 642 521 567 q 483 753 521 711 q 382 794 446 794 q 278 752 317 794 q 239 638 239 710 q 277 520 239 564 q 379 476 315 476 z "},"\u0000":{"ha":833,"x_min":0,"x_max":0,"o":""}," ":{"ha":319,"x_min":0,"x_max":0,"o":""},"!":{"ha":450,"x_min":107,"x_max":343,"o":"m 150 275 l 107 989 l 343 989 l 300 275 l 150 275 m 118 0 l 118 183 l 332 183 l 332 0 l 118 0 z "},"\"":{"ha":606,"x_min":83,"x_max":522,"o":"m 104 610 l 83 989 l 267 989 l 246 610 l 104 610 m 360 610 l 339 989 l 522 989 l 501 610 l 360 610 z "},"#":{"ha":933,"x_min":49,"x_max":885,"o":"m 696 379 l 835 379 l 813 240 l 674 240 l 636 0 l 469 0 l 507 240 l 353 240 l 315 0 l 149 0 l 186 240 l 49 240 l 71 379 l 208 379 l 238 558 l 99 558 l 121 697 l 260 697 l 297 936 l 464 936 l 426 697 l 581 697 l 618 936 l 785 936 l 747 697 l 885 697 l 863 558 l 725 558 l 696 379 m 403 558 l 375 379 l 529 379 l 557 558 l 403 558 z "},"$":{"ha":833,"x_min":50,"x_max":783,"o":"m 783 263 q 699 69 783 144 q 472 -19 615 -6 l 472 -137 l 360 -137 l 360 -21 q 131 75 211 -8 q 50 306 50 158 l 235 306 q 360 129 235 156 l 360 403 q 208 458 269 429 q 105 542 147 488 q 63 681 63 596 q 143 872 63 797 q 360 957 224 946 l 360 1061 l 472 1061 l 472 956 q 681 863 610 940 q 753 647 753 786 l 571 647 q 472 807 571 778 l 472 554 q 633 501 569 529 q 740 415 697 472 q 783 263 783 358 m 251 699 q 277 629 251 654 q 360 586 303 604 l 360 811 q 280 774 308 803 q 251 699 251 744 m 472 128 q 565 169 533 138 q 596 253 596 201 q 566 324 596 297 q 472 371 536 350 l 472 128 z "},"%":{"ha":1263,"x_min":63,"x_max":1200,"o":"m 313 -42 l 836 978 l 950 978 l 426 -42 l 313 -42 m 292 958 q 461 887 401 958 q 521 683 521 815 q 461 480 521 551 q 292 408 401 408 q 122 480 182 408 q 63 683 63 551 q 122 887 63 815 q 292 958 182 958 m 292 847 q 211 683 211 847 q 292 519 211 519 q 372 683 372 519 q 292 847 372 847 m 971 528 q 1140 456 1081 528 q 1200 253 1200 385 q 1140 49 1200 121 q 971 -22 1081 -22 q 801 49 861 -22 q 742 253 742 121 q 801 456 742 385 q 971 528 861 528 m 971 417 q 890 253 890 417 q 971 89 890 89 q 1051 253 1051 89 q 971 417 1051 417 z "},"&":{"ha":1046,"x_min":60,"x_max":1051,"o":"m 714 76 q 585 3 663 29 q 419 -22 507 -22 q 153 56 247 -22 q 60 267 60 133 q 264 551 60 464 q 185 658 207 611 q 163 772 163 706 q 240 946 163 881 q 446 1011 318 1011 q 649 949 574 1011 q 724 782 724 888 q 683 639 724 703 q 550 517 642 575 l 721 340 q 765 558 765 419 l 958 558 q 850 207 954 346 l 1051 0 l 788 0 l 714 76 m 446 853 q 378 828 403 853 q 354 760 354 803 q 372 697 354 726 q 438 618 389 668 q 538 764 538 688 q 512 828 538 804 q 446 853 486 853 m 440 144 q 599 193 526 144 l 369 429 q 289 362 313 397 q 265 281 265 326 q 312 183 265 221 q 440 144 358 144 z "},"'":{"ha":350,"x_min":83,"x_max":267,"o":"m 104 610 l 83 989 l 267 989 l 246 610 l 104 610 z "},"(":{"ha":456,"x_min":58,"x_max":414,"o":"m 414 1029 q 301 725 336 871 q 267 413 267 579 q 301 99 267 246 q 414 -204 336 -47 l 254 -204 q 106 89 153 -58 q 58 413 58 236 q 106 737 58 589 q 254 1029 153 885 l 414 1029 z "},")":{"ha":456,"x_min":42,"x_max":397,"o":"m 201 1029 q 350 737 303 885 q 397 413 397 589 q 350 89 397 236 q 201 -204 303 -58 l 42 -204 q 154 99 119 -47 q 189 413 189 246 q 154 725 189 579 q 42 1029 119 871 l 201 1029 z "},"*":{"ha":592,"x_min":36,"x_max":556,"o":"m 514 882 l 556 749 l 372 713 l 499 575 l 388 494 l 296 657 l 204 494 l 93 575 l 219 713 l 36 749 l 78 882 l 249 803 l 226 989 l 365 989 l 343 803 l 514 882 z "},"+":{"ha":786,"x_min":89,"x_max":697,"o":"m 697 515 l 697 364 l 468 364 l 468 135 l 318 135 l 318 364 l 89 364 l 89 515 l 318 515 l 318 744 l 468 744 l 468 515 l 697 515 z "},",":{"ha":358,"x_min":67,"x_max":286,"o":"m 183 -239 l 67 -239 l 143 0 l 72 0 l 72 232 l 286 232 l 286 0 l 183 -239 z "},"-":{"ha":444,"x_min":42,"x_max":403,"o":"m 42 329 l 42 482 l 403 482 l 403 329 l 42 329 z "},".":{"ha":358,"x_min":72,"x_max":286,"o":"m 72 0 l 72 232 l 286 232 l 286 0 l 72 0 z "},"/":{"ha":678,"x_min":42,"x_max":607,"o":"m 42 -124 l 456 1035 l 607 1035 l 193 -124 l 42 -124 z "},":":{"ha":358,"x_min":72,"x_max":286,"o":"m 72 0 l 72 232 l 286 232 l 286 0 l 72 0 m 72 474 l 72 706 l 286 706 l 286 474 l 72 474 z "},";":{"ha":358,"x_min":67,"x_max":286,"o":"m 183 -239 l 67 -239 l 143 0 l 72 0 l 72 232 l 286 232 l 286 0 l 183 -239 m 72 474 l 72 706 l 286 706 l 286 474 l 72 474 z "},"<":{"ha":786,"x_min":89,"x_max":697,"o":"m 268 442 l 268 439 l 697 268 l 697 104 l 89 356 l 89 525 l 697 776 l 697 613 l 268 442 z "},"=":{"ha":786,"x_min":89,"x_max":697,"o":"m 89 496 l 89 647 l 697 647 l 697 496 l 89 496 m 89 232 l 89 383 l 697 383 l 697 232 l 89 232 z "},">":{"ha":786,"x_min":89,"x_max":697,"o":"m 697 356 l 89 104 l 89 268 l 518 439 l 518 442 l 89 613 l 89 776 l 697 525 l 697 356 z "},"?":{"ha":760,"x_min":42,"x_max":708,"o":"m 385 1010 q 622 940 536 1010 q 708 751 708 871 q 681 631 708 679 q 569 510 653 582 q 493 433 518 465 q 458 362 468 400 q 449 258 449 324 l 283 258 q 282 303 282 275 q 292 417 282 374 q 331 500 303 461 q 414 590 358 539 q 489 673 472 643 q 506 746 506 703 q 474 816 506 790 q 385 842 443 842 q 282 808 317 842 q 244 701 247 774 l 42 701 q 134 931 46 853 q 385 1010 222 1010 m 257 0 l 257 183 l 471 183 l 471 0 l 257 0 z "},"@":{"ha":1211,"x_min":51,"x_max":1160,"o":"m 622 978 q 906 913 783 978 q 1094 731 1028 849 q 1160 457 1160 614 q 1121 257 1160 339 q 1018 135 1082 175 q 876 96 954 96 q 763 125 807 96 q 704 211 718 154 l 701 211 q 519 96 643 96 q 367 167 422 96 q 310 369 311 238 q 346 552 311 472 q 441 676 381 632 q 579 719 501 719 q 725 625 686 719 l 728 625 q 744 706 740 689 l 899 706 q 858 476 875 589 q 842 307 842 363 q 857 243 842 263 q 903 224 872 224 q 1001 283 961 224 q 1040 457 1040 343 q 989 669 1040 578 q 843 810 938 760 q 622 860 749 860 q 378 798 481 860 q 224 628 276 736 q 171 386 171 521 q 224 156 171 253 q 374 7 276 58 q 601 -44 471 -44 q 904 29 782 -44 l 958 -76 q 601 -162 808 -162 q 310 -97 435 -162 q 119 93 186 -31 q 51 386 51 217 q 121 684 51 549 q 319 899 190 819 q 622 978 449 978 m 606 576 q 513 523 550 576 q 476 375 476 469 q 501 275 476 310 q 568 240 525 240 q 658 296 621 240 q 694 453 694 351 q 672 544 694 511 q 606 576 649 576 z "},"A":{"ha":969,"x_min":4,"x_max":965,"o":"m 296 242 l 218 0 l 4 0 l 347 989 l 622 989 l 965 0 l 751 0 l 675 242 l 296 242 m 599 482 q 486 868 531 699 l 483 868 q 372 482 432 674 l 351 417 l 619 417 l 599 482 z "},"B":{"ha":903,"x_min":114,"x_max":853,"o":"m 469 989 q 739 921 649 989 q 829 735 829 853 q 787 593 829 650 q 657 504 744 536 l 657 501 q 806 423 758 479 q 853 271 853 367 q 759 73 853 146 q 500 0 665 0 l 114 0 l 114 989 l 469 989 m 318 582 l 463 582 q 592 611 551 582 q 633 704 633 640 q 595 794 633 765 q 472 822 557 822 l 318 822 l 318 582 m 318 168 l 469 168 q 604 198 563 168 q 646 292 646 228 q 603 390 646 360 q 464 421 561 421 l 318 421 l 318 168 z "},"C":{"ha":974,"x_min":51,"x_max":918,"o":"m 504 1011 q 716 965 625 1011 q 858 836 807 919 q 914 646 910 753 l 708 646 q 644 781 699 732 q 504 831 590 831 q 327 741 392 831 q 263 494 263 651 q 326 248 263 338 q 500 158 389 158 q 642 208 588 158 q 708 347 697 257 l 918 347 q 793 75 904 172 q 500 -22 682 -22 q 261 40 363 -22 q 106 219 160 103 q 51 494 51 335 q 106 769 51 653 q 263 949 161 886 q 504 1011 365 1011 z "},"D":{"ha":1019,"x_min":114,"x_max":968,"o":"m 443 989 q 832 860 696 989 q 968 494 968 732 q 832 128 968 257 q 443 0 696 0 l 114 0 l 114 989 l 443 989 m 317 175 l 440 175 q 678 254 600 175 q 757 494 757 333 q 678 735 757 656 q 440 814 600 814 l 317 814 l 317 175 z "},"E":{"ha":879,"x_min":114,"x_max":810,"o":"m 318 814 l 318 590 l 765 590 l 765 417 l 318 417 l 318 175 l 810 175 l 810 0 l 114 0 l 114 989 l 797 989 l 797 814 l 318 814 z "},"F":{"ha":811,"x_min":114,"x_max":774,"o":"m 318 814 l 318 544 l 739 544 l 739 369 l 318 369 l 318 0 l 114 0 l 114 989 l 774 989 l 774 814 l 318 814 z "},"G":{"ha":1033,"x_min":51,"x_max":933,"o":"m 521 1011 q 810 923 701 1011 q 933 681 918 835 l 714 681 q 651 792 700 754 q 521 831 603 831 q 332 740 401 831 q 263 490 263 649 q 331 235 263 328 q 517 142 399 142 q 681 202 624 142 q 739 376 738 263 l 504 376 l 504 543 l 929 543 l 929 0 l 757 0 l 757 107 l 754 107 q 637 14 711 47 q 465 -19 563 -19 q 246 42 339 -19 q 102 219 153 104 q 51 490 51 333 q 108 768 51 650 q 272 949 165 886 q 521 1011 378 1011 z "},"H":{"ha":1042,"x_min":114,"x_max":928,"o":"m 724 0 l 724 426 l 318 426 l 318 0 l 114 0 l 114 989 l 318 989 l 318 601 l 724 601 l 724 989 l 928 989 l 928 0 l 724 0 z "},"I":{"ha":432,"x_min":114,"x_max":318,"o":"m 114 0 l 114 989 l 318 989 l 318 0 l 114 0 z "},"J":{"ha":544,"x_min":21,"x_max":438,"o":"m 438 315 q 359 69 438 147 q 111 -10 281 -10 q 21 1 58 -10 l 21 175 q 86 168 58 168 q 170 184 139 168 q 217 241 201 200 q 233 358 233 282 l 233 989 l 438 989 l 438 315 z "},"K":{"ha":921,"x_min":114,"x_max":915,"o":"m 915 0 l 656 0 l 321 467 l 318 467 l 318 0 l 114 0 l 114 989 l 318 989 l 318 554 l 321 554 l 644 989 l 883 989 l 507 519 l 915 0 z "},"L":{"ha":799,"x_min":114,"x_max":785,"o":"m 785 175 l 785 0 l 114 0 l 114 989 l 318 989 l 318 175 l 785 175 z "},"M":{"ha":1367,"x_min":114,"x_max":1253,"o":"m 1057 0 l 1057 492 q 1065 863 1057 678 l 1063 863 q 957 499 1017 688 l 800 0 l 567 0 l 410 499 q 304 863 350 688 l 301 863 q 310 492 310 678 l 310 0 l 114 0 l 114 989 l 442 989 l 585 535 q 682 171 643 349 l 685 171 q 782 535 724 349 l 925 989 l 1253 989 l 1253 0 l 1057 0 z "},"N":{"ha":1078,"x_min":114,"x_max":964,"o":"m 674 0 l 482 401 q 301 810 376 625 l 299 810 q 310 381 310 581 l 310 0 l 114 0 l 114 989 l 404 989 l 596 588 q 776 179 701 364 l 779 179 q 768 608 768 408 l 768 989 l 964 989 l 964 0 l 674 0 z "},"O":{"ha":1039,"x_min":51,"x_max":988,"o":"m 519 1011 q 769 949 664 1011 q 931 770 875 886 q 988 494 988 654 q 931 219 988 335 q 769 40 875 103 q 519 -22 664 -22 q 269 40 375 -22 q 108 219 164 103 q 51 494 51 335 q 108 770 51 654 q 269 949 164 886 q 519 1011 375 1011 m 519 831 q 331 741 400 831 q 263 494 263 651 q 331 248 263 338 q 519 158 400 158 q 708 248 639 158 q 776 494 776 338 q 708 741 776 651 q 519 831 639 831 z "},"P":{"ha":883,"x_min":114,"x_max":850,"o":"m 488 989 q 757 903 664 989 q 850 669 850 817 q 757 436 850 522 q 488 350 664 350 l 318 350 l 318 0 l 114 0 l 114 989 l 488 989 m 318 519 l 460 519 q 642 669 642 519 q 460 819 642 819 l 318 819 l 318 519 z "},"Q":{"ha":1039,"x_min":51,"x_max":988,"o":"m 988 494 q 957 283 988 378 q 868 124 926 189 l 981 -3 l 872 -104 l 751 31 q 519 -22 653 -22 q 269 40 375 -22 q 108 219 164 103 q 51 494 51 335 q 108 770 51 654 q 269 949 164 886 q 519 1011 375 1011 q 769 949 664 1011 q 931 770 875 886 q 988 494 988 654 m 524 147 q 626 168 581 147 l 489 321 l 601 424 l 736 272 q 785 489 785 357 q 715 739 785 647 q 524 831 646 831 q 332 739 401 831 q 263 489 263 647 q 332 239 263 331 q 524 147 401 147 z "},"R":{"ha":925,"x_min":114,"x_max":906,"o":"m 478 989 q 750 917 661 989 q 839 710 839 844 q 790 556 839 619 q 658 468 742 492 l 658 465 q 742 406 711 446 q 807 274 772 367 l 906 0 l 683 0 l 604 235 q 540 347 576 315 q 431 378 503 378 l 318 378 l 318 0 l 114 0 l 114 989 l 478 989 m 318 540 l 463 540 q 633 686 633 540 q 451 824 633 824 l 318 824 l 318 540 z "},"S":{"ha":875,"x_min":39,"x_max":825,"o":"m 418 1011 q 698 928 603 1011 q 793 686 793 846 l 586 686 q 542 806 586 764 q 414 849 497 849 q 304 819 346 849 q 263 740 263 789 q 283 679 263 703 q 349 638 304 656 q 478 600 393 621 q 664 541 593 571 q 780 451 735 511 q 825 290 825 392 q 776 126 825 197 q 640 17 728 56 q 439 -22 553 -22 q 145 68 251 -22 q 39 325 39 158 l 250 325 q 299 189 250 235 q 442 143 347 143 q 566 177 519 143 q 613 269 613 211 q 592 335 613 311 q 532 374 571 360 q 408 410 493 388 q 217 469 288 440 q 99 558 146 499 q 53 718 53 617 q 99 871 53 804 q 228 974 144 938 q 418 1011 311 1011 z "},"T":{"ha":854,"x_min":14,"x_max":840,"o":"m 529 814 l 529 0 l 325 0 l 325 814 l 14 814 l 14 989 l 840 989 l 840 814 l 529 814 z "},"U":{"ha":997,"x_min":106,"x_max":892,"o":"m 892 378 q 790 81 892 183 q 499 -22 688 -22 q 208 81 310 -22 q 106 378 106 183 l 106 989 l 310 989 l 310 385 q 358 217 310 275 q 499 158 407 158 q 639 217 590 158 q 688 385 688 275 l 688 989 l 892 989 l 892 378 z "},"V":{"ha":886,"x_min":8,"x_max":878,"o":"m 315 0 l 8 989 l 217 989 l 335 604 q 442 200 399 401 l 444 200 q 551 604 483 376 l 669 989 l 878 989 l 571 0 l 315 0 z "},"W":{"ha":1328,"x_min":13,"x_max":1315,"o":"m 843 0 l 751 392 q 665 815 700 610 l 663 815 q 576 392 628 610 l 485 0 l 219 0 l 13 989 l 213 989 l 283 629 q 356 201 328 404 l 358 201 q 449 629 396 411 l 535 989 l 793 989 l 879 629 q 969 201 932 411 l 972 201 q 1044 629 1000 404 l 1115 989 l 1315 989 l 1108 0 l 843 0 z "},"X":{"ha":875,"x_min":4,"x_max":871,"o":"m 871 0 l 633 0 l 439 350 l 436 350 l 242 0 l 4 0 l 314 503 l 19 989 l 253 989 l 436 647 l 439 647 l 622 989 l 856 989 l 561 503 l 871 0 z "},"Y":{"ha":886,"x_min":3,"x_max":882,"o":"m 544 0 l 340 0 l 340 385 l 3 989 l 232 989 l 326 803 q 442 551 389 679 l 444 551 q 560 803 497 679 l 654 989 l 882 989 l 544 385 l 544 0 z "},"Z":{"ha":808,"x_min":28,"x_max":781,"o":"m 271 175 l 271 172 l 781 172 l 781 0 l 28 0 l 28 179 l 514 814 l 514 817 l 50 817 l 50 989 l 757 989 l 757 810 l 271 175 z "},"[":{"ha":457,"x_min":97,"x_max":436,"o":"m 281 917 l 281 -94 l 436 -94 l 436 -207 l 97 -207 l 97 1029 l 436 1029 l 436 917 l 281 917 z "},"\\":{"ha":678,"x_min":71,"x_max":636,"o":"m 636 -124 l 485 -124 l 71 1035 l 222 1035 l 636 -124 z "},"]":{"ha":457,"x_min":21,"x_max":360,"o":"m 360 -207 l 21 -207 l 21 -94 l 176 -94 l 176 917 l 21 917 l 21 1029 l 360 1029 l 360 -207 z "},"^":{"ha":689,"x_min":11,"x_max":678,"o":"m 499 515 l 346 836 l 343 836 l 190 515 l 11 515 l 242 989 l 447 989 l 678 515 l 499 515 z "},"_":{"ha":694,"x_min":0,"x_max":694,"o":"m 0 -175 l 0 -69 l 694 -69 l 694 -175 l 0 -175 z "},"`":{"ha":486,"x_min":69,"x_max":417,"o":"m 417 786 l 264 786 l 69 989 l 310 989 l 417 786 z "},"a":{"ha":760,"x_min":36,"x_max":693,"o":"m 371 728 q 597 658 521 728 q 674 449 674 588 l 674 193 q 693 0 674 74 l 518 0 q 508 94 508 40 l 506 94 q 276 -17 428 -17 q 101 44 167 -17 q 36 197 36 104 q 99 343 36 288 q 310 422 163 399 q 486 442 399 436 l 486 467 q 456 561 486 531 q 371 592 425 592 q 287 563 317 592 q 254 485 257 535 l 65 485 q 149 660 71 592 q 371 728 226 728 m 486 324 q 344 308 403 318 q 257 275 283 297 q 231 211 231 253 q 258 147 231 171 q 335 122 285 122 q 397 133 367 122 q 446 163 426 143 q 478 216 469 186 q 486 297 486 246 l 486 324 z "},"b":{"ha":831,"x_min":94,"x_max":782,"o":"m 292 621 q 377 697 324 669 q 492 724 431 724 q 645 678 579 724 q 747 548 711 632 q 782 353 782 464 q 746 158 782 242 q 643 28 710 74 q 489 -18 576 -18 q 372 11 426 -18 q 286 93 318 40 l 283 93 l 283 0 l 94 0 l 94 989 l 289 989 l 289 621 l 292 621 m 426 575 q 319 516 360 575 q 279 353 279 457 q 319 190 279 249 q 426 131 360 131 q 538 191 496 131 q 579 353 579 251 q 538 515 579 454 q 426 575 496 575 z "},"c":{"ha":781,"x_min":49,"x_max":738,"o":"m 404 728 q 570 692 497 728 q 687 590 643 656 q 738 443 731 525 l 535 443 q 494 542 529 506 q 403 578 458 578 q 292 517 332 578 q 251 353 251 457 q 292 188 251 249 q 403 128 332 128 q 494 167 458 128 q 533 276 529 207 l 738 276 q 636 60 726 142 q 404 -22 546 -22 q 217 24 297 -22 q 92 156 136 71 q 49 353 49 240 q 92 550 49 465 q 217 681 136 635 q 404 728 297 728 z "},"d":{"ha":831,"x_min":49,"x_max":736,"o":"m 547 0 l 547 93 l 544 93 q 458 11 513 40 q 342 -18 404 -18 q 188 28 254 -18 q 85 158 121 74 q 49 353 49 242 q 84 548 49 464 q 185 678 119 632 q 339 724 251 724 q 453 697 400 724 q 539 621 507 669 l 542 621 l 542 989 l 736 989 l 736 0 l 547 0 m 404 575 q 293 515 335 575 q 251 353 251 454 q 293 191 251 251 q 404 131 335 131 q 511 190 471 131 q 551 353 551 249 q 511 516 551 457 q 404 575 471 575 z "},"e":{"ha":796,"x_min":49,"x_max":747,"o":"m 400 115 q 494 142 457 115 q 539 214 532 169 l 738 214 q 678 94 724 149 q 562 9 633 40 q 400 -22 490 -22 q 211 26 290 -22 q 90 160 132 74 q 49 358 49 246 q 90 547 49 464 q 211 679 132 631 q 399 728 290 728 q 606 665 519 728 q 725 493 692 601 q 747 313 747 422 l 240 313 q 288 163 244 210 q 400 115 332 115 m 399 590 q 297 551 338 590 q 244 435 256 513 l 553 435 q 502 551 544 511 q 399 590 460 590 z "},"f":{"ha":474,"x_min":14,"x_max":460,"o":"m 425 856 q 347 830 372 856 q 322 746 322 804 l 322 706 l 456 706 l 456 561 l 322 561 l 322 0 l 131 0 l 131 561 l 14 561 l 14 706 l 131 706 l 131 769 q 190 942 131 885 q 364 1000 250 1000 q 460 989 413 1000 l 460 851 q 425 856 447 856 z "},"g":{"ha":821,"x_min":49,"x_max":726,"o":"m 340 725 q 453 698 406 725 q 540 611 500 671 l 543 611 l 543 706 l 726 706 l 726 44 q 638 -190 726 -111 q 392 -269 549 -269 q 168 -210 249 -269 q 79 -44 88 -150 l 274 -44 q 308 -108 276 -85 q 396 -131 340 -131 q 501 -89 465 -131 q 538 51 538 -47 l 538 114 l 535 114 q 449 33 496 58 q 338 8 401 8 q 185 52 250 8 q 84 177 119 96 q 49 367 49 258 q 85 556 49 475 q 187 681 121 638 q 340 725 253 725 m 393 565 q 290 512 328 565 q 251 367 251 458 q 290 222 251 275 q 393 168 328 168 q 502 222 461 168 q 543 367 543 276 q 502 511 543 457 q 393 565 461 565 z "},"h":{"ha":833,"x_min":94,"x_max":746,"o":"m 292 628 q 378 699 328 675 q 486 722 429 722 q 676 648 607 722 q 746 433 746 574 l 746 0 l 551 0 l 551 414 q 519 531 551 492 q 428 569 486 569 q 327 520 365 569 q 289 378 289 471 l 289 0 l 94 0 l 94 989 l 289 989 l 289 628 l 292 628 z "},"i":{"ha":383,"x_min":94,"x_max":289,"o":"m 94 0 l 94 706 l 289 706 l 289 0 l 94 0 m 94 822 l 94 989 l 289 989 l 289 822 l 94 822 z "},"j":{"ha":386,"x_min":-44,"x_max":292,"o":"m 292 -15 q 227 -203 292 -143 q 51 -264 163 -264 q -44 -253 0 -264 l -44 -112 q -7 -117 -28 -117 q 72 -88 47 -117 q 97 14 97 -60 l 97 706 l 292 706 l 292 -15 m 97 822 l 97 989 l 292 989 l 292 822 l 97 822 z "},"k":{"ha":754,"x_min":94,"x_max":768,"o":"m 528 0 l 292 331 l 289 331 l 289 0 l 94 0 l 94 989 l 289 989 l 289 421 l 292 421 l 519 706 l 739 706 l 471 381 l 768 0 l 528 0 z "},"l":{"ha":383,"x_min":94,"x_max":289,"o":"m 94 0 l 94 989 l 289 989 l 289 0 l 94 0 z "},"m":{"ha":1246,"x_min":94,"x_max":1158,"o":"m 911 722 q 1092 649 1026 722 q 1158 433 1158 575 l 1158 0 l 964 0 l 964 414 q 935 531 964 492 q 853 569 906 569 q 757 516 790 569 q 724 363 724 463 l 724 0 l 529 0 l 529 426 q 501 532 529 494 q 418 569 472 569 q 322 516 356 569 q 289 363 289 463 l 289 0 l 94 0 l 94 706 l 278 706 l 278 625 l 281 625 q 367 699 319 675 q 476 722 414 722 q 603 692 550 722 q 686 601 657 661 q 781 692 728 661 q 911 722 833 722 z "},"n":{"ha":833,"x_min":94,"x_max":746,"o":"m 486 722 q 676 648 607 722 q 746 433 746 574 l 746 0 l 551 0 l 551 414 q 519 531 551 492 q 428 569 486 569 q 327 520 365 569 q 289 378 289 471 l 289 0 l 94 0 l 94 706 l 276 706 l 276 617 l 279 617 q 368 694 315 665 q 486 722 421 722 z "},"o":{"ha":819,"x_min":49,"x_max":771,"o":"m 410 728 q 601 682 519 728 q 726 551 682 636 q 771 353 771 467 q 726 154 771 239 q 601 24 682 69 q 410 -22 519 -22 q 219 24 300 -22 q 93 154 138 69 q 49 353 49 239 q 93 551 49 467 q 219 682 138 636 q 410 728 300 728 m 410 578 q 295 517 338 578 q 253 353 253 456 q 295 189 253 250 q 410 128 338 128 q 524 189 482 128 q 567 353 567 250 q 524 517 567 456 q 410 578 482 578 z "},"p":{"ha":831,"x_min":94,"x_max":782,"o":"m 489 724 q 643 678 576 724 q 746 548 710 632 q 782 353 782 464 q 747 158 782 242 q 645 28 711 74 q 492 -18 579 -18 q 377 9 431 -18 q 292 85 324 36 l 289 85 l 289 -257 l 94 -257 l 94 706 l 283 706 l 283 613 l 286 613 q 372 694 318 665 q 489 724 426 724 m 426 575 q 319 516 360 575 q 279 353 279 457 q 319 190 279 249 q 426 131 360 131 q 538 191 496 131 q 579 353 579 251 q 538 515 579 454 q 426 575 496 575 z "},"q":{"ha":831,"x_min":49,"x_max":736,"o":"m 342 724 q 458 694 404 724 q 544 613 513 665 l 547 613 l 547 706 l 736 706 l 736 -257 l 542 -257 l 542 85 l 539 85 q 453 9 507 36 q 339 -18 400 -18 q 185 28 251 -18 q 84 158 119 74 q 49 353 49 242 q 85 548 49 464 q 188 678 121 632 q 342 724 254 724 m 404 575 q 293 515 335 575 q 251 353 251 454 q 293 191 251 251 q 404 131 335 131 q 511 190 471 131 q 551 353 551 249 q 511 516 551 457 q 404 575 471 575 z "},"r":{"ha":544,"x_min":94,"x_max":533,"o":"m 469 717 q 533 708 504 717 l 533 540 q 472 547 496 547 q 336 492 383 547 q 289 333 289 438 l 289 0 l 94 0 l 94 706 l 274 706 l 274 606 l 276 606 q 359 690 311 663 q 469 717 407 717 z "},"s":{"ha":728,"x_min":49,"x_max":676,"o":"m 357 728 q 575 667 497 728 q 653 489 653 606 l 467 489 q 356 592 467 592 q 285 574 310 592 q 260 526 260 557 q 275 487 260 501 q 319 463 290 472 q 411 436 349 453 q 551 392 500 413 q 640 325 603 371 q 676 199 676 279 q 592 38 676 99 q 365 -22 508 -22 q 132 41 215 -22 q 49 229 49 104 l 246 229 q 278 147 246 176 q 369 118 310 118 q 446 136 419 118 q 472 186 472 154 q 456 233 472 215 q 409 260 439 250 q 310 289 379 271 q 180 330 226 311 q 99 392 133 349 q 65 511 65 435 q 102 623 65 574 q 205 700 139 672 q 357 728 271 728 z "},"t":{"ha":496,"x_min":11,"x_max":461,"o":"m 411 146 q 461 153 440 146 l 461 4 q 358 -10 417 -10 q 181 44 236 -10 q 125 219 125 97 l 125 561 l 11 561 l 11 706 l 125 706 l 125 889 l 319 889 l 319 706 l 454 706 l 454 561 l 319 561 l 319 254 q 340 171 319 196 q 411 146 361 146 z "},"u":{"ha":833,"x_min":88,"x_max":739,"o":"m 347 -17 q 157 58 226 -17 q 88 272 88 132 l 88 706 l 282 706 l 282 292 q 315 175 282 214 q 406 136 347 136 q 506 185 468 136 q 544 328 544 235 l 544 706 l 739 706 l 739 0 l 557 0 l 557 89 l 554 89 q 465 12 518 40 q 347 -17 413 -17 z "},"v":{"ha":708,"x_min":-10,"x_max":718,"o":"m 228 0 l -10 706 l 193 706 l 275 428 q 353 122 321 272 l 356 122 q 433 428 388 272 l 515 706 l 718 706 l 481 0 l 228 0 z "},"w":{"ha":1125,"x_min":7,"x_max":1118,"o":"m 685 0 l 622 278 q 564 579 590 422 l 561 579 q 503 278 535 422 l 440 0 l 163 0 l 7 706 l 200 706 l 253 433 q 304 126 286 263 l 307 126 q 367 431 332 282 l 429 706 l 696 706 l 758 431 q 818 126 793 282 l 821 126 q 872 433 839 263 l 925 706 l 1118 706 l 963 0 l 685 0 z "},"x":{"ha":706,"x_min":-8,"x_max":714,"o":"m 714 0 l 488 0 l 354 239 l 351 239 l 218 0 l -8 0 l 233 363 l 7 706 l 231 706 l 351 499 l 354 499 l 475 706 l 699 706 l 472 363 l 714 0 z "},"y":{"ha":700,"x_min":-10,"x_max":710,"o":"m 457 -4 q 377 -160 421 -104 q 272 -241 333 -217 q 121 -265 211 -265 q 19 -254 67 -265 l 19 -99 q 94 -110 50 -110 q 188 -78 153 -110 q 224 4 224 -47 q 217 49 224 24 q 190 132 211 74 l -10 706 l 199 706 l 271 469 q 349 174 315 321 l 351 174 q 433 469 393 344 l 510 706 l 710 706 l 457 -4 z "},"z":{"ha":672,"x_min":39,"x_max":633,"o":"m 274 156 l 274 153 l 633 153 l 633 0 l 39 0 l 39 158 l 385 550 l 385 553 l 53 553 l 53 706 l 619 706 l 619 547 l 274 156 z "},"{":{"ha":469,"x_min":56,"x_max":435,"o":"m 435 918 q 349 888 375 915 q 324 793 324 861 l 324 593 q 293 473 324 515 q 193 411 263 431 l 193 407 q 293 345 263 388 q 324 225 324 303 l 324 25 q 349 -70 324 -43 q 435 -99 375 -97 l 435 -211 l 401 -211 q 250 -185 306 -211 q 171 -106 194 -160 q 147 36 147 -53 l 147 221 q 128 308 147 281 q 56 349 108 335 l 56 469 q 128 512 108 485 q 147 597 147 539 l 147 783 q 171 925 147 872 q 250 1003 194 978 q 401 1029 306 1029 l 435 1029 l 435 918 z "},"|":{"ha":408,"x_min":117,"x_max":292,"o":"m 117 -285 l 117 1017 l 292 1017 l 292 -285 l 117 -285 z "},"}":{"ha":469,"x_min":35,"x_max":414,"o":"m 68 1029 q 219 1003 164 1029 q 299 925 275 978 q 322 783 322 872 l 322 597 q 342 512 322 539 q 414 469 361 485 l 414 349 q 342 308 361 335 q 322 221 322 281 l 322 36 q 299 -106 322 -53 q 219 -185 275 -160 q 68 -211 164 -211 l 35 -211 l 35 -99 q 120 -70 94 -97 q 146 25 146 -43 l 146 225 q 176 345 146 303 q 276 407 207 388 l 276 411 q 176 473 207 431 q 146 593 146 515 l 146 793 q 120 888 146 861 q 35 918 94 915 l 35 1029 l 68 1029 z "},"~":{"ha":825,"x_min":35,"x_max":790,"o":"m 263 582 q 354 562 314 582 q 447 504 394 542 q 512 462 486 475 q 565 449 538 449 q 638 481 610 449 q 665 569 665 514 l 790 569 q 761 427 790 489 q 681 332 732 365 q 563 299 629 299 q 470 319 511 299 q 378 375 429 339 q 311 417 336 404 q 258 431 286 431 q 187 398 214 431 q 160 310 160 365 l 35 310 q 64 452 35 390 q 144 548 93 514 q 263 582 196 582 z "}," ":{"ha":319,"x_min":0,"x_max":0,"o":""},"¡":{"ha":450,"x_min":107,"x_max":343,"o":"m 332 706 l 332 522 l 118 522 l 118 706 l 332 706 m 300 431 l 343 -283 l 107 -283 l 150 431 l 300 431 z "},"¢":{"ha":833,"x_min":72,"x_max":761,"o":"m 479 247 q 533 299 513 263 q 557 385 554 335 l 761 385 q 675 183 750 263 q 479 89 600 103 l 479 -36 l 367 -36 l 367 90 q 151 208 231 110 q 72 461 72 307 q 151 714 72 615 q 367 832 231 813 l 367 958 l 479 958 l 479 833 q 674 742 599 819 q 761 551 750 665 l 558 551 q 479 676 550 646 l 479 247 m 275 461 q 299 326 275 381 q 367 250 322 272 l 367 672 q 299 596 322 650 q 275 461 275 542 z "},"£":{"ha":833,"x_min":33,"x_max":794,"o":"m 785 161 l 785 0 l 33 0 l 33 164 q 127 206 96 164 q 158 346 158 247 l 158 385 l 33 385 l 33 547 l 158 547 l 158 626 q 242 876 158 793 q 486 958 325 958 q 713 878 631 958 q 794 657 794 797 l 599 657 q 569 757 599 722 q 486 792 540 792 q 363 626 363 792 l 363 547 l 532 547 l 532 385 l 363 385 l 363 349 q 343 232 363 274 q 276 164 324 190 l 276 161 l 785 161 z "},"¤":{"ha":833,"x_min":51,"x_max":782,"o":"m 724 404 q 682 243 724 314 l 782 138 l 661 25 l 563 132 q 417 101 494 101 q 271 132 339 101 l 172 25 l 51 138 l 151 243 q 110 404 110 314 q 151 565 110 494 l 51 671 l 172 783 l 271 676 q 417 707 339 707 q 563 676 494 707 l 661 783 l 782 671 l 682 565 q 724 404 724 494 m 417 249 q 526 292 485 249 q 567 404 567 335 q 526 517 567 474 q 417 560 485 560 q 308 517 349 560 q 267 404 267 474 q 308 292 267 335 q 417 249 349 249 z "},"¥":{"ha":833,"x_min":18,"x_max":815,"o":"m 742 482 l 742 385 l 519 385 l 519 329 l 742 329 l 742 232 l 519 232 l 519 0 l 314 0 l 314 232 l 92 232 l 92 329 l 314 329 l 314 385 l 92 385 l 92 482 l 261 482 l 18 936 l 244 936 l 308 803 q 415 551 368 678 l 418 551 q 525 803 465 678 l 589 936 l 815 936 l 572 482 l 742 482 z "},"¦":{"ha":408,"x_min":117,"x_max":292,"o":"m 117 531 l 117 1017 l 292 1017 l 292 531 l 117 531 m 117 -285 l 117 201 l 292 201 l 292 -285 l 117 -285 z "},"§":{"ha":897,"x_min":89,"x_max":808,"o":"m 449 1011 q 757 753 740 1011 l 561 753 q 530 827 558 800 q 449 854 501 854 q 381 835 407 854 q 356 782 356 815 q 368 738 356 754 q 410 708 381 722 q 518 664 440 693 q 678 594 619 626 q 773 508 738 561 q 808 371 808 454 q 686 167 808 244 l 686 164 q 751 17 751 115 q 669 -154 751 -92 q 449 -217 586 -217 q 215 -153 300 -217 q 125 39 131 -89 l 322 39 q 444 -60 333 -60 q 520 -40 492 -60 q 549 17 549 -19 q 533 65 549 46 q 478 103 517 85 q 349 160 440 122 q 208 228 261 196 q 122 310 154 260 q 89 435 89 360 q 121 551 89 499 q 213 642 153 604 l 213 644 q 169 700 186 665 q 153 779 153 735 q 191 901 153 849 q 297 983 229 954 q 449 1011 364 1011 m 331 556 q 291 517 304 542 q 278 464 278 493 q 311 381 278 414 q 440 308 344 347 q 568 253 476 294 q 606 291 592 265 q 619 349 619 317 q 588 428 619 394 q 469 497 557 463 l 331 556 z "},"¨":{"ha":611,"x_min":69,"x_max":542,"o":"m 69 822 l 69 989 l 240 989 l 240 822 l 69 822 m 371 822 l 371 989 l 542 989 l 542 822 l 371 822 z "},"©":{"ha":1114,"x_min":57,"x_max":1057,"o":"m 557 1008 q 819 944 706 1008 q 994 764 932 881 q 1057 494 1057 647 q 994 225 1057 342 q 819 44 932 108 q 557 -19 706 -19 q 295 44 408 -19 q 119 225 182 108 q 57 494 57 342 q 119 764 57 647 q 295 944 182 881 q 557 1008 408 1008 m 557 932 q 334 877 431 932 q 185 724 238 822 q 132 494 132 625 q 185 265 132 364 q 334 112 238 167 q 557 57 431 57 q 780 112 683 57 q 930 265 876 167 q 983 494 983 364 q 930 724 983 625 q 780 877 876 822 q 557 932 683 932 m 560 815 q 749 751 678 815 q 825 581 819 688 l 690 581 q 652 672 686 638 q 560 706 618 706 q 451 649 490 706 q 411 493 411 592 q 451 340 411 396 q 557 283 490 283 q 650 318 614 283 q 693 413 686 353 l 829 413 q 747 237 819 300 q 557 174 674 174 q 351 259 426 174 q 276 493 276 344 q 352 729 276 643 q 560 815 428 815 z "},"ª":{"ha":572,"x_min":25,"x_max":525,"o":"m 279 968 q 452 917 394 968 q 510 767 510 865 l 510 599 q 525 458 510 513 l 375 458 q 367 522 367 488 l 365 522 q 200 446 307 446 q 72 489 119 446 q 25 599 25 532 q 72 703 25 664 q 228 758 119 742 q 349 771 296 768 l 349 789 q 278 864 349 864 q 226 847 244 864 q 207 796 208 829 l 46 796 q 108 919 50 871 q 279 968 167 968 m 349 682 q 260 671 300 679 q 206 649 222 664 q 190 610 190 635 q 207 569 190 585 q 254 554 224 554 q 324 579 300 554 q 344 613 339 594 q 349 664 349 632 l 349 682 z "},"«":{"ha":739,"x_min":61,"x_max":678,"o":"m 678 75 l 508 75 l 350 353 l 508 631 l 678 631 l 528 353 l 678 75 m 389 75 l 219 75 l 61 353 l 219 631 l 389 631 l 239 353 l 389 75 z "},"¬":{"ha":786,"x_min":89,"x_max":697,"o":"m 547 183 l 547 490 l 89 490 l 89 642 l 697 642 l 697 183 l 547 183 z "},"­":{"ha":444,"x_min":42,"x_max":403,"o":"m 42 329 l 42 482 l 403 482 l 403 329 l 42 329 z "},"®":{"ha":822,"x_min":63,"x_max":760,"o":"m 411 1011 q 594 967 515 1011 q 717 841 674 922 q 760 653 760 760 q 717 465 760 546 q 594 339 674 383 q 411 294 515 294 q 228 339 307 294 q 106 465 149 383 q 63 653 63 546 q 106 841 63 760 q 228 967 149 922 q 411 1011 307 1011 m 411 961 q 255 923 322 961 q 150 815 188 885 q 113 653 113 744 q 150 491 113 561 q 255 383 188 421 q 411 344 322 344 q 567 383 500 344 q 672 491 635 421 q 710 653 710 561 q 672 815 710 744 q 567 923 635 885 q 411 961 500 961 m 422 878 q 536 844 497 878 q 575 753 575 811 q 553 685 575 714 q 494 646 532 656 l 494 643 q 531 619 517 636 q 558 565 544 603 l 604 439 l 504 439 l 467 546 q 439 592 457 579 q 389 606 421 606 l 339 606 l 339 439 l 244 439 l 244 878 l 422 878 m 339 681 l 399 681 q 482 744 482 681 q 462 786 482 771 q 403 801 442 801 l 339 801 l 339 681 z "},"¯":{"ha":592,"x_min":69,"x_max":522,"o":"m 69 831 l 69 957 l 522 957 l 522 831 l 69 831 z "},"°":{"ha":471,"x_min":47,"x_max":424,"o":"m 236 1003 q 329 978 286 1003 q 398 910 372 953 q 424 815 424 867 q 398 721 424 764 q 329 653 372 678 q 236 628 286 628 q 142 653 185 628 q 73 721 99 678 q 47 815 47 764 q 73 910 47 867 q 142 978 99 953 q 236 1003 185 1003 m 236 906 q 172 879 199 906 q 146 815 146 853 q 172 751 146 778 q 236 725 199 725 q 300 751 274 725 q 326 815 326 778 q 300 879 326 853 q 236 906 274 906 z "},"±":{"ha":786,"x_min":89,"x_max":697,"o":"m 697 571 l 697 419 l 468 419 l 468 204 l 318 204 l 318 419 l 89 419 l 89 571 l 318 571 l 318 786 l 468 786 l 468 571 l 697 571 m 89 0 l 89 151 l 697 151 l 697 0 l 89 0 z "},"²":{"ha":636,"x_min":49,"x_max":590,"o":"m 319 1129 q 504 1075 435 1129 q 574 933 574 1021 q 529 806 574 854 q 397 714 485 757 q 283 648 311 672 q 251 596 254 624 l 590 596 l 590 458 l 50 458 q 49 490 49 468 q 90 662 49 594 q 243 788 132 729 q 361 860 326 831 q 396 932 396 890 q 376 979 396 961 q 319 997 356 997 q 229 901 232 997 l 57 901 q 128 1070 58 1011 q 319 1129 197 1129 z "},"³":{"ha":628,"x_min":40,"x_max":581,"o":"m 317 1129 q 503 1079 435 1129 q 572 943 572 1029 q 544 855 572 889 q 454 799 515 821 l 454 796 q 550 738 519 775 q 581 640 581 700 q 509 497 581 550 q 318 443 438 443 q 112 503 183 443 q 40 676 40 563 l 214 676 q 240 601 214 626 q 318 575 267 575 q 383 594 358 575 q 408 646 408 614 q 288 724 408 724 l 268 724 l 268 851 l 290 851 q 372 872 342 851 q 401 926 401 892 q 378 978 401 958 q 314 997 354 997 q 221 900 221 997 l 50 900 q 120 1069 50 1008 q 317 1129 190 1129 z "},"´":{"ha":486,"x_min":69,"x_max":417,"o":"m 69 786 l 176 989 l 417 989 l 222 786 l 69 786 z "},"µ":{"ha":851,"x_min":94,"x_max":838,"o":"m 743 233 q 758 160 743 181 q 804 140 772 140 q 838 144 821 140 l 838 6 q 719 -11 788 -11 q 565 101 590 -11 l 563 101 q 498 21 543 50 q 394 -8 453 -8 q 289 21 326 -8 l 289 -257 l 94 -257 l 94 706 l 289 706 l 289 292 q 320 175 289 214 q 410 136 351 136 q 510 185 472 136 q 549 328 549 235 l 549 706 l 743 706 l 743 233 z "},"¶":{"ha":911,"x_min":56,"x_max":878,"o":"m 767 856 l 767 -167 l 624 -167 l 624 856 l 510 856 l 510 -167 l 367 -167 l 367 403 l 335 403 q 131 482 207 403 q 56 696 56 561 q 131 910 56 831 q 335 989 207 989 l 878 989 l 878 856 l 767 856 z "},"·":{"ha":358,"x_min":72,"x_max":286,"o":"m 72 308 l 72 540 l 286 540 l 286 308 l 72 308 z "},"¸":{"ha":467,"x_min":69,"x_max":397,"o":"m 235 -85 q 279 -78 253 -78 q 363 -106 328 -78 q 397 -183 397 -135 q 353 -277 397 -240 q 228 -314 308 -314 q 69 -272 144 -314 l 100 -210 q 211 -240 157 -240 q 261 -228 243 -240 q 279 -192 279 -215 q 261 -153 279 -168 q 213 -139 243 -139 q 168 -147 189 -139 l 139 -115 l 211 0 l 288 0 l 235 -85 z "},"¹":{"ha":453,"x_min":15,"x_max":365,"o":"m 193 458 l 193 876 l 15 876 l 15 1000 q 154 1026 108 1000 q 211 1114 200 1053 l 365 1114 l 365 458 l 193 458 z "},"º":{"ha":608,"x_min":35,"x_max":574,"o":"m 304 968 q 501 897 428 968 q 574 706 574 825 q 501 514 574 585 q 304 443 428 443 q 108 514 181 443 q 35 706 35 585 q 108 897 35 825 q 304 968 181 968 m 304 842 q 235 806 260 842 q 210 706 210 769 q 235 605 210 642 q 304 568 261 568 q 373 605 347 568 q 399 706 399 642 q 374 806 399 769 q 304 842 349 842 z "},"»":{"ha":739,"x_min":61,"x_max":678,"o":"m 389 353 l 231 75 l 61 75 l 211 353 l 61 631 l 231 631 l 389 353 m 678 353 l 519 75 l 350 75 l 500 353 l 350 631 l 519 631 l 678 353 z "},"¼":{"ha":1113,"x_min":13,"x_max":1099,"o":"m 156 375 l 156 725 l 13 725 l 13 838 q 120 863 82 838 q 171 936 158 888 l 318 936 l 318 375 l 156 375 m 168 0 l 681 936 l 807 936 l 294 0 l 168 0 m 1007 111 l 1007 0 l 851 0 l 851 111 l 575 111 l 575 233 l 801 561 l 1007 561 l 1007 232 l 1099 232 l 1099 111 l 1007 111 m 860 232 l 860 290 q 865 463 860 386 l 864 463 q 765 306 815 375 l 713 232 l 860 232 z "},"½":{"ha":1153,"x_min":13,"x_max":1114,"o":"m 156 375 l 156 725 l 13 725 l 13 838 q 120 863 82 838 q 171 936 158 888 l 318 936 l 318 375 l 156 375 m 168 0 l 681 936 l 807 936 l 294 0 l 168 0 m 872 575 q 1037 528 976 575 q 1097 404 1097 481 q 1058 293 1097 336 q 943 217 1018 250 q 844 165 868 183 q 817 124 819 146 l 1114 124 l 1114 0 l 633 0 q 632 31 632 10 q 669 180 632 122 q 801 286 706 238 q 907 347 878 324 q 936 407 936 369 q 919 443 936 429 q 874 457 903 457 q 818 436 838 457 q 799 376 799 415 l 640 376 q 703 524 642 472 q 872 575 764 575 z "},"¾":{"ha":1283,"x_min":35,"x_max":1269,"o":"m 278 950 q 446 906 383 950 q 508 789 508 863 q 484 715 508 743 q 406 667 460 686 l 406 665 q 489 615 463 647 q 515 529 515 582 q 453 406 515 450 q 282 361 392 361 q 99 413 164 361 q 35 561 35 464 l 193 561 q 282 481 193 481 q 338 496 317 481 q 360 538 360 511 q 334 584 360 568 q 260 600 308 600 l 240 600 l 240 714 l 258 714 q 328 731 303 714 q 354 778 354 749 q 333 817 354 801 q 278 832 313 832 q 218 812 239 832 q 197 756 197 792 l 43 756 q 106 899 43 847 q 278 950 168 950 m 339 0 l 851 936 l 978 936 l 465 0 l 339 0 m 1178 111 l 1178 0 l 1022 0 l 1022 111 l 746 111 l 746 233 l 972 561 l 1178 561 l 1178 232 l 1269 232 l 1269 111 l 1178 111 m 1031 232 l 1031 290 q 1036 463 1031 386 l 1035 463 q 936 306 986 375 l 883 232 l 1031 232 z "},"¿":{"ha":718,"x_min":51,"x_max":718,"o":"m 503 706 l 503 522 l 289 522 l 289 706 l 503 706 m 375 -304 q 138 -235 224 -304 q 51 -46 51 -165 q 79 75 51 26 q 190 196 107 124 q 267 273 242 240 q 301 344 292 306 q 311 447 311 382 l 476 447 q 478 403 478 431 q 467 288 478 332 q 429 206 457 244 q 346 115 401 167 q 271 33 288 63 q 254 -40 254 3 q 285 -110 254 -85 q 375 -136 317 -136 q 478 -102 443 -136 q 515 4 513 -68 l 718 4 q 626 -226 714 -147 q 375 -304 538 -304 z "},"À":{"ha":969,"x_min":4,"x_max":965,"o":"m 296 242 l 218 0 l 4 0 l 347 989 l 622 989 l 965 0 l 751 0 l 675 242 l 296 242 m 599 482 q 486 868 531 699 l 483 868 q 372 482 432 674 l 351 417 l 619 417 l 599 482 m 603 1056 l 450 1056 l 256 1258 l 496 1258 l 603 1056 z "},"Á":{"ha":969,"x_min":4,"x_max":965,"o":"m 296 242 l 218 0 l 4 0 l 347 989 l 622 989 l 965 0 l 751 0 l 675 242 l 296 242 m 599 482 q 486 868 531 699 l 483 868 q 372 482 432 674 l 351 417 l 619 417 l 599 482 m 367 1056 l 474 1258 l 714 1258 l 519 1056 l 367 1056 z "},"Â":{"ha":969,"x_min":4,"x_max":965,"o":"m 296 242 l 218 0 l 4 0 l 347 989 l 622 989 l 965 0 l 751 0 l 675 242 l 296 242 m 599 482 q 486 868 531 699 l 483 868 q 372 482 432 674 l 351 417 l 619 417 l 599 482 m 588 1258 l 746 1056 l 568 1056 l 483 1161 l 400 1056 l 222 1056 l 381 1258 l 588 1258 z "},"Ã":{"ha":969,"x_min":4,"x_max":965,"o":"m 296 242 l 218 0 l 4 0 l 347 989 l 622 989 l 965 0 l 751 0 l 675 242 l 296 242 m 599 482 q 486 868 531 699 l 483 868 q 372 482 432 674 l 351 417 l 619 417 l 599 482 m 746 1258 q 699 1121 742 1171 q 582 1071 656 1071 q 524 1081 549 1071 q 468 1108 499 1090 q 428 1128 443 1122 q 396 1135 414 1135 q 351 1119 367 1135 q 332 1071 336 1104 l 224 1071 q 271 1208 228 1158 q 388 1258 314 1258 q 447 1249 421 1258 q 503 1221 472 1239 q 541 1201 525 1208 q 574 1194 557 1194 q 618 1210 603 1194 q 638 1258 633 1225 l 746 1258 z "},"Ä":{"ha":969,"x_min":4,"x_max":965,"o":"m 296 242 l 218 0 l 4 0 l 347 989 l 622 989 l 965 0 l 751 0 l 675 242 l 296 242 m 599 482 q 486 868 531 699 l 483 868 q 372 482 432 674 l 351 417 l 619 417 l 599 482 m 249 1068 l 249 1235 l 419 1235 l 419 1068 l 249 1068 m 550 1068 l 550 1235 l 721 1235 l 721 1068 l 550 1068 z "},"Å":{"ha":969,"x_min":4,"x_max":965,"o":"m 296 242 l 218 0 l 4 0 l 347 989 l 622 989 l 965 0 l 751 0 l 675 242 l 296 242 m 599 482 q 486 868 531 699 l 483 868 q 372 482 432 674 l 351 417 l 619 417 l 599 482 m 485 1342 q 591 1298 547 1342 q 635 1192 635 1254 q 591 1085 635 1129 q 485 1042 547 1042 q 378 1085 422 1042 q 335 1192 335 1129 q 378 1298 335 1254 q 485 1342 422 1342 m 485 1267 q 432 1245 454 1267 q 410 1192 410 1224 q 432 1139 410 1161 q 485 1117 454 1117 q 538 1139 517 1117 q 560 1192 560 1161 q 538 1245 560 1224 q 485 1267 517 1267 z "},"Æ":{"ha":1340,"x_min":-8,"x_max":1271,"o":"m 1271 0 l 718 0 l 682 249 l 329 249 l 222 0 l -8 0 l 453 989 l 1258 989 l 1258 814 l 797 814 l 829 590 l 1226 590 l 1226 417 l 854 417 l 889 175 l 1271 175 l 1271 0 m 599 826 l 579 826 l 404 421 l 657 421 l 599 826 z "},"Ç":{"ha":974,"x_min":51,"x_max":918,"o":"m 918 347 q 806 88 904 183 q 546 -21 708 -8 l 506 -85 q 550 -78 524 -78 q 633 -106 599 -78 q 668 -183 668 -135 q 624 -277 668 -240 q 499 -314 579 -314 q 340 -272 415 -314 l 371 -210 q 482 -240 428 -240 q 532 -228 514 -240 q 550 -192 550 -215 q 532 -153 550 -168 q 483 -139 514 -139 q 439 -147 460 -139 l 410 -115 l 468 -21 q 246 50 340 -14 q 101 228 151 114 q 51 494 51 342 q 106 769 51 653 q 263 949 161 886 q 504 1011 365 1011 q 716 965 625 1011 q 858 836 807 919 q 914 646 910 753 l 708 646 q 644 781 699 732 q 504 831 590 831 q 327 741 392 831 q 263 494 263 651 q 326 248 263 338 q 500 158 389 158 q 642 208 588 158 q 708 347 697 257 l 918 347 z "},"È":{"ha":879,"x_min":114,"x_max":810,"o":"m 318 814 l 318 590 l 765 590 l 765 417 l 318 417 l 318 175 l 810 175 l 810 0 l 114 0 l 114 989 l 797 989 l 797 814 l 318 814 m 574 1056 l 421 1056 l 226 1258 l 467 1258 l 574 1056 z "},"É":{"ha":879,"x_min":114,"x_max":810,"o":"m 318 814 l 318 590 l 765 590 l 765 417 l 318 417 l 318 175 l 810 175 l 810 0 l 114 0 l 114 989 l 797 989 l 797 814 l 318 814 m 338 1056 l 444 1258 l 685 1258 l 490 1056 l 338 1056 z "},"Ê":{"ha":879,"x_min":114,"x_max":810,"o":"m 318 814 l 318 590 l 765 590 l 765 417 l 318 417 l 318 175 l 810 175 l 810 0 l 114 0 l 114 989 l 797 989 l 797 814 l 318 814 m 558 1258 l 717 1056 l 539 1056 l 454 1161 l 371 1056 l 193 1056 l 351 1258 l 558 1258 z "},"Ë":{"ha":879,"x_min":114,"x_max":810,"o":"m 318 814 l 318 590 l 765 590 l 765 417 l 318 417 l 318 175 l 810 175 l 810 0 l 114 0 l 114 989 l 797 989 l 797 814 l 318 814 m 219 1068 l 219 1235 l 390 1235 l 390 1068 l 219 1068 m 521 1068 l 521 1235 l 692 1235 l 692 1068 l 521 1068 z "},"Ì":{"ha":432,"x_min":-12,"x_max":335,"o":"m 114 0 l 114 989 l 318 989 l 318 0 l 114 0 m 335 1056 l 182 1056 l -12 1258 l 228 1258 l 335 1056 z "},"Í":{"ha":432,"x_min":99,"x_max":446,"o":"m 114 0 l 114 989 l 318 989 l 318 0 l 114 0 m 99 1056 l 206 1258 l 446 1258 l 251 1056 l 99 1056 z "},"Î":{"ha":432,"x_min":-46,"x_max":478,"o":"m 114 0 l 114 989 l 318 989 l 318 0 l 114 0 m 319 1258 l 478 1056 l 300 1056 l 215 1161 l 132 1056 l -46 1056 l 113 1258 l 319 1258 z "},"Ï":{"ha":432,"x_min":-19,"x_max":453,"o":"m 114 0 l 114 989 l 318 989 l 318 0 l 114 0 m -19 1068 l -19 1235 l 151 1235 l 151 1068 l -19 1068 m 282 1068 l 282 1235 l 453 1235 l 453 1068 l 282 1068 z "},"Ð":{"ha":1019,"x_min":25,"x_max":968,"o":"m 443 989 q 832 860 696 989 q 968 494 968 732 q 832 128 968 257 q 443 0 696 0 l 114 0 l 114 426 l 25 426 l 25 574 l 114 574 l 114 989 l 443 989 m 440 175 q 678 254 600 175 q 757 494 757 333 q 678 735 757 656 q 440 814 600 814 l 317 814 l 317 574 l 547 574 l 547 426 l 317 426 l 317 175 l 440 175 z "},"Ñ":{"ha":1078,"x_min":114,"x_max":964,"o":"m 674 0 l 482 401 q 301 810 376 625 l 299 810 q 310 381 310 581 l 310 0 l 114 0 l 114 989 l 404 989 l 596 588 q 776 179 701 364 l 779 179 q 768 608 768 408 l 768 989 l 964 989 l 964 0 l 674 0 m 800 1258 q 753 1121 796 1171 q 636 1071 710 1071 q 578 1081 603 1071 q 522 1108 553 1090 q 483 1128 497 1122 q 450 1135 468 1135 q 406 1119 421 1135 q 386 1071 390 1104 l 278 1071 q 325 1208 282 1158 q 442 1258 368 1258 q 501 1249 475 1258 q 557 1221 526 1239 q 595 1201 579 1208 q 628 1194 611 1194 q 672 1210 657 1194 q 692 1258 688 1225 l 800 1258 z "},"Ò":{"ha":1039,"x_min":51,"x_max":988,"o":"m 519 1011 q 769 949 664 1011 q 931 770 875 886 q 988 494 988 654 q 931 219 988 335 q 769 40 875 103 q 519 -22 664 -22 q 269 40 375 -22 q 108 219 164 103 q 51 494 51 335 q 108 770 51 654 q 269 949 164 886 q 519 1011 375 1011 m 519 831 q 331 741 400 831 q 263 494 263 651 q 331 248 263 338 q 519 158 400 158 q 708 248 639 158 q 776 494 776 338 q 708 741 776 651 q 519 831 639 831 m 638 1056 l 485 1056 l 290 1258 l 531 1258 l 638 1056 z "},"Ó":{"ha":1039,"x_min":51,"x_max":988,"o":"m 519 1011 q 769 949 664 1011 q 931 770 875 886 q 988 494 988 654 q 931 219 988 335 q 769 40 875 103 q 519 -22 664 -22 q 269 40 375 -22 q 108 219 164 103 q 51 494 51 335 q 108 770 51 654 q 269 949 164 886 q 519 1011 375 1011 m 519 831 q 331 741 400 831 q 263 494 263 651 q 331 248 263 338 q 519 158 400 158 q 708 248 639 158 q 776 494 776 338 q 708 741 776 651 q 519 831 639 831 m 401 1056 l 508 1258 l 749 1258 l 554 1056 l 401 1056 z "},"Ô":{"ha":1039,"x_min":51,"x_max":988,"o":"m 519 1011 q 769 949 664 1011 q 931 770 875 886 q 988 494 988 654 q 931 219 988 335 q 769 40 875 103 q 519 -22 664 -22 q 269 40 375 -22 q 108 219 164 103 q 51 494 51 335 q 108 770 51 654 q 269 949 164 886 q 519 1011 375 1011 m 519 831 q 331 741 400 831 q 263 494 263 651 q 331 248 263 338 q 519 158 400 158 q 708 248 639 158 q 776 494 776 338 q 708 741 776 651 q 519 831 639 831 m 622 1258 l 781 1056 l 603 1056 l 518 1161 l 435 1056 l 257 1056 l 415 1258 l 622 1258 z "},"Õ":{"ha":1039,"x_min":51,"x_max":988,"o":"m 519 1011 q 769 949 664 1011 q 931 770 875 886 q 988 494 988 654 q 931 219 988 335 q 769 40 875 103 q 519 -22 664 -22 q 269 40 375 -22 q 108 219 164 103 q 51 494 51 335 q 108 770 51 654 q 269 949 164 886 q 519 1011 375 1011 m 519 831 q 331 741 400 831 q 263 494 263 651 q 331 248 263 338 q 519 158 400 158 q 708 248 639 158 q 776 494 776 338 q 708 741 776 651 q 519 831 639 831 m 781 1258 q 733 1121 776 1171 q 617 1071 690 1071 q 558 1081 583 1071 q 503 1108 533 1090 q 463 1128 478 1122 q 431 1135 449 1135 q 386 1119 401 1135 q 367 1071 371 1104 l 258 1071 q 306 1208 263 1158 q 422 1258 349 1258 q 481 1249 456 1258 q 538 1221 507 1239 q 576 1201 560 1208 q 608 1194 592 1194 q 653 1210 638 1194 q 672 1258 668 1225 l 781 1258 z "},"Ö":{"ha":1039,"x_min":51,"x_max":988,"o":"m 519 1011 q 769 949 664 1011 q 931 770 875 886 q 988 494 988 654 q 931 219 988 335 q 769 40 875 103 q 519 -22 664 -22 q 269 40 375 -22 q 108 219 164 103 q 51 494 51 335 q 108 770 51 654 q 269 949 164 886 q 519 1011 375 1011 m 519 831 q 331 741 400 831 q 263 494 263 651 q 331 248 263 338 q 519 158 400 158 q 708 248 639 158 q 776 494 776 338 q 708 741 776 651 q 519 831 639 831 m 283 1068 l 283 1235 l 454 1235 l 454 1068 l 283 1068 m 585 1068 l 585 1235 l 756 1235 l 756 1068 l 585 1068 z "},"×":{"ha":786,"x_min":29,"x_max":757,"o":"m 500 426 l 757 169 l 650 63 l 393 319 l 138 63 l 29 169 l 286 426 l 29 683 l 138 789 l 393 533 l 650 789 l 757 683 l 500 426 z "},"Ø":{"ha":1039,"x_min":51,"x_max":988,"o":"m 867 868 q 956 706 925 801 q 988 494 988 611 q 931 219 988 335 q 769 40 875 103 q 519 -22 664 -22 q 256 49 365 -22 l 174 -60 l 88 7 l 172 121 q 51 494 51 258 q 108 770 51 654 q 269 949 164 886 q 519 1011 375 1011 q 785 939 674 1011 l 867 1049 l 951 982 l 867 868 m 254 494 q 296 286 254 374 l 674 790 q 519 842 610 842 q 325 749 396 842 q 254 494 254 656 m 519 147 q 714 240 643 147 q 785 494 785 333 q 742 703 785 617 l 365 197 q 519 147 431 147 z "},"Ù":{"ha":997,"x_min":106,"x_max":892,"o":"m 892 378 q 790 81 892 183 q 499 -22 688 -22 q 208 81 310 -22 q 106 378 106 183 l 106 989 l 310 989 l 310 385 q 358 217 310 275 q 499 158 407 158 q 639 217 590 158 q 688 385 688 275 l 688 989 l 892 989 l 892 378 m 617 1056 l 464 1056 l 269 1258 l 510 1258 l 617 1056 z "},"Ú":{"ha":997,"x_min":106,"x_max":892,"o":"m 892 378 q 790 81 892 183 q 499 -22 688 -22 q 208 81 310 -22 q 106 378 106 183 l 106 989 l 310 989 l 310 385 q 358 217 310 275 q 499 158 407 158 q 639 217 590 158 q 688 385 688 275 l 688 989 l 892 989 l 892 378 m 381 1056 l 488 1258 l 728 1258 l 533 1056 l 381 1056 z "},"Û":{"ha":997,"x_min":106,"x_max":892,"o":"m 892 378 q 790 81 892 183 q 499 -22 688 -22 q 208 81 310 -22 q 106 378 106 183 l 106 989 l 310 989 l 310 385 q 358 217 310 275 q 499 158 407 158 q 639 217 590 158 q 688 385 688 275 l 688 989 l 892 989 l 892 378 m 601 1258 l 760 1056 l 582 1056 l 497 1161 l 414 1056 l 236 1056 l 394 1258 l 601 1258 z "},"Ü":{"ha":997,"x_min":106,"x_max":892,"o":"m 892 378 q 790 81 892 183 q 499 -22 688 -22 q 208 81 310 -22 q 106 378 106 183 l 106 989 l 310 989 l 310 385 q 358 217 310 275 q 499 158 407 158 q 639 217 590 158 q 688 385 688 275 l 688 989 l 892 989 l 892 378 m 263 1068 l 263 1235 l 433 1235 l 433 1068 l 263 1068 m 564 1068 l 564 1235 l 735 1235 l 735 1068 l 564 1068 z "},"Ý":{"ha":886,"x_min":3,"x_max":882,"o":"m 544 0 l 340 0 l 340 385 l 3 989 l 232 989 l 326 803 q 442 551 389 679 l 444 551 q 560 803 497 679 l 654 989 l 882 989 l 544 385 l 544 0 m 325 1056 l 432 1258 l 672 1258 l 478 1056 l 325 1056 z "},"Þ":{"ha":883,"x_min":114,"x_max":850,"o":"m 488 826 q 757 740 664 826 q 850 507 850 654 q 757 274 850 360 q 488 188 664 188 l 318 188 l 318 0 l 114 0 l 114 989 l 318 989 l 318 826 l 488 826 m 318 357 l 460 357 q 642 507 642 357 q 460 657 642 657 l 318 657 l 318 357 z "},"ß":{"ha":799,"x_min":94,"x_max":753,"o":"m 406 1011 q 626 944 544 1011 q 707 767 707 878 q 538 550 707 604 l 538 547 q 699 460 644 526 q 753 286 753 394 q 665 71 753 149 q 439 -7 578 -7 q 369 0 401 -7 l 369 157 q 400 154 382 154 q 551 307 551 154 q 509 422 551 381 q 386 463 467 463 l 369 463 l 369 622 q 485 651 450 622 q 521 746 521 681 q 492 828 521 800 q 408 857 463 857 q 317 818 346 857 q 289 694 289 779 l 289 0 l 94 0 l 94 708 q 176 931 94 851 q 406 1011 258 1011 z "},"à":{"ha":760,"x_min":36,"x_max":693,"o":"m 371 728 q 597 658 521 728 q 674 449 674 588 l 674 193 q 693 0 674 74 l 518 0 q 508 94 508 40 l 506 94 q 276 -17 428 -17 q 101 44 167 -17 q 36 197 36 104 q 99 343 36 288 q 310 422 163 399 q 486 442 399 436 l 486 467 q 456 561 486 531 q 371 592 425 592 q 287 563 317 592 q 254 485 257 535 l 65 485 q 149 660 71 592 q 371 728 226 728 m 486 324 q 344 308 403 318 q 257 275 283 297 q 231 211 231 253 q 258 147 231 171 q 335 122 285 122 q 397 133 367 122 q 446 163 426 143 q 478 216 469 186 q 486 297 486 246 l 486 324 m 481 786 l 328 786 l 133 989 l 374 989 l 481 786 z "},"á":{"ha":760,"x_min":36,"x_max":693,"o":"m 371 728 q 597 658 521 728 q 674 449 674 588 l 674 193 q 693 0 674 74 l 518 0 q 508 94 508 40 l 506 94 q 276 -17 428 -17 q 101 44 167 -17 q 36 197 36 104 q 99 343 36 288 q 310 422 163 399 q 486 442 399 436 l 486 467 q 456 561 486 531 q 371 592 425 592 q 287 563 317 592 q 254 485 257 535 l 65 485 q 149 660 71 592 q 371 728 226 728 m 486 324 q 344 308 403 318 q 257 275 283 297 q 231 211 231 253 q 258 147 231 171 q 335 122 285 122 q 397 133 367 122 q 446 163 426 143 q 478 216 469 186 q 486 297 486 246 l 486 324 m 244 786 l 351 989 l 592 989 l 397 786 l 244 786 z "},"â":{"ha":760,"x_min":36,"x_max":693,"o":"m 371 728 q 597 658 521 728 q 674 449 674 588 l 674 193 q 693 0 674 74 l 518 0 q 508 94 508 40 l 506 94 q 276 -17 428 -17 q 101 44 167 -17 q 36 197 36 104 q 99 343 36 288 q 310 422 163 399 q 486 442 399 436 l 486 467 q 456 561 486 531 q 371 592 425 592 q 287 563 317 592 q 254 485 257 535 l 65 485 q 149 660 71 592 q 371 728 226 728 m 486 324 q 344 308 403 318 q 257 275 283 297 q 231 211 231 253 q 258 147 231 171 q 335 122 285 122 q 397 133 367 122 q 446 163 426 143 q 478 216 469 186 q 486 297 486 246 l 486 324 m 363 892 l 278 786 l 100 786 l 258 989 l 465 989 l 624 786 l 446 786 l 363 892 z "},"ã":{"ha":760,"x_min":36,"x_max":693,"o":"m 371 728 q 597 658 521 728 q 674 449 674 588 l 674 193 q 693 0 674 74 l 518 0 q 508 94 508 40 l 506 94 q 276 -17 428 -17 q 101 44 167 -17 q 36 197 36 104 q 99 343 36 288 q 310 422 163 399 q 486 442 399 436 l 486 467 q 456 561 486 531 q 371 592 425 592 q 287 563 317 592 q 254 485 257 535 l 65 485 q 149 660 71 592 q 371 728 226 728 m 486 324 q 344 308 403 318 q 257 275 283 297 q 231 211 231 253 q 258 147 231 171 q 335 122 285 122 q 397 133 367 122 q 446 163 426 143 q 478 216 469 186 q 486 297 486 246 l 486 324 m 624 989 q 576 851 619 901 q 460 801 533 801 q 401 811 426 801 q 346 839 376 821 q 306 859 321 853 q 274 865 292 865 q 229 850 244 865 q 210 801 214 835 l 101 801 q 149 939 106 889 q 265 989 192 989 q 324 979 299 989 q 381 951 350 969 q 419 932 403 939 q 451 925 435 925 q 496 940 481 925 q 515 989 511 956 l 624 989 z "},"ä":{"ha":760,"x_min":36,"x_max":693,"o":"m 371 728 q 597 658 521 728 q 674 449 674 588 l 674 193 q 693 0 674 74 l 518 0 q 508 94 508 40 l 506 94 q 276 -17 428 -17 q 101 44 167 -17 q 36 197 36 104 q 99 343 36 288 q 310 422 163 399 q 486 442 399 436 l 486 467 q 456 561 486 531 q 371 592 425 592 q 287 563 317 592 q 254 485 257 535 l 65 485 q 149 660 71 592 q 371 728 226 728 m 486 324 q 344 308 403 318 q 257 275 283 297 q 231 211 231 253 q 258 147 231 171 q 335 122 285 122 q 397 133 367 122 q 446 163 426 143 q 478 216 469 186 q 486 297 486 246 l 486 324 m 126 822 l 126 989 l 297 989 l 297 822 l 126 822 m 428 822 l 428 989 l 599 989 l 599 822 l 428 822 z "},"å":{"ha":760,"x_min":36,"x_max":693,"o":"m 371 728 q 597 658 521 728 q 674 449 674 588 l 674 193 q 693 0 674 74 l 518 0 q 508 94 508 40 l 506 94 q 276 -17 428 -17 q 101 44 167 -17 q 36 197 36 104 q 99 343 36 288 q 310 422 163 399 q 486 442 399 436 l 486 467 q 456 561 486 531 q 371 592 425 592 q 287 563 317 592 q 254 485 257 535 l 65 485 q 149 660 71 592 q 371 728 226 728 m 486 324 q 344 308 403 318 q 257 275 283 297 q 231 211 231 253 q 258 147 231 171 q 335 122 285 122 q 397 133 367 122 q 446 163 426 143 q 478 216 469 186 q 486 297 486 246 l 486 324 m 363 1072 q 469 1028 425 1072 q 513 922 513 985 q 469 816 513 860 q 363 772 425 772 q 256 816 300 772 q 213 922 213 860 q 256 1028 213 985 q 363 1072 300 1072 m 363 997 q 310 976 332 997 q 288 922 288 954 q 310 869 288 892 q 363 847 332 847 q 416 869 394 847 q 438 922 438 892 q 416 976 438 954 q 363 997 394 997 z "},"æ":{"ha":1222,"x_min":36,"x_max":1174,"o":"m 833 115 q 923 142 888 115 q 965 214 958 169 l 1164 214 q 1106 94 1150 149 q 992 9 1063 40 q 833 -22 922 -22 q 685 10 750 -22 q 576 101 619 42 q 465 9 535 40 q 310 -22 396 -22 q 165 6 226 -22 q 69 85 103 35 q 36 197 36 135 q 120 368 36 308 q 392 428 204 428 l 500 428 l 500 467 q 469 562 500 532 q 378 592 439 592 q 290 563 321 592 q 256 485 258 535 l 67 485 q 151 660 72 592 q 378 728 231 728 q 611 644 538 728 q 832 728 699 728 q 1035 665 950 728 q 1153 493 1119 601 q 1174 313 1174 421 l 681 313 q 726 163 685 210 q 833 115 768 115 m 832 590 q 732 549 771 590 q 683 428 693 508 l 979 428 q 932 549 972 508 q 832 590 892 590 m 413 313 q 272 288 313 313 q 231 211 231 263 q 260 142 231 168 q 340 117 289 117 q 405 128 374 117 q 457 160 436 139 q 491 215 482 185 q 500 297 500 246 l 500 313 l 413 313 z "},"ç":{"ha":781,"x_min":49,"x_max":738,"o":"m 403 128 q 494 167 458 128 q 533 276 529 207 l 738 276 q 649 72 726 151 q 446 -21 571 -8 l 406 -85 q 450 -78 424 -78 q 533 -106 499 -78 q 568 -183 568 -135 q 524 -277 568 -240 q 399 -314 479 -314 q 240 -272 315 -314 l 271 -210 q 382 -240 328 -240 q 432 -228 414 -240 q 450 -192 450 -215 q 432 -153 450 -168 q 383 -139 414 -139 q 339 -147 360 -139 l 310 -115 l 369 -21 q 135 91 222 -10 q 49 353 49 192 q 92 550 49 465 q 217 681 136 635 q 404 728 297 728 q 570 692 497 728 q 687 590 643 656 q 738 443 731 525 l 535 443 q 494 542 529 506 q 403 578 458 578 q 292 517 332 578 q 251 353 251 457 q 292 188 251 249 q 403 128 332 128 z "},"è":{"ha":796,"x_min":49,"x_max":747,"o":"m 400 115 q 494 142 457 115 q 539 214 532 169 l 738 214 q 678 94 724 149 q 562 9 633 40 q 400 -22 490 -22 q 211 26 290 -22 q 90 160 132 74 q 49 358 49 246 q 90 547 49 464 q 211 679 132 631 q 399 728 290 728 q 606 665 519 728 q 725 493 692 601 q 747 313 747 422 l 240 313 q 288 163 244 210 q 400 115 332 115 m 399 590 q 297 551 338 590 q 244 435 256 513 l 553 435 q 502 551 544 511 q 399 590 460 590 m 515 786 l 363 786 l 168 989 l 408 989 l 515 786 z "},"é":{"ha":796,"x_min":49,"x_max":747,"o":"m 400 115 q 494 142 457 115 q 539 214 532 169 l 738 214 q 678 94 724 149 q 562 9 633 40 q 400 -22 490 -22 q 211 26 290 -22 q 90 160 132 74 q 49 358 49 246 q 90 547 49 464 q 211 679 132 631 q 399 728 290 728 q 606 665 519 728 q 725 493 692 601 q 747 313 747 422 l 240 313 q 288 163 244 210 q 400 115 332 115 m 399 590 q 297 551 338 590 q 244 435 256 513 l 553 435 q 502 551 544 511 q 399 590 460 590 m 279 786 l 386 989 l 626 989 l 432 786 l 279 786 z "},"ê":{"ha":796,"x_min":49,"x_max":747,"o":"m 400 115 q 494 142 457 115 q 539 214 532 169 l 738 214 q 678 94 724 149 q 562 9 633 40 q 400 -22 490 -22 q 211 26 290 -22 q 90 160 132 74 q 49 358 49 246 q 90 547 49 464 q 211 679 132 631 q 399 728 290 728 q 606 665 519 728 q 725 493 692 601 q 747 313 747 422 l 240 313 q 288 163 244 210 q 400 115 332 115 m 399 590 q 297 551 338 590 q 244 435 256 513 l 553 435 q 502 551 544 511 q 399 590 460 590 m 397 892 l 313 786 l 135 786 l 293 989 l 500 989 l 658 786 l 481 786 l 397 892 z "},"ë":{"ha":796,"x_min":49,"x_max":747,"o":"m 400 115 q 494 142 457 115 q 539 214 532 169 l 738 214 q 678 94 724 149 q 562 9 633 40 q 400 -22 490 -22 q 211 26 290 -22 q 90 160 132 74 q 49 358 49 246 q 90 547 49 464 q 211 679 132 631 q 399 728 290 728 q 606 665 519 728 q 725 493 692 601 q 747 313 747 422 l 240 313 q 288 163 244 210 q 400 115 332 115 m 399 590 q 297 551 338 590 q 244 435 256 513 l 553 435 q 502 551 544 511 q 399 590 460 590 m 161 822 l 161 989 l 332 989 l 332 822 l 161 822 m 463 822 l 463 989 l 633 989 l 633 822 l 463 822 z "},"ì":{"ha":383,"x_min":-37,"x_max":310,"o":"m 94 0 l 94 706 l 289 706 l 289 0 l 94 0 m 310 786 l 157 786 l -37 989 l 203 989 l 310 786 z "},"í":{"ha":383,"x_min":74,"x_max":421,"o":"m 94 0 l 94 706 l 289 706 l 289 0 l 94 0 m 74 786 l 181 989 l 421 989 l 226 786 l 74 786 z "},"î":{"ha":383,"x_min":-50,"x_max":432,"o":"m 94 0 l 94 706 l 289 706 l 289 0 l 94 0 m 265 788 l 192 894 l 118 788 l -50 788 l 93 989 l 289 989 l 432 788 l 265 788 z "},"ï":{"ha":383,"x_min":-14,"x_max":397,"o":"m 94 0 l 94 706 l 289 706 l 289 0 l 94 0 m -14 822 l -14 989 l 157 989 l 157 822 l -14 822 m 226 822 l 226 989 l 397 989 l 397 822 l 226 822 z "},"ð":{"ha":819,"x_min":49,"x_max":771,"o":"m 646 729 q 740 553 710 642 q 771 361 771 464 q 727 159 771 246 q 603 25 683 72 q 413 -22 522 -22 q 220 22 303 -22 q 93 148 138 67 q 49 339 49 229 q 87 533 49 450 q 196 660 125 615 q 361 706 267 706 q 464 683 417 706 l 464 686 q 350 801 418 743 l 174 731 l 140 814 l 272 867 q 185 932 224 906 l 338 1011 q 443 935 400 969 l 619 1006 l 653 922 l 519 868 q 646 729 596 799 m 410 128 q 524 189 482 128 q 567 353 567 250 q 524 517 567 456 q 410 578 482 578 q 295 517 338 578 q 253 353 253 456 q 295 189 253 250 q 410 128 338 128 z "},"ñ":{"ha":833,"x_min":94,"x_max":746,"o":"m 486 722 q 676 648 607 722 q 746 433 746 574 l 746 0 l 551 0 l 551 414 q 519 531 551 492 q 428 569 486 569 q 327 520 365 569 q 289 378 289 471 l 289 0 l 94 0 l 94 706 l 276 706 l 276 617 l 279 617 q 368 694 315 665 q 486 722 421 722 m 682 989 q 635 851 678 901 q 518 801 592 801 q 460 811 485 801 q 404 839 435 821 q 365 859 379 853 q 332 865 350 865 q 288 850 303 865 q 268 801 272 835 l 160 801 q 207 939 164 889 q 324 989 250 989 q 383 979 357 989 q 439 951 408 969 q 477 932 461 939 q 510 925 493 925 q 554 940 539 925 q 574 989 569 956 l 682 989 z "},"ò":{"ha":819,"x_min":49,"x_max":771,"o":"m 410 728 q 601 682 519 728 q 726 551 682 636 q 771 353 771 467 q 726 154 771 239 q 601 24 682 69 q 410 -22 519 -22 q 219 24 300 -22 q 93 154 138 69 q 49 353 49 239 q 93 551 49 467 q 219 682 138 636 q 410 728 300 728 m 410 578 q 295 517 338 578 q 253 353 253 456 q 295 189 253 250 q 410 128 338 128 q 524 189 482 128 q 567 353 567 250 q 524 517 567 456 q 410 578 482 578 m 528 786 l 375 786 l 181 989 l 421 989 l 528 786 z "},"ó":{"ha":819,"x_min":49,"x_max":771,"o":"m 410 728 q 601 682 519 728 q 726 551 682 636 q 771 353 771 467 q 726 154 771 239 q 601 24 682 69 q 410 -22 519 -22 q 219 24 300 -22 q 93 154 138 69 q 49 353 49 239 q 93 551 49 467 q 219 682 138 636 q 410 728 300 728 m 410 578 q 295 517 338 578 q 253 353 253 456 q 295 189 253 250 q 410 128 338 128 q 524 189 482 128 q 567 353 567 250 q 524 517 567 456 q 410 578 482 578 m 292 786 l 399 989 l 639 989 l 444 786 l 292 786 z "},"ô":{"ha":819,"x_min":49,"x_max":771,"o":"m 410 728 q 601 682 519 728 q 726 551 682 636 q 771 353 771 467 q 726 154 771 239 q 601 24 682 69 q 410 -22 519 -22 q 219 24 300 -22 q 93 154 138 69 q 49 353 49 239 q 93 551 49 467 q 219 682 138 636 q 410 728 300 728 m 410 578 q 295 517 338 578 q 253 353 253 456 q 295 189 253 250 q 410 128 338 128 q 524 189 482 128 q 567 353 567 250 q 524 517 567 456 q 410 578 482 578 m 410 892 l 325 786 l 147 786 l 306 989 l 513 989 l 671 786 l 493 786 l 410 892 z "},"õ":{"ha":819,"x_min":49,"x_max":771,"o":"m 410 728 q 601 682 519 728 q 726 551 682 636 q 771 353 771 467 q 726 154 771 239 q 601 24 682 69 q 410 -22 519 -22 q 219 24 300 -22 q 93 154 138 69 q 49 353 49 239 q 93 551 49 467 q 219 682 138 636 q 410 728 300 728 m 410 578 q 295 517 338 578 q 253 353 253 456 q 295 189 253 250 q 410 128 338 128 q 524 189 482 128 q 567 353 567 250 q 524 517 567 456 q 410 578 482 578 m 671 989 q 624 851 667 901 q 507 801 581 801 q 449 811 474 801 q 393 839 424 821 q 353 859 368 853 q 321 865 339 865 q 276 850 292 865 q 257 801 261 835 l 149 801 q 196 939 153 889 q 313 989 239 989 q 372 979 346 989 q 428 951 397 969 q 466 932 450 939 q 499 925 482 925 q 543 940 528 925 q 563 989 558 956 l 671 989 z "},"ö":{"ha":819,"x_min":49,"x_max":771,"o":"m 410 728 q 601 682 519 728 q 726 551 682 636 q 771 353 771 467 q 726 154 771 239 q 601 24 682 69 q 410 -22 519 -22 q 219 24 300 -22 q 93 154 138 69 q 49 353 49 239 q 93 551 49 467 q 219 682 138 636 q 410 728 300 728 m 410 578 q 295 517 338 578 q 253 353 253 456 q 295 189 253 250 q 410 128 338 128 q 524 189 482 128 q 567 353 567 250 q 524 517 567 456 q 410 578 482 578 m 174 822 l 174 989 l 344 989 l 344 822 l 174 822 m 475 822 l 475 989 l 646 989 l 646 822 l 475 822 z "},"÷":{"ha":786,"x_min":89,"x_max":697,"o":"m 311 613 l 311 765 l 475 765 l 475 613 l 311 613 m 89 364 l 89 515 l 697 515 l 697 364 l 89 364 m 311 114 l 311 267 l 475 267 l 475 114 l 311 114 z "},"ø":{"ha":819,"x_min":49,"x_max":771,"o":"m 674 625 q 771 353 771 524 q 726 154 771 239 q 601 24 682 69 q 410 -22 519 -22 q 219 24 301 -22 l 149 -72 l 75 -18 l 147 78 q 74 198 100 128 q 49 353 49 268 q 93 551 49 467 q 219 682 138 636 q 410 728 300 728 q 601 682 518 728 l 674 778 l 746 721 l 674 625 m 410 586 q 288 523 333 586 q 242 353 242 460 q 263 231 242 281 l 504 553 q 410 586 464 586 m 410 119 q 533 183 488 119 q 578 353 578 246 q 558 472 578 421 l 317 151 q 410 119 356 119 z "},"ù":{"ha":833,"x_min":88,"x_max":739,"o":"m 347 -17 q 157 58 226 -17 q 88 272 88 132 l 88 706 l 282 706 l 282 292 q 315 175 282 214 q 406 136 347 136 q 506 185 468 136 q 544 328 544 235 l 544 706 l 739 706 l 739 0 l 557 0 l 557 89 l 554 89 q 465 12 518 40 q 347 -17 413 -17 m 535 786 l 382 786 l 188 989 l 428 989 l 535 786 z "},"ú":{"ha":833,"x_min":88,"x_max":739,"o":"m 347 -17 q 157 58 226 -17 q 88 272 88 132 l 88 706 l 282 706 l 282 292 q 315 175 282 214 q 406 136 347 136 q 506 185 468 136 q 544 328 544 235 l 544 706 l 739 706 l 739 0 l 557 0 l 557 89 l 554 89 q 465 12 518 40 q 347 -17 413 -17 m 299 786 l 406 989 l 646 989 l 451 786 l 299 786 z "},"û":{"ha":833,"x_min":88,"x_max":739,"o":"m 347 -17 q 157 58 226 -17 q 88 272 88 132 l 88 706 l 282 706 l 282 292 q 315 175 282 214 q 406 136 347 136 q 506 185 468 136 q 544 328 544 235 l 544 706 l 739 706 l 739 0 l 557 0 l 557 89 l 554 89 q 465 12 518 40 q 347 -17 413 -17 m 417 892 l 332 786 l 154 786 l 313 989 l 519 989 l 678 786 l 500 786 l 417 892 z "},"ü":{"ha":833,"x_min":88,"x_max":739,"o":"m 347 -17 q 157 58 226 -17 q 88 272 88 132 l 88 706 l 282 706 l 282 292 q 315 175 282 214 q 406 136 347 136 q 506 185 468 136 q 544 328 544 235 l 544 706 l 739 706 l 739 0 l 557 0 l 557 89 l 554 89 q 465 12 518 40 q 347 -17 413 -17 m 181 822 l 181 989 l 351 989 l 351 822 l 181 822 m 482 822 l 482 989 l 653 989 l 653 822 l 482 822 z "},"ý":{"ha":700,"x_min":-10,"x_max":710,"o":"m 457 -4 q 377 -160 421 -104 q 272 -241 333 -217 q 121 -265 211 -265 q 19 -254 67 -265 l 19 -99 q 94 -110 50 -110 q 188 -78 153 -110 q 224 4 224 -47 q 217 49 224 24 q 190 132 211 74 l -10 706 l 199 706 l 271 469 q 349 174 315 321 l 351 174 q 433 469 393 344 l 510 706 l 710 706 l 457 -4 m 232 786 l 339 989 l 579 989 l 385 786 l 232 786 z "},"þ":{"ha":831,"x_min":94,"x_max":782,"o":"m 292 621 q 376 697 324 669 q 489 724 428 724 q 643 678 576 724 q 746 548 710 632 q 782 353 782 464 q 747 158 782 242 q 645 28 711 74 q 492 -18 579 -18 q 377 9 431 -18 q 292 85 324 36 l 289 85 l 289 -257 l 94 -257 l 94 989 l 289 989 l 289 621 l 292 621 m 426 575 q 319 516 360 575 q 279 353 279 457 q 319 190 279 249 q 426 131 360 131 q 538 191 496 131 q 579 353 579 251 q 538 515 579 454 q 426 575 496 575 z "},"ÿ":{"ha":700,"x_min":-10,"x_max":710,"o":"m 457 -4 q 377 -160 421 -104 q 272 -241 333 -217 q 121 -265 211 -265 q 19 -254 67 -265 l 19 -99 q 94 -110 50 -110 q 188 -78 153 -110 q 224 4 224 -47 q 217 49 224 24 q 190 132 211 74 l -10 706 l 199 706 l 271 469 q 349 174 315 321 l 351 174 q 433 469 393 344 l 510 706 l 710 706 l 457 -4 m 114 822 l 114 989 l 285 989 l 285 822 l 114 822 m 415 822 l 415 989 l 586 989 l 586 822 l 415 822 z "},"Ā":{"ha":969,"x_min":4,"x_max":965,"o":"m 296 242 l 218 0 l 4 0 l 347 989 l 622 989 l 965 0 l 751 0 l 675 242 l 296 242 m 599 482 q 486 868 531 699 l 483 868 q 372 482 432 674 l 351 417 l 619 417 l 599 482 m 258 1081 l 258 1207 l 711 1207 l 711 1081 l 258 1081 z "},"ā":{"ha":760,"x_min":36,"x_max":693,"o":"m 371 728 q 597 658 521 728 q 674 449 674 588 l 674 193 q 693 0 674 74 l 518 0 q 508 94 508 40 l 506 94 q 276 -17 428 -17 q 101 44 167 -17 q 36 197 36 104 q 99 343 36 288 q 310 422 163 399 q 486 442 399 436 l 486 467 q 456 561 486 531 q 371 592 425 592 q 287 563 317 592 q 254 485 257 535 l 65 485 q 149 660 71 592 q 371 728 226 728 m 486 324 q 344 308 403 318 q 257 275 283 297 q 231 211 231 253 q 258 147 231 171 q 335 122 285 122 q 397 133 367 122 q 446 163 426 143 q 478 216 469 186 q 486 297 486 246 l 486 324 m 136 831 l 136 957 l 589 957 l 589 831 l 136 831 z "},"Ă":{"ha":969,"x_min":4,"x_max":965,"o":"m 296 242 l 218 0 l 4 0 l 347 989 l 622 989 l 965 0 l 751 0 l 675 242 l 296 242 m 599 482 q 486 868 531 699 l 483 868 q 372 482 432 674 l 351 417 l 619 417 l 599 482 m 728 1258 q 658 1103 722 1158 q 485 1049 593 1049 q 312 1103 376 1049 q 242 1258 247 1158 l 374 1258 q 406 1193 376 1217 q 485 1169 436 1169 q 563 1193 533 1169 q 596 1258 593 1217 l 728 1258 z "},"ă":{"ha":760,"x_min":36,"x_max":693,"o":"m 371 728 q 597 658 521 728 q 674 449 674 588 l 674 193 q 693 0 674 74 l 518 0 q 508 94 508 40 l 506 94 q 276 -17 428 -17 q 101 44 167 -17 q 36 197 36 104 q 99 343 36 288 q 310 422 163 399 q 486 442 399 436 l 486 467 q 456 561 486 531 q 371 592 425 592 q 287 563 317 592 q 254 485 257 535 l 65 485 q 149 660 71 592 q 371 728 226 728 m 486 324 q 344 308 403 318 q 257 275 283 297 q 231 211 231 253 q 258 147 231 171 q 335 122 285 122 q 397 133 367 122 q 446 163 426 143 q 478 216 469 186 q 486 297 486 246 l 486 324 m 606 989 q 535 834 600 889 q 363 779 471 779 q 190 834 254 779 q 119 989 125 889 l 251 989 q 284 924 254 947 q 363 900 314 900 q 441 924 411 900 q 474 989 471 947 l 606 989 z "},"Ą":{"ha":969,"x_min":4,"x_max":969,"o":"m 296 242 l 218 0 l 4 0 l 347 989 l 622 989 l 965 0 l 751 0 l 675 242 l 296 242 m 599 482 q 486 868 531 699 l 483 868 q 372 482 432 674 l 351 417 l 619 417 l 599 482 m 965 0 q 892 -65 913 -36 q 871 -122 871 -93 q 919 -165 871 -165 q 969 -157 949 -165 l 969 -256 q 861 -274 924 -274 q 744 -242 783 -274 q 704 -153 704 -210 q 731 -73 704 -108 q 813 0 757 -37 l 965 0 z "},"ą":{"ha":760,"x_min":36,"x_max":697,"o":"m 647 -165 q 697 -157 676 -165 l 697 -256 q 589 -274 653 -274 q 472 -242 511 -274 q 432 -153 432 -210 q 458 -73 432 -108 q 540 0 485 -37 l 518 0 q 508 94 508 40 l 506 94 q 276 -17 428 -17 q 101 44 167 -17 q 36 197 36 104 q 99 343 36 288 q 310 422 163 399 q 486 442 399 436 l 486 467 q 456 561 486 531 q 371 592 425 592 q 287 563 317 592 q 254 485 257 535 l 65 485 q 149 660 71 592 q 371 728 226 728 q 597 658 521 728 q 674 449 674 588 l 674 193 q 693 0 674 74 q 619 -65 640 -36 q 599 -122 599 -93 q 647 -165 599 -165 m 486 324 q 344 308 403 318 q 257 275 283 297 q 231 211 231 253 q 258 147 231 171 q 335 122 285 122 q 397 133 367 122 q 446 163 426 143 q 478 216 469 186 q 486 297 486 246 l 486 324 z "},"Ć":{"ha":974,"x_min":51,"x_max":918,"o":"m 504 1011 q 716 965 625 1011 q 858 836 807 919 q 914 646 910 753 l 708 646 q 644 781 699 732 q 504 831 590 831 q 327 741 392 831 q 263 494 263 651 q 326 248 263 338 q 500 158 389 158 q 642 208 588 158 q 708 347 697 257 l 918 347 q 793 75 904 172 q 500 -22 682 -22 q 261 40 363 -22 q 106 219 160 103 q 51 494 51 335 q 106 769 51 653 q 263 949 161 886 q 504 1011 365 1011 m 386 1056 l 493 1258 l 733 1258 l 539 1056 l 386 1056 z "},"ć":{"ha":781,"x_min":49,"x_max":738,"o":"m 404 728 q 570 692 497 728 q 687 590 643 656 q 738 443 731 525 l 535 443 q 494 542 529 506 q 403 578 458 578 q 292 517 332 578 q 251 353 251 457 q 292 188 251 249 q 403 128 332 128 q 494 167 458 128 q 533 276 529 207 l 738 276 q 636 60 726 142 q 404 -22 546 -22 q 217 24 297 -22 q 92 156 136 71 q 49 353 49 240 q 92 550 49 465 q 217 681 136 635 q 404 728 297 728 m 286 786 l 393 989 l 633 989 l 439 786 l 286 786 z "},"Ĉ":{"ha":974,"x_min":51,"x_max":918,"o":"m 504 1011 q 716 965 625 1011 q 858 836 807 919 q 914 646 910 753 l 708 646 q 644 781 699 732 q 504 831 590 831 q 327 741 392 831 q 263 494 263 651 q 326 248 263 338 q 500 158 389 158 q 642 208 588 158 q 708 347 697 257 l 918 347 q 793 75 904 172 q 500 -22 682 -22 q 261 40 363 -22 q 106 219 160 103 q 51 494 51 335 q 106 769 51 653 q 263 949 161 886 q 504 1011 365 1011 m 607 1258 l 765 1056 l 588 1056 l 503 1161 l 419 1056 l 242 1056 l 400 1258 l 607 1258 z "},"ĉ":{"ha":781,"x_min":49,"x_max":738,"o":"m 404 728 q 570 692 497 728 q 687 590 643 656 q 738 443 731 525 l 535 443 q 494 542 529 506 q 403 578 458 578 q 292 517 332 578 q 251 353 251 457 q 292 188 251 249 q 403 128 332 128 q 494 167 458 128 q 533 276 529 207 l 738 276 q 636 60 726 142 q 404 -22 546 -22 q 217 24 297 -22 q 92 156 136 71 q 49 353 49 240 q 92 550 49 465 q 217 681 136 635 q 404 728 297 728 m 404 892 l 319 786 l 142 786 l 300 989 l 507 989 l 665 786 l 488 786 l 404 892 z "},"Ċ":{"ha":974,"x_min":51,"x_max":918,"o":"m 504 1011 q 716 965 625 1011 q 858 836 807 919 q 914 646 910 753 l 708 646 q 644 781 699 732 q 504 831 590 831 q 327 741 392 831 q 263 494 263 651 q 326 248 263 338 q 500 158 389 158 q 642 208 588 158 q 708 347 697 257 l 918 347 q 793 75 904 172 q 500 -22 682 -22 q 261 40 363 -22 q 106 219 160 103 q 51 494 51 335 q 106 769 51 653 q 263 949 161 886 q 504 1011 365 1011 m 407 1068 l 407 1235 l 601 1235 l 601 1068 l 407 1068 z "},"ċ":{"ha":781,"x_min":49,"x_max":738,"o":"m 404 728 q 570 692 497 728 q 687 590 643 656 q 738 443 731 525 l 535 443 q 494 542 529 506 q 403 578 458 578 q 292 517 332 578 q 251 353 251 457 q 292 188 251 249 q 403 128 332 128 q 494 167 458 128 q 533 276 529 207 l 738 276 q 636 60 726 142 q 404 -22 546 -22 q 217 24 297 -22 q 92 156 136 71 q 49 353 49 240 q 92 550 49 465 q 217 681 136 635 q 404 728 297 728 m 307 822 l 307 989 l 501 989 l 501 822 l 307 822 z "},"Č":{"ha":974,"x_min":51,"x_max":918,"o":"m 504 1011 q 716 965 625 1011 q 858 836 807 919 q 914 646 910 753 l 708 646 q 644 781 699 732 q 504 831 590 831 q 327 741 392 831 q 263 494 263 651 q 326 248 263 338 q 500 158 389 158 q 642 208 588 158 q 708 347 697 257 l 918 347 q 793 75 904 172 q 500 -22 682 -22 q 261 40 363 -22 q 106 219 160 103 q 51 494 51 335 q 106 769 51 653 q 263 949 161 886 q 504 1011 365 1011 m 400 1056 l 242 1258 l 419 1258 l 504 1153 l 588 1258 l 765 1258 l 607 1056 l 400 1056 z "},"č":{"ha":781,"x_min":49,"x_max":738,"o":"m 404 728 q 570 692 497 728 q 687 590 643 656 q 738 443 731 525 l 535 443 q 494 542 529 506 q 403 578 458 578 q 292 517 332 578 q 251 353 251 457 q 292 188 251 249 q 403 128 332 128 q 494 167 458 128 q 533 276 529 207 l 738 276 q 636 60 726 142 q 404 -22 546 -22 q 217 24 297 -22 q 92 156 136 71 q 49 353 49 240 q 92 550 49 465 q 217 681 136 635 q 404 728 297 728 m 300 786 l 142 989 l 319 989 l 404 883 l 488 989 l 665 989 l 507 786 l 300 786 z "},"Ď":{"ha":1019,"x_min":114,"x_max":968,"o":"m 443 989 q 832 860 696 989 q 968 494 968 732 q 832 128 968 257 q 443 0 696 0 l 114 0 l 114 989 l 443 989 m 317 175 l 440 175 q 678 254 600 175 q 757 494 757 333 q 678 735 757 656 q 440 814 600 814 l 317 814 l 317 175 m 360 1056 l 201 1258 l 379 1258 l 464 1153 l 547 1258 l 725 1258 l 567 1056 l 360 1056 z "},"ď":{"ha":831,"x_min":49,"x_max":965,"o":"m 547 0 l 547 93 l 544 93 q 458 11 513 40 q 342 -18 404 -18 q 188 28 254 -18 q 85 158 121 74 q 49 353 49 242 q 84 548 49 464 q 185 678 119 632 q 339 724 251 724 q 453 697 400 724 q 539 621 507 669 l 542 621 l 542 989 l 736 989 l 736 0 l 547 0 m 404 575 q 293 515 335 575 q 251 353 251 454 q 293 191 251 251 q 404 131 335 131 q 511 190 471 131 q 551 353 551 249 q 511 516 551 457 q 404 575 471 575 m 775 743 l 811 989 l 965 989 l 885 743 l 775 743 z "},"Đ":{"ha":1019,"x_min":25,"x_max":968,"o":"m 443 989 q 832 860 696 989 q 968 494 968 732 q 832 128 968 257 q 443 0 696 0 l 114 0 l 114 426 l 25 426 l 25 574 l 114 574 l 114 989 l 443 989 m 440 175 q 678 254 600 175 q 757 494 757 333 q 678 735 757 656 q 440 814 600 814 l 317 814 l 317 574 l 547 574 l 547 426 l 317 426 l 317 175 l 440 175 z "},"đ":{"ha":819,"x_min":49,"x_max":828,"o":"m 736 800 l 736 0 l 547 0 l 547 93 l 544 93 q 458 11 513 40 q 342 -18 404 -18 q 188 28 254 -18 q 85 158 121 74 q 49 353 49 242 q 84 548 49 464 q 185 678 119 632 q 339 724 251 724 q 453 697 400 724 q 539 621 507 669 l 542 621 l 542 800 l 375 800 l 375 900 l 542 900 l 542 989 l 736 989 l 736 900 l 828 900 l 828 800 l 736 800 m 404 131 q 511 190 471 131 q 551 353 551 249 q 511 516 551 457 q 404 575 471 575 q 293 515 335 575 q 251 353 251 454 q 293 191 251 251 q 404 131 335 131 z "},"Ē":{"ha":879,"x_min":114,"x_max":810,"o":"m 318 814 l 318 590 l 765 590 l 765 417 l 318 417 l 318 175 l 810 175 l 810 0 l 114 0 l 114 989 l 797 989 l 797 814 l 318 814 m 229 1081 l 229 1207 l 682 1207 l 682 1081 l 229 1081 z "},"ē":{"ha":796,"x_min":49,"x_max":747,"o":"m 400 115 q 494 142 457 115 q 539 214 532 169 l 738 214 q 678 94 724 149 q 562 9 633 40 q 400 -22 490 -22 q 211 26 290 -22 q 90 160 132 74 q 49 358 49 246 q 90 547 49 464 q 211 679 132 631 q 399 728 290 728 q 606 665 519 728 q 725 493 692 601 q 747 313 747 422 l 240 313 q 288 163 244 210 q 400 115 332 115 m 399 590 q 297 551 338 590 q 244 435 256 513 l 553 435 q 502 551 544 511 q 399 590 460 590 m 171 831 l 171 957 l 624 957 l 624 831 l 171 831 z "},"Ĕ":{"ha":879,"x_min":114,"x_max":810,"o":"m 318 814 l 318 590 l 765 590 l 765 417 l 318 417 l 318 175 l 810 175 l 810 0 l 114 0 l 114 989 l 797 989 l 797 814 l 318 814 m 699 1258 q 628 1103 693 1158 q 456 1049 564 1049 q 283 1103 347 1049 q 213 1258 218 1158 l 344 1258 q 377 1193 347 1217 q 456 1169 407 1169 q 534 1193 504 1169 q 567 1258 564 1217 l 699 1258 z "},"ĕ":{"ha":796,"x_min":49,"x_max":747,"o":"m 400 115 q 494 142 457 115 q 539 214 532 169 l 738 214 q 678 94 724 149 q 562 9 633 40 q 400 -22 490 -22 q 211 26 290 -22 q 90 160 132 74 q 49 358 49 246 q 90 547 49 464 q 211 679 132 631 q 399 728 290 728 q 606 665 519 728 q 725 493 692 601 q 747 313 747 422 l 240 313 q 288 163 244 210 q 400 115 332 115 m 399 590 q 297 551 338 590 q 244 435 256 513 l 553 435 q 502 551 544 511 q 399 590 460 590 m 640 989 q 570 834 635 889 q 397 779 506 779 q 224 834 289 779 q 154 989 160 889 l 286 989 q 319 924 289 947 q 397 900 349 900 q 476 924 446 900 q 508 989 506 947 l 640 989 z "},"Ė":{"ha":879,"x_min":114,"x_max":810,"o":"m 318 814 l 318 590 l 765 590 l 765 417 l 318 417 l 318 175 l 810 175 l 810 0 l 114 0 l 114 989 l 797 989 l 797 814 l 318 814 m 358 1068 l 358 1235 l 553 1235 l 553 1068 l 358 1068 z "},"ė":{"ha":796,"x_min":49,"x_max":747,"o":"m 400 115 q 494 142 457 115 q 539 214 532 169 l 738 214 q 678 94 724 149 q 562 9 633 40 q 400 -22 490 -22 q 211 26 290 -22 q 90 160 132 74 q 49 358 49 246 q 90 547 49 464 q 211 679 132 631 q 399 728 290 728 q 606 665 519 728 q 725 493 692 601 q 747 313 747 422 l 240 313 q 288 163 244 210 q 400 115 332 115 m 399 590 q 297 551 338 590 q 244 435 256 513 l 553 435 q 502 551 544 511 q 399 590 460 590 m 300 822 l 300 989 l 494 989 l 494 822 l 300 822 z "},"Ę":{"ha":879,"x_min":114,"x_max":814,"o":"m 318 814 l 318 590 l 765 590 l 765 417 l 318 417 l 318 175 l 810 175 l 810 0 l 114 0 l 114 989 l 797 989 l 797 814 l 318 814 m 810 0 q 736 -65 757 -36 q 715 -122 715 -93 q 764 -165 715 -165 q 814 -157 793 -165 l 814 -256 q 706 -274 768 -274 q 588 -242 628 -274 q 549 -153 549 -210 q 575 -73 549 -108 q 657 0 601 -37 l 810 0 z "},"ę":{"ha":796,"x_min":49,"x_max":747,"o":"m 626 33 q 556 -49 576 -15 q 535 -115 535 -82 q 583 -165 535 -165 q 633 -157 613 -165 l 633 -256 q 525 -274 589 -274 q 408 -242 447 -274 q 368 -153 368 -210 q 444 -22 368 -79 l 444 -19 q 400 -22 419 -22 q 211 26 290 -22 q 90 160 132 74 q 49 358 49 246 q 90 547 49 464 q 211 679 132 631 q 399 728 290 728 q 606 665 519 728 q 725 493 692 601 q 747 313 747 422 l 240 313 q 288 163 244 210 q 400 115 332 115 q 494 142 457 115 q 539 214 532 169 l 738 214 q 626 33 719 125 m 399 590 q 297 551 338 590 q 244 435 256 513 l 553 435 q 502 551 544 511 q 399 590 460 590 z "},"Ě":{"ha":879,"x_min":114,"x_max":810,"o":"m 318 814 l 318 590 l 765 590 l 765 417 l 318 417 l 318 175 l 810 175 l 810 0 l 114 0 l 114 989 l 797 989 l 797 814 l 318 814 m 351 1056 l 193 1258 l 371 1258 l 456 1153 l 539 1258 l 717 1258 l 558 1056 l 351 1056 z "},"ě":{"ha":796,"x_min":49,"x_max":747,"o":"m 400 115 q 494 142 457 115 q 539 214 532 169 l 738 214 q 678 94 724 149 q 562 9 633 40 q 400 -22 490 -22 q 211 26 290 -22 q 90 160 132 74 q 49 358 49 246 q 90 547 49 464 q 211 679 132 631 q 399 728 290 728 q 606 665 519 728 q 725 493 692 601 q 747 313 747 422 l 240 313 q 288 163 244 210 q 400 115 332 115 m 399 590 q 297 551 338 590 q 244 435 256 513 l 553 435 q 502 551 544 511 q 399 590 460 590 m 293 786 l 135 989 l 313 989 l 397 883 l 481 989 l 658 989 l 500 786 l 293 786 z "},"Ĝ":{"ha":1033,"x_min":51,"x_max":933,"o":"m 521 1011 q 810 923 701 1011 q 933 681 918 835 l 714 681 q 651 792 700 754 q 521 831 603 831 q 332 740 401 831 q 263 490 263 649 q 331 235 263 328 q 517 142 399 142 q 681 202 624 142 q 739 376 738 263 l 504 376 l 504 543 l 929 543 l 929 0 l 757 0 l 757 107 l 754 107 q 637 14 711 47 q 465 -19 563 -19 q 246 42 339 -19 q 102 219 153 104 q 51 490 51 333 q 108 768 51 650 q 272 949 165 886 q 521 1011 378 1011 m 613 1258 l 771 1056 l 593 1056 l 508 1161 l 425 1056 l 247 1056 l 406 1258 l 613 1258 z "},"ĝ":{"ha":821,"x_min":49,"x_max":726,"o":"m 340 725 q 453 698 406 725 q 540 611 500 671 l 543 611 l 543 706 l 726 706 l 726 44 q 638 -190 726 -111 q 392 -269 549 -269 q 168 -210 249 -269 q 79 -44 88 -150 l 274 -44 q 308 -108 276 -85 q 396 -131 340 -131 q 501 -89 465 -131 q 538 51 538 -47 l 538 114 l 535 114 q 449 33 496 58 q 338 8 401 8 q 185 52 250 8 q 84 177 119 96 q 49 367 49 258 q 85 556 49 475 q 187 681 121 638 q 340 725 253 725 m 393 565 q 290 512 328 565 q 251 367 251 458 q 290 222 251 275 q 393 168 328 168 q 502 222 461 168 q 543 367 543 276 q 502 511 543 457 q 393 565 461 565 m 385 892 l 300 786 l 122 786 l 281 989 l 488 989 l 646 786 l 468 786 l 385 892 z "},"Ğ":{"ha":1033,"x_min":51,"x_max":933,"o":"m 521 1011 q 810 923 701 1011 q 933 681 918 835 l 714 681 q 651 792 700 754 q 521 831 603 831 q 332 740 401 831 q 263 490 263 649 q 331 235 263 328 q 517 142 399 142 q 681 202 624 142 q 739 376 738 263 l 504 376 l 504 543 l 929 543 l 929 0 l 757 0 l 757 107 l 754 107 q 637 14 711 47 q 465 -19 563 -19 q 246 42 339 -19 q 102 219 153 104 q 51 490 51 333 q 108 768 51 650 q 272 949 165 886 q 521 1011 378 1011 m 753 1258 q 683 1103 747 1158 q 510 1049 618 1049 q 337 1103 401 1049 q 267 1258 272 1158 l 399 1258 q 431 1193 401 1217 q 510 1169 461 1169 q 588 1193 558 1169 q 621 1258 618 1217 l 753 1258 z "},"ğ":{"ha":821,"x_min":49,"x_max":726,"o":"m 340 725 q 453 698 406 725 q 540 611 500 671 l 543 611 l 543 706 l 726 706 l 726 44 q 638 -190 726 -111 q 392 -269 549 -269 q 168 -210 249 -269 q 79 -44 88 -150 l 274 -44 q 308 -108 276 -85 q 396 -131 340 -131 q 501 -89 465 -131 q 538 51 538 -47 l 538 114 l 535 114 q 449 33 496 58 q 338 8 401 8 q 185 52 250 8 q 84 177 119 96 q 49 367 49 258 q 85 556 49 475 q 187 681 121 638 q 340 725 253 725 m 393 565 q 290 512 328 565 q 251 367 251 458 q 290 222 251 275 q 393 168 328 168 q 502 222 461 168 q 543 367 543 276 q 502 511 543 457 q 393 565 461 565 m 628 989 q 558 834 622 889 q 385 779 493 779 q 212 834 276 779 q 142 989 147 889 l 274 989 q 306 924 276 947 q 385 900 336 900 q 463 924 433 900 q 496 989 493 947 l 628 989 z "},"Ġ":{"ha":1033,"x_min":51,"x_max":933,"o":"m 521 1011 q 810 923 701 1011 q 933 681 918 835 l 714 681 q 651 792 700 754 q 521 831 603 831 q 332 740 401 831 q 263 490 263 649 q 331 235 263 328 q 517 142 399 142 q 681 202 624 142 q 739 376 738 263 l 504 376 l 504 543 l 929 543 l 929 0 l 757 0 l 757 107 l 754 107 q 637 14 711 47 q 465 -19 563 -19 q 246 42 339 -19 q 102 219 153 104 q 51 490 51 333 q 108 768 51 650 q 272 949 165 886 q 521 1011 378 1011 m 413 1068 l 413 1235 l 607 1235 l 607 1068 l 413 1068 z "},"ġ":{"ha":821,"x_min":49,"x_max":726,"o":"m 340 725 q 453 698 406 725 q 540 611 500 671 l 543 611 l 543 706 l 726 706 l 726 44 q 638 -190 726 -111 q 392 -269 549 -269 q 168 -210 249 -269 q 79 -44 88 -150 l 274 -44 q 308 -108 276 -85 q 396 -131 340 -131 q 501 -89 465 -131 q 538 51 538 -47 l 538 114 l 535 114 q 449 33 496 58 q 338 8 401 8 q 185 52 250 8 q 84 177 119 96 q 49 367 49 258 q 85 556 49 475 q 187 681 121 638 q 340 725 253 725 m 393 565 q 290 512 328 565 q 251 367 251 458 q 290 222 251 275 q 393 168 328 168 q 502 222 461 168 q 543 367 543 276 q 502 511 543 457 q 393 565 461 565 m 288 822 l 288 989 l 482 989 l 482 822 l 288 822 z "},"Ģ":{"ha":1033,"x_min":51,"x_max":933,"o":"m 521 1011 q 810 923 701 1011 q 933 681 918 835 l 714 681 q 651 792 700 754 q 521 831 603 831 q 332 740 401 831 q 263 490 263 649 q 331 235 263 328 q 517 142 399 142 q 681 202 624 142 q 739 376 738 263 l 504 376 l 504 543 l 929 543 l 929 0 l 757 0 l 757 107 l 754 107 q 637 14 711 47 q 465 -19 563 -19 q 246 42 339 -19 q 102 219 153 104 q 51 490 51 333 q 108 768 51 650 q 272 949 165 886 q 521 1011 378 1011 m 500 -375 l 422 -375 l 485 -226 l 422 -226 l 422 -82 l 594 -82 l 594 -226 l 500 -375 z "},"ģ":{"ha":821,"x_min":49,"x_max":726,"o":"m 340 725 q 453 698 406 725 q 540 611 500 671 l 543 611 l 543 706 l 726 706 l 726 44 q 638 -190 726 -111 q 392 -269 549 -269 q 168 -210 249 -269 q 79 -44 88 -150 l 274 -44 q 308 -108 276 -85 q 396 -131 340 -131 q 501 -89 465 -131 q 538 51 538 -47 l 538 114 l 535 114 q 449 33 496 58 q 338 8 401 8 q 185 52 250 8 q 84 177 119 96 q 49 367 49 258 q 85 556 49 475 q 187 681 121 638 q 340 725 253 725 m 393 565 q 290 512 328 565 q 251 367 251 458 q 290 222 251 275 q 393 168 328 168 q 502 222 461 168 q 543 367 543 276 q 502 511 543 457 q 393 565 461 565 m 471 946 l 471 801 l 299 801 l 299 946 l 393 1094 l 471 1094 l 408 946 l 471 946 z "},"Ĥ":{"ha":1042,"x_min":114,"x_max":928,"o":"m 724 0 l 724 426 l 318 426 l 318 0 l 114 0 l 114 989 l 318 989 l 318 601 l 724 601 l 724 989 l 928 989 l 928 0 l 724 0 m 624 1258 l 782 1056 l 604 1056 l 519 1161 l 436 1056 l 258 1056 l 417 1258 l 624 1258 z "},"ĥ":{"ha":833,"x_min":94,"x_max":746,"o":"m 292 628 q 378 699 328 675 q 486 722 429 722 q 676 648 607 722 q 746 433 746 574 l 746 0 l 551 0 l 551 414 q 519 531 551 492 q 428 569 486 569 q 327 520 365 569 q 289 378 289 471 l 289 0 l 94 0 l 94 989 l 289 989 l 289 628 l 292 628 m 518 1258 l 676 1056 l 499 1056 l 414 1161 l 331 1056 l 153 1056 l 311 1258 l 518 1258 z "},"Ħ":{"ha":1042,"x_min":38,"x_max":1004,"o":"m 928 789 l 928 0 l 724 0 l 724 426 l 318 426 l 318 0 l 114 0 l 114 789 l 38 789 l 38 889 l 114 889 l 114 989 l 318 989 l 318 889 l 724 889 l 724 989 l 928 989 l 928 889 l 1004 889 l 1004 789 l 928 789 m 318 789 l 318 601 l 724 601 l 724 789 l 318 789 z "},"ħ":{"ha":833,"x_min":-8,"x_max":746,"o":"m 486 722 q 676 648 607 722 q 746 433 746 574 l 746 0 l 551 0 l 551 414 q 519 531 551 492 q 428 569 486 569 q 327 520 365 569 q 289 378 289 471 l 289 0 l 94 0 l 94 800 l -8 800 l -8 889 l 94 889 l 94 989 l 289 989 l 289 889 l 444 889 l 444 800 l 289 800 l 289 628 l 292 628 q 378 699 328 675 q 486 722 429 722 z "},"Ĩ":{"ha":432,"x_min":-44,"x_max":478,"o":"m 114 0 l 114 989 l 318 989 l 318 0 l 114 0 m 478 1258 q 431 1121 474 1171 q 314 1071 388 1071 q 256 1081 281 1071 q 200 1108 231 1090 q 160 1128 175 1122 q 128 1135 146 1135 q 83 1119 99 1135 q 64 1071 68 1104 l -44 1071 q 3 1208 -40 1158 q 119 1258 46 1258 q 178 1249 153 1258 q 235 1221 204 1239 q 273 1201 257 1208 q 306 1194 289 1194 q 350 1210 335 1194 q 369 1258 365 1225 l 478 1258 z "},"ĩ":{"ha":383,"x_min":-37,"x_max":422,"o":"m 94 0 l 94 706 l 289 706 l 289 0 l 94 0 m 422 989 q 379 851 418 901 q 272 801 340 801 q 221 811 242 801 q 174 840 200 821 q 138 862 150 856 q 111 868 126 868 q 72 851 85 868 q 56 801 58 835 l -37 801 q 5 940 -33 890 q 111 989 43 989 q 163 978 142 989 q 211 950 185 968 q 244 929 231 936 q 272 922 257 922 q 312 938 299 922 q 328 989 325 954 l 422 989 z "},"Ī":{"ha":432,"x_min":-10,"x_max":443,"o":"m 114 0 l 114 989 l 318 989 l 318 0 l 114 0 m -10 1081 l -10 1207 l 443 1207 l 443 1081 l -10 1081 z "},"ī":{"ha":383,"x_min":-7,"x_max":390,"o":"m 94 0 l 94 706 l 289 706 l 289 0 l 94 0 m -7 838 l -7 964 l 390 964 l 390 838 l -7 838 z "},"Ĭ":{"ha":432,"x_min":-26,"x_max":460,"o":"m 114 0 l 114 989 l 318 989 l 318 0 l 114 0 m 460 1258 q 390 1103 454 1158 q 217 1049 325 1049 q 44 1103 108 1049 q -26 1258 -21 1158 l 106 1258 q 138 1193 108 1217 q 217 1169 168 1169 q 295 1193 265 1169 q 328 1258 325 1217 l 460 1258 z "},"ĭ":{"ha":383,"x_min":-29,"x_max":413,"o":"m 94 0 l 94 706 l 289 706 l 289 0 l 94 0 m 413 989 q 349 835 407 890 q 192 779 292 779 q 34 834 92 779 q -29 989 -24 889 l 93 989 q 122 919 96 944 q 192 894 149 894 q 261 919 235 894 q 290 989 288 944 l 413 989 z "},"Į":{"ha":432,"x_min":57,"x_max":322,"o":"m 114 0 l 114 989 l 318 989 l 318 0 l 114 0 m 318 0 q 244 -65 265 -36 q 224 -122 224 -93 q 272 -165 224 -165 q 322 -157 301 -165 l 322 -256 q 214 -274 276 -274 q 97 -242 136 -274 q 57 -153 57 -210 q 83 -73 57 -108 q 165 0 110 -37 l 318 0 z "},"į":{"ha":383,"x_min":28,"x_max":293,"o":"m 94 822 l 94 989 l 289 989 l 289 822 l 94 822 m 243 -165 q 293 -157 272 -165 l 293 -256 q 185 -274 247 -274 q 67 -242 107 -274 q 28 -153 28 -210 q 54 -73 28 -108 q 136 0 81 -37 l 94 0 l 94 706 l 289 706 l 289 0 q 215 -65 236 -36 q 194 -122 194 -93 q 243 -165 194 -165 z "},"İ":{"ha":432,"x_min":114,"x_max":318,"o":"m 114 0 l 114 989 l 318 989 l 318 0 l 114 0 m 119 1068 l 119 1235 l 314 1235 l 314 1068 l 119 1068 z "},"ı":{"ha":383,"x_min":94,"x_max":289,"o":"m 94 0 l 94 706 l 289 706 l 289 0 l 94 0 z "},"Ĳ":{"ha":976,"x_min":114,"x_max":869,"o":"m 114 0 l 114 989 l 318 989 l 318 0 l 114 0 m 869 315 q 791 69 869 147 q 543 -10 713 -10 q 453 1 490 -10 l 453 175 q 518 168 490 168 q 602 184 571 168 q 649 241 633 200 q 665 358 665 282 l 665 989 l 869 989 l 869 315 z "},"ĳ":{"ha":769,"x_min":94,"x_max":675,"o":"m 94 822 l 94 989 l 289 989 l 289 822 l 94 822 m 481 822 l 481 989 l 675 989 l 675 822 l 481 822 m 94 0 l 94 706 l 289 706 l 289 0 l 94 0 m 675 -15 q 610 -203 675 -143 q 435 -264 546 -264 q 339 -253 383 -264 l 339 -112 q 376 -117 356 -117 q 456 -88 431 -117 q 481 14 481 -60 l 481 706 l 675 706 l 675 -15 z "},"Ĵ":{"ha":544,"x_min":21,"x_max":597,"o":"m 438 315 q 359 69 438 147 q 111 -10 281 -10 q 21 1 58 -10 l 21 175 q 86 168 58 168 q 170 184 139 168 q 217 241 201 200 q 233 358 233 282 l 233 989 l 438 989 l 438 315 m 439 1258 l 597 1056 l 419 1056 l 335 1161 l 251 1056 l 74 1056 l 232 1258 l 439 1258 z "},"ĵ":{"ha":386,"x_min":-47,"x_max":435,"o":"m 292 -15 q 227 -203 292 -143 q 51 -264 163 -264 q -44 -253 0 -264 l -44 -112 q -7 -117 -28 -117 q 72 -88 47 -117 q 97 14 97 -60 l 97 706 l 292 706 l 292 -15 m 268 788 l 194 894 l 121 788 l -47 788 l 96 989 l 292 989 l 435 788 l 268 788 z "},"Ķ":{"ha":921,"x_min":114,"x_max":915,"o":"m 915 0 l 656 0 l 321 467 l 318 467 l 318 0 l 114 0 l 114 989 l 318 989 l 318 554 l 321 554 l 644 989 l 883 989 l 507 519 l 915 0 m 453 -375 l 375 -375 l 438 -226 l 375 -226 l 375 -82 l 547 -82 l 547 -226 l 453 -375 z "},"ķ":{"ha":754,"x_min":94,"x_max":768,"o":"m 528 0 l 292 331 l 289 331 l 289 0 l 94 0 l 94 989 l 289 989 l 289 421 l 292 421 l 519 706 l 739 706 l 471 381 l 768 0 l 528 0 m 396 -375 l 318 -375 l 381 -226 l 318 -226 l 318 -82 l 490 -82 l 490 -226 l 396 -375 z "},"ĸ":{"ha":778,"x_min":94,"x_max":768,"o":"m 528 0 l 292 331 l 289 331 l 289 0 l 94 0 l 94 706 l 289 706 l 289 421 l 292 421 l 519 706 l 739 706 l 471 381 l 768 0 l 528 0 z "},"Ĺ":{"ha":799,"x_min":114,"x_max":785,"o":"m 785 175 l 785 0 l 114 0 l 114 989 l 318 989 l 318 175 l 785 175 m 139 1056 l 246 1258 l 486 1258 l 292 1056 l 139 1056 z "},"ĺ":{"ha":383,"x_min":94,"x_max":442,"o":"m 94 0 l 94 989 l 289 989 l 289 0 l 94 0 m 94 1069 l 201 1272 l 442 1272 l 247 1069 l 94 1069 z "},"Ļ":{"ha":799,"x_min":114,"x_max":785,"o":"m 785 175 l 785 0 l 114 0 l 114 989 l 318 989 l 318 175 l 785 175 m 442 -375 l 364 -375 l 426 -226 l 364 -226 l 364 -82 l 536 -82 l 536 -226 l 442 -375 z "},"ļ":{"ha":383,"x_min":94,"x_max":289,"o":"m 94 0 l 94 989 l 289 989 l 289 0 l 94 0 m 183 -375 l 106 -375 l 168 -226 l 106 -226 l 106 -82 l 278 -82 l 278 -226 l 183 -375 z "},"Ľ":{"ha":799,"x_min":114,"x_max":785,"o":"m 785 175 l 785 0 l 114 0 l 114 989 l 318 989 l 318 175 l 785 175 m 374 678 l 410 989 l 564 989 l 483 678 l 374 678 z "},"ľ":{"ha":383,"x_min":94,"x_max":518,"o":"m 94 0 l 94 989 l 289 989 l 289 0 l 94 0 m 328 743 l 364 989 l 518 989 l 438 743 l 328 743 z "},"Ŀ":{"ha":910,"x_min":114,"x_max":785,"o":"m 785 175 l 785 0 l 114 0 l 114 989 l 318 989 l 318 175 l 785 175 m 554 483 l 554 715 l 768 715 l 768 483 l 554 483 z "},"ŀ":{"ha":672,"x_min":94,"x_max":635,"o":"m 94 0 l 94 989 l 289 989 l 289 0 l 94 0 m 421 378 l 421 610 l 635 610 l 635 378 l 421 378 z "},"Ł":{"ha":799,"x_min":18,"x_max":785,"o":"m 785 0 l 114 0 l 114 389 l 18 332 l 18 501 l 114 558 l 114 989 l 318 989 l 318 667 l 511 782 l 511 613 l 318 497 l 318 175 l 785 175 l 785 0 z "},"ł":{"ha":461,"x_min":14,"x_max":447,"o":"m 328 479 l 328 0 l 133 0 l 133 388 l 14 317 l 14 478 l 133 549 l 133 989 l 328 989 l 328 640 l 447 711 l 447 550 l 328 479 z "},"Ń":{"ha":1078,"x_min":114,"x_max":964,"o":"m 674 0 l 482 401 q 301 810 376 625 l 299 810 q 310 381 310 581 l 310 0 l 114 0 l 114 989 l 404 989 l 596 588 q 776 179 701 364 l 779 179 q 768 608 768 408 l 768 989 l 964 989 l 964 0 l 674 0 m 421 1056 l 528 1258 l 768 1258 l 574 1056 l 421 1056 z "},"ń":{"ha":833,"x_min":94,"x_max":746,"o":"m 486 722 q 676 648 607 722 q 746 433 746 574 l 746 0 l 551 0 l 551 414 q 519 531 551 492 q 428 569 486 569 q 327 520 365 569 q 289 378 289 471 l 289 0 l 94 0 l 94 706 l 276 706 l 276 617 l 279 617 q 368 694 315 665 q 486 722 421 722 m 303 786 l 410 989 l 650 989 l 456 786 l 303 786 z "},"Ņ":{"ha":1078,"x_min":114,"x_max":964,"o":"m 674 0 l 482 401 q 301 810 376 625 l 299 810 q 310 381 310 581 l 310 0 l 114 0 l 114 989 l 404 989 l 596 588 q 776 179 701 364 l 779 179 q 768 608 768 408 l 768 989 l 964 989 l 964 0 l 674 0 m 531 -375 l 453 -375 l 515 -226 l 453 -226 l 453 -82 l 625 -82 l 625 -226 l 531 -375 z "},"ņ":{"ha":833,"x_min":94,"x_max":746,"o":"m 486 722 q 676 648 607 722 q 746 433 746 574 l 746 0 l 551 0 l 551 414 q 519 531 551 492 q 428 569 486 569 q 327 520 365 569 q 289 378 289 471 l 289 0 l 94 0 l 94 706 l 276 706 l 276 617 l 279 617 q 368 694 315 665 q 486 722 421 722 m 413 -375 l 335 -375 l 397 -226 l 335 -226 l 335 -82 l 507 -82 l 507 -226 l 413 -375 z "},"Ň":{"ha":1078,"x_min":114,"x_max":964,"o":"m 674 0 l 482 401 q 301 810 376 625 l 299 810 q 310 381 310 581 l 310 0 l 114 0 l 114 989 l 404 989 l 596 588 q 776 179 701 364 l 779 179 q 768 608 768 408 l 768 989 l 964 989 l 964 0 l 674 0 m 435 1056 l 276 1258 l 454 1258 l 539 1153 l 622 1258 l 800 1258 l 642 1056 l 435 1056 z "},"ň":{"ha":833,"x_min":94,"x_max":746,"o":"m 486 722 q 676 648 607 722 q 746 433 746 574 l 746 0 l 551 0 l 551 414 q 519 531 551 492 q 428 569 486 569 q 327 520 365 569 q 289 378 289 471 l 289 0 l 94 0 l 94 706 l 276 706 l 276 617 l 279 617 q 368 694 315 665 q 486 722 421 722 m 317 786 l 158 989 l 336 989 l 421 883 l 504 989 l 682 989 l 524 786 l 317 786 z "},"ŉ":{"ha":1042,"x_min":81,"x_max":954,"o":"m 179 589 l 81 589 l 146 792 l 85 792 l 85 989 l 267 989 l 267 792 l 179 589 m 694 722 q 885 648 815 722 q 954 433 954 574 l 954 0 l 760 0 l 760 414 q 727 531 760 492 q 636 569 694 569 q 535 520 574 569 q 497 378 497 471 l 497 0 l 303 0 l 303 706 l 485 706 l 485 617 l 488 617 q 576 694 524 665 q 694 722 629 722 z "},"Ŋ":{"ha":1036,"x_min":114,"x_max":922,"o":"m 922 -19 q 858 -208 922 -147 q 682 -268 793 -268 q 586 -257 631 -268 l 586 -117 q 628 -121 606 -121 q 699 -99 675 -121 q 724 -31 724 -78 q 714 17 724 -6 q 665 108 704 40 l 472 443 q 301 771 376 611 l 299 771 q 310 418 310 614 l 310 0 l 114 0 l 114 989 l 368 989 l 564 647 q 735 319 660 479 l 738 319 q 726 672 726 476 l 726 989 l 922 989 l 922 -19 z "},"ŋ":{"ha":833,"x_min":94,"x_max":746,"o":"m 493 724 q 672 657 608 724 q 728 563 711 618 q 746 414 746 507 l 746 -14 q 681 -202 746 -142 q 506 -262 617 -262 q 410 -251 454 -262 l 410 -111 q 447 -115 426 -115 q 526 -87 501 -115 q 551 15 551 -58 l 551 396 q 543 485 551 454 q 515 538 535 517 q 429 571 483 571 q 328 522 367 571 q 289 379 289 472 l 289 0 l 94 0 l 94 706 l 278 706 l 278 615 l 281 615 q 374 697 319 671 q 493 724 429 724 z "},"Ō":{"ha":1039,"x_min":51,"x_max":988,"o":"m 519 1011 q 769 949 664 1011 q 931 770 875 886 q 988 494 988 654 q 931 219 988 335 q 769 40 875 103 q 519 -22 664 -22 q 269 40 375 -22 q 108 219 164 103 q 51 494 51 335 q 108 770 51 654 q 269 949 164 886 q 519 1011 375 1011 m 519 831 q 331 741 400 831 q 263 494 263 651 q 331 248 263 338 q 519 158 400 158 q 708 248 639 158 q 776 494 776 338 q 708 741 776 651 q 519 831 639 831 m 293 1081 l 293 1207 l 746 1207 l 746 1081 l 293 1081 z "},"ō":{"ha":819,"x_min":49,"x_max":771,"o":"m 410 728 q 601 682 519 728 q 726 551 682 636 q 771 353 771 467 q 726 154 771 239 q 601 24 682 69 q 410 -22 519 -22 q 219 24 300 -22 q 93 154 138 69 q 49 353 49 239 q 93 551 49 467 q 219 682 138 636 q 410 728 300 728 m 410 578 q 295 517 338 578 q 253 353 253 456 q 295 189 253 250 q 410 128 338 128 q 524 189 482 128 q 567 353 567 250 q 524 517 567 456 q 410 578 482 578 m 183 831 l 183 957 l 636 957 l 636 831 l 183 831 z "},"Ŏ":{"ha":1039,"x_min":51,"x_max":988,"o":"m 519 1011 q 769 949 664 1011 q 931 770 875 886 q 988 494 988 654 q 931 219 988 335 q 769 40 875 103 q 519 -22 664 -22 q 269 40 375 -22 q 108 219 164 103 q 51 494 51 335 q 108 770 51 654 q 269 949 164 886 q 519 1011 375 1011 m 519 831 q 331 741 400 831 q 263 494 263 651 q 331 248 263 338 q 519 158 400 158 q 708 248 639 158 q 776 494 776 338 q 708 741 776 651 q 519 831 639 831 m 763 1258 q 692 1103 757 1158 q 519 1049 628 1049 q 347 1103 411 1049 q 276 1258 282 1158 l 408 1258 q 441 1193 411 1217 q 519 1169 471 1169 q 598 1193 568 1169 q 631 1258 628 1217 l 763 1258 z "},"ŏ":{"ha":819,"x_min":49,"x_max":771,"o":"m 410 728 q 601 682 519 728 q 726 551 682 636 q 771 353 771 467 q 726 154 771 239 q 601 24 682 69 q 410 -22 519 -22 q 219 24 300 -22 q 93 154 138 69 q 49 353 49 239 q 93 551 49 467 q 219 682 138 636 q 410 728 300 728 m 410 578 q 295 517 338 578 q 253 353 253 456 q 295 189 253 250 q 410 128 338 128 q 524 189 482 128 q 567 353 567 250 q 524 517 567 456 q 410 578 482 578 m 653 989 q 583 834 647 889 q 410 779 518 779 q 237 834 301 779 q 167 989 172 889 l 299 989 q 331 924 301 947 q 410 900 361 900 q 488 924 458 900 q 521 989 518 947 l 653 989 z "},"Ő":{"ha":1039,"x_min":51,"x_max":988,"o":"m 519 1011 q 769 949 664 1011 q 931 770 875 886 q 988 494 988 654 q 931 219 988 335 q 769 40 875 103 q 519 -22 664 -22 q 269 40 375 -22 q 108 219 164 103 q 51 494 51 335 q 108 770 51 654 q 269 949 164 886 q 519 1011 375 1011 m 519 831 q 331 741 400 831 q 263 494 263 651 q 331 248 263 338 q 519 158 400 158 q 708 248 639 158 q 776 494 776 338 q 708 741 776 651 q 519 831 639 831 m 251 1056 l 386 1258 l 599 1258 l 404 1056 l 251 1056 m 515 1056 l 650 1258 l 863 1258 l 668 1056 l 515 1056 z "},"ő":{"ha":819,"x_min":49,"x_max":781,"o":"m 410 728 q 601 682 519 728 q 726 551 682 636 q 771 353 771 467 q 726 154 771 239 q 601 24 682 69 q 410 -22 519 -22 q 219 24 300 -22 q 93 154 138 69 q 49 353 49 239 q 93 551 49 467 q 219 682 138 636 q 410 728 300 728 m 410 578 q 295 517 338 578 q 253 353 253 456 q 295 189 253 250 q 410 128 338 128 q 524 189 482 128 q 567 353 567 250 q 524 517 567 456 q 410 578 482 578 m 169 786 l 304 989 l 517 989 l 322 786 l 169 786 m 433 786 l 568 989 l 781 989 l 586 786 l 433 786 z "},"Œ":{"ha":1417,"x_min":51,"x_max":1347,"o":"m 856 814 l 856 590 l 1303 590 l 1303 417 l 856 417 l 856 175 l 1347 175 l 1347 0 l 582 0 q 190 128 328 0 q 51 494 51 257 q 190 860 51 732 q 582 989 328 989 l 1335 989 l 1335 814 l 856 814 m 582 814 q 263 494 263 814 q 582 175 263 175 l 651 175 l 651 814 l 582 814 z "},"œ":{"ha":1289,"x_min":49,"x_max":1240,"o":"m 900 115 q 990 142 954 115 q 1032 214 1025 169 l 1231 214 q 1173 94 1217 149 q 1059 9 1129 40 q 900 -22 989 -22 q 761 5 824 -22 q 657 83 699 32 q 550 5 613 32 q 410 -22 488 -22 q 219 24 300 -22 q 93 154 138 69 q 49 353 49 239 q 93 551 49 467 q 219 682 138 636 q 410 728 300 728 q 550 701 488 728 q 657 622 613 674 q 761 700 700 672 q 899 728 822 728 q 1101 665 1017 728 q 1219 493 1186 601 q 1240 313 1240 421 l 747 313 q 793 163 751 210 q 900 115 835 115 m 899 590 q 801 551 839 590 q 751 435 763 513 l 1046 435 q 998 551 1038 513 q 899 590 958 590 m 410 128 q 524 189 482 128 q 567 353 567 250 q 524 517 567 456 q 410 578 482 578 q 295 517 338 578 q 253 353 253 456 q 295 189 253 250 q 410 128 338 128 z "},"Ŕ":{"ha":925,"x_min":114,"x_max":906,"o":"m 478 989 q 750 917 661 989 q 839 710 839 844 q 790 556 839 619 q 658 468 742 492 l 658 465 q 742 406 711 446 q 807 274 772 367 l 906 0 l 683 0 l 604 235 q 540 347 576 315 q 431 378 503 378 l 318 378 l 318 0 l 114 0 l 114 989 l 478 989 m 318 540 l 463 540 q 633 686 633 540 q 451 824 633 824 l 318 824 l 318 540 m 333 1056 l 440 1258 l 681 1258 l 486 1056 l 333 1056 z "},"ŕ":{"ha":544,"x_min":94,"x_max":533,"o":"m 469 717 q 533 708 504 717 l 533 540 q 472 547 496 547 q 336 492 383 547 q 289 333 289 438 l 289 0 l 94 0 l 94 706 l 274 706 l 274 606 l 276 606 q 359 690 311 663 q 469 717 407 717 m 172 786 l 279 989 l 519 989 l 325 786 l 172 786 z "},"Ŗ":{"ha":925,"x_min":114,"x_max":906,"o":"m 478 989 q 750 917 661 989 q 839 710 839 844 q 790 556 839 619 q 658 468 742 492 l 658 465 q 742 406 711 446 q 807 274 772 367 l 906 0 l 683 0 l 604 235 q 540 347 576 315 q 431 378 503 378 l 318 378 l 318 0 l 114 0 l 114 989 l 478 989 m 318 540 l 463 540 q 633 686 633 540 q 451 824 633 824 l 318 824 l 318 540 m 474 -375 l 396 -375 l 458 -226 l 396 -226 l 396 -82 l 568 -82 l 568 -226 l 474 -375 z "},"ŗ":{"ha":544,"x_min":94,"x_max":533,"o":"m 469 717 q 533 708 504 717 l 533 540 q 472 547 496 547 q 336 492 383 547 q 289 333 289 438 l 289 0 l 94 0 l 94 706 l 274 706 l 274 606 l 276 606 q 359 690 311 663 q 469 717 407 717 m 183 -375 l 106 -375 l 168 -226 l 106 -226 l 106 -82 l 278 -82 l 278 -226 l 183 -375 z "},"Ř":{"ha":925,"x_min":114,"x_max":906,"o":"m 478 989 q 750 917 661 989 q 839 710 839 844 q 790 556 839 619 q 658 468 742 492 l 658 465 q 742 406 711 446 q 807 274 772 367 l 906 0 l 683 0 l 604 235 q 540 347 576 315 q 431 378 503 378 l 318 378 l 318 0 l 114 0 l 114 989 l 478 989 m 318 540 l 463 540 q 633 686 633 540 q 451 824 633 824 l 318 824 l 318 540 m 347 1056 l 189 1258 l 367 1258 l 451 1153 l 535 1258 l 713 1258 l 554 1056 l 347 1056 z "},"ř":{"ha":544,"x_min":28,"x_max":551,"o":"m 469 717 q 533 708 504 717 l 533 540 q 472 547 496 547 q 336 492 383 547 q 289 333 289 438 l 289 0 l 94 0 l 94 706 l 274 706 l 274 606 l 276 606 q 359 690 311 663 q 469 717 407 717 m 186 786 l 28 989 l 206 989 l 290 883 l 374 989 l 551 989 l 393 786 l 186 786 z "},"Ś":{"ha":875,"x_min":39,"x_max":825,"o":"m 418 1011 q 698 928 603 1011 q 793 686 793 846 l 586 686 q 542 806 586 764 q 414 849 497 849 q 304 819 346 849 q 263 740 263 789 q 283 679 263 703 q 349 638 304 656 q 478 600 393 621 q 664 541 593 571 q 780 451 735 511 q 825 290 825 392 q 776 126 825 197 q 640 17 728 56 q 439 -22 553 -22 q 145 68 251 -22 q 39 325 39 158 l 250 325 q 299 189 250 235 q 442 143 347 143 q 566 177 519 143 q 613 269 613 211 q 592 335 613 311 q 532 374 571 360 q 408 410 493 388 q 217 469 288 440 q 99 558 146 499 q 53 718 53 617 q 99 871 53 804 q 228 974 144 938 q 418 1011 311 1011 m 300 1056 l 407 1258 l 647 1258 l 453 1056 l 300 1056 z "},"ś":{"ha":728,"x_min":49,"x_max":676,"o":"m 357 728 q 575 667 497 728 q 653 489 653 606 l 467 489 q 356 592 467 592 q 285 574 310 592 q 260 526 260 557 q 275 487 260 501 q 319 463 290 472 q 411 436 349 453 q 551 392 500 413 q 640 325 603 371 q 676 199 676 279 q 592 38 676 99 q 365 -22 508 -22 q 132 41 215 -22 q 49 229 49 104 l 246 229 q 278 147 246 176 q 369 118 310 118 q 446 136 419 118 q 472 186 472 154 q 456 233 472 215 q 409 260 439 250 q 310 289 379 271 q 180 330 226 311 q 99 392 133 349 q 65 511 65 435 q 102 623 65 574 q 205 700 139 672 q 357 728 271 728 m 239 786 l 346 989 l 586 989 l 392 786 l 239 786 z "},"Ŝ":{"ha":875,"x_min":39,"x_max":825,"o":"m 418 1011 q 698 928 603 1011 q 793 686 793 846 l 586 686 q 542 806 586 764 q 414 849 497 849 q 304 819 346 849 q 263 740 263 789 q 283 679 263 703 q 349 638 304 656 q 478 600 393 621 q 664 541 593 571 q 780 451 735 511 q 825 290 825 392 q 776 126 825 197 q 640 17 728 56 q 439 -22 553 -22 q 145 68 251 -22 q 39 325 39 158 l 250 325 q 299 189 250 235 q 442 143 347 143 q 566 177 519 143 q 613 269 613 211 q 592 335 613 311 q 532 374 571 360 q 408 410 493 388 q 217 469 288 440 q 99 558 146 499 q 53 718 53 617 q 99 871 53 804 q 228 974 144 938 q 418 1011 311 1011 m 521 1258 l 679 1056 l 501 1056 l 417 1161 l 333 1056 l 156 1056 l 314 1258 l 521 1258 z "},"ŝ":{"ha":728,"x_min":49,"x_max":676,"o":"m 357 728 q 575 667 497 728 q 653 489 653 606 l 467 489 q 356 592 467 592 q 285 574 310 592 q 260 526 260 557 q 275 487 260 501 q 319 463 290 472 q 411 436 349 453 q 551 392 500 413 q 640 325 603 371 q 676 199 676 279 q 592 38 676 99 q 365 -22 508 -22 q 132 41 215 -22 q 49 229 49 104 l 246 229 q 278 147 246 176 q 369 118 310 118 q 446 136 419 118 q 472 186 472 154 q 456 233 472 215 q 409 260 439 250 q 310 289 379 271 q 180 330 226 311 q 99 392 133 349 q 65 511 65 435 q 102 623 65 574 q 205 700 139 672 q 357 728 271 728 m 357 892 l 272 786 l 94 786 l 253 989 l 460 989 l 618 786 l 440 786 l 357 892 z "},"Ş":{"ha":875,"x_min":39,"x_max":825,"o":"m 825 290 q 781 133 825 201 q 656 24 736 64 q 468 -21 575 -17 l 429 -85 q 474 -78 447 -78 q 557 -106 522 -78 q 592 -183 592 -135 q 547 -277 592 -240 q 422 -314 503 -314 q 264 -272 339 -314 l 294 -210 q 406 -240 351 -240 q 456 -228 438 -240 q 474 -192 474 -215 q 456 -153 474 -168 q 407 -139 438 -139 q 363 -147 383 -139 l 333 -115 l 393 -21 q 133 80 226 -10 q 39 325 39 169 l 250 325 q 299 189 250 235 q 442 143 347 143 q 566 177 519 143 q 613 269 613 211 q 592 335 613 311 q 532 374 571 360 q 408 410 493 388 q 217 469 288 440 q 99 558 146 499 q 53 718 53 617 q 99 871 53 804 q 228 974 144 938 q 418 1011 311 1011 q 698 928 603 1011 q 793 686 793 846 l 586 686 q 542 806 586 764 q 414 849 497 849 q 304 819 346 849 q 263 740 263 789 q 283 679 263 703 q 349 638 304 656 q 478 600 393 621 q 664 541 593 571 q 780 451 735 511 q 825 290 825 392 z "},"ş":{"ha":728,"x_min":49,"x_max":676,"o":"m 676 199 q 603 47 676 107 q 404 -21 529 -12 l 364 -85 q 408 -78 382 -78 q 492 -106 457 -78 q 526 -183 526 -135 q 482 -277 526 -240 q 357 -314 438 -314 q 199 -272 274 -314 l 229 -210 q 340 -240 286 -240 q 390 -228 372 -240 q 408 -192 408 -215 q 390 -153 408 -168 q 342 -139 372 -139 q 297 -147 318 -139 l 268 -115 l 326 -21 q 122 49 194 -14 q 49 229 49 113 l 246 229 q 278 147 246 176 q 369 118 310 118 q 446 136 419 118 q 472 186 472 154 q 456 233 472 215 q 409 260 439 250 q 310 289 379 271 q 180 330 226 311 q 99 392 133 349 q 65 511 65 435 q 102 623 65 574 q 205 700 139 672 q 357 728 271 728 q 575 667 497 728 q 653 489 653 606 l 467 489 q 356 592 467 592 q 285 574 310 592 q 260 526 260 557 q 275 487 260 501 q 319 463 290 472 q 411 436 349 453 q 551 392 500 413 q 640 325 603 371 q 676 199 676 279 z "},"Š":{"ha":875,"x_min":39,"x_max":825,"o":"m 418 1011 q 698 928 603 1011 q 793 686 793 846 l 586 686 q 542 806 586 764 q 414 849 497 849 q 304 819 346 849 q 263 740 263 789 q 283 679 263 703 q 349 638 304 656 q 478 600 393 621 q 664 541 593 571 q 780 451 735 511 q 825 290 825 392 q 776 126 825 197 q 640 17 728 56 q 439 -22 553 -22 q 145 68 251 -22 q 39 325 39 158 l 250 325 q 299 189 250 235 q 442 143 347 143 q 566 177 519 143 q 613 269 613 211 q 592 335 613 311 q 532 374 571 360 q 408 410 493 388 q 217 469 288 440 q 99 558 146 499 q 53 718 53 617 q 99 871 53 804 q 228 974 144 938 q 418 1011 311 1011 m 314 1056 l 156 1258 l 333 1258 l 418 1153 l 501 1258 l 679 1258 l 521 1056 l 314 1056 z "},"š":{"ha":728,"x_min":49,"x_max":676,"o":"m 357 728 q 575 667 497 728 q 653 489 653 606 l 467 489 q 356 592 467 592 q 285 574 310 592 q 260 526 260 557 q 275 487 260 501 q 319 463 290 472 q 411 436 349 453 q 551 392 500 413 q 640 325 603 371 q 676 199 676 279 q 592 38 676 99 q 365 -22 508 -22 q 132 41 215 -22 q 49 229 49 104 l 246 229 q 278 147 246 176 q 369 118 310 118 q 446 136 419 118 q 472 186 472 154 q 456 233 472 215 q 409 260 439 250 q 310 289 379 271 q 180 330 226 311 q 99 392 133 349 q 65 511 65 435 q 102 623 65 574 q 205 700 139 672 q 357 728 271 728 m 253 786 l 94 989 l 272 989 l 357 883 l 440 989 l 618 989 l 460 786 l 253 786 z "},"Ţ":{"ha":854,"x_min":14,"x_max":840,"o":"m 529 814 l 529 0 l 325 0 l 325 814 l 14 814 l 14 989 l 840 989 l 840 814 l 529 814 m 419 -375 l 342 -375 l 404 -226 l 342 -226 l 342 -82 l 514 -82 l 514 -226 l 419 -375 z "},"ţ":{"ha":496,"x_min":11,"x_max":461,"o":"m 411 146 q 461 153 440 146 l 461 4 q 358 -10 417 -10 q 181 44 236 -10 q 125 219 125 97 l 125 561 l 11 561 l 11 706 l 125 706 l 125 889 l 319 889 l 319 706 l 454 706 l 454 561 l 319 561 l 319 254 q 340 171 319 196 q 411 146 361 146 m 363 -82 l 363 -226 l 268 -375 l 190 -375 l 253 -226 l 190 -226 l 190 -82 l 363 -82 z "},"Ť":{"ha":854,"x_min":14,"x_max":840,"o":"m 529 814 l 529 0 l 325 0 l 325 814 l 14 814 l 14 989 l 840 989 l 840 814 l 529 814 m 324 1056 l 165 1258 l 343 1258 l 428 1153 l 511 1258 l 689 1258 l 531 1056 l 324 1056 z "},"ť":{"ha":496,"x_min":11,"x_max":549,"o":"m 411 146 q 461 153 440 146 l 461 4 q 358 -10 417 -10 q 181 44 236 -10 q 125 219 125 97 l 125 561 l 11 561 l 11 706 l 125 706 l 125 889 l 319 889 l 319 706 l 454 706 l 454 561 l 319 561 l 319 254 q 340 171 319 196 q 411 146 361 146 m 358 743 l 394 989 l 549 989 l 468 743 l 358 743 z "},"Ŧ":{"ha":854,"x_min":14,"x_max":840,"o":"m 529 556 l 717 556 l 717 408 l 529 408 l 529 0 l 325 0 l 325 408 l 138 408 l 138 556 l 325 556 l 325 814 l 14 814 l 14 989 l 840 989 l 840 814 l 529 814 l 529 556 z "},"ŧ":{"ha":496,"x_min":11,"x_max":461,"o":"m 411 146 q 461 153 440 146 l 461 4 q 358 -10 417 -10 q 181 44 236 -10 q 126 219 126 97 l 126 313 l 15 313 l 15 428 l 126 428 l 126 561 l 11 561 l 11 706 l 126 706 l 126 889 l 319 889 l 319 706 l 454 706 l 454 561 l 319 561 l 319 428 l 450 428 l 450 313 l 319 313 l 319 254 q 340 171 319 196 q 411 146 361 146 z "},"Ũ":{"ha":997,"x_min":106,"x_max":892,"o":"m 892 378 q 790 81 892 183 q 499 -22 688 -22 q 208 81 310 -22 q 106 378 106 183 l 106 989 l 310 989 l 310 385 q 358 217 310 275 q 499 158 407 158 q 639 217 590 158 q 688 385 688 275 l 688 989 l 892 989 l 892 378 m 760 1258 q 713 1121 756 1171 q 596 1071 669 1071 q 538 1081 563 1071 q 482 1108 513 1090 q 442 1128 457 1122 q 410 1135 428 1135 q 365 1119 381 1135 q 346 1071 350 1104 l 238 1071 q 285 1208 242 1158 q 401 1258 328 1258 q 460 1249 435 1258 q 517 1221 486 1239 q 555 1201 539 1208 q 588 1194 571 1194 q 632 1210 617 1194 q 651 1258 647 1225 l 760 1258 z "},"ũ":{"ha":833,"x_min":88,"x_max":739,"o":"m 347 -17 q 157 58 226 -17 q 88 272 88 132 l 88 706 l 282 706 l 282 292 q 315 175 282 214 q 406 136 347 136 q 506 185 468 136 q 544 328 544 235 l 544 706 l 739 706 l 739 0 l 557 0 l 557 89 l 554 89 q 465 12 518 40 q 347 -17 413 -17 m 678 989 q 631 851 674 901 q 514 801 588 801 q 456 811 481 801 q 400 839 431 821 q 360 859 375 853 q 328 865 346 865 q 283 850 299 865 q 264 801 268 835 l 156 801 q 203 939 160 889 q 319 989 246 989 q 378 979 353 989 q 435 951 404 969 q 473 932 457 939 q 506 925 489 925 q 550 940 535 925 q 569 989 565 956 l 678 989 z "},"Ū":{"ha":997,"x_min":106,"x_max":892,"o":"m 892 378 q 790 81 892 183 q 499 -22 688 -22 q 208 81 310 -22 q 106 378 106 183 l 106 989 l 310 989 l 310 385 q 358 217 310 275 q 499 158 407 158 q 639 217 590 158 q 688 385 688 275 l 688 989 l 892 989 l 892 378 m 272 1081 l 272 1207 l 725 1207 l 725 1081 l 272 1081 z "},"ū":{"ha":833,"x_min":88,"x_max":739,"o":"m 347 -17 q 157 58 226 -17 q 88 272 88 132 l 88 706 l 282 706 l 282 292 q 315 175 282 214 q 406 136 347 136 q 506 185 468 136 q 544 328 544 235 l 544 706 l 739 706 l 739 0 l 557 0 l 557 89 l 554 89 q 465 12 518 40 q 347 -17 413 -17 m 190 831 l 190 957 l 643 957 l 643 831 l 190 831 z "},"Ŭ":{"ha":997,"x_min":106,"x_max":892,"o":"m 892 378 q 790 81 892 183 q 499 -22 688 -22 q 208 81 310 -22 q 106 378 106 183 l 106 989 l 310 989 l 310 385 q 358 217 310 275 q 499 158 407 158 q 639 217 590 158 q 688 385 688 275 l 688 989 l 892 989 l 892 378 m 742 1258 q 672 1103 736 1158 q 499 1049 607 1049 q 326 1103 390 1049 q 256 1258 261 1158 l 388 1258 q 420 1193 390 1217 q 499 1169 450 1169 q 577 1193 547 1169 q 610 1258 607 1217 l 742 1258 z "},"ŭ":{"ha":833,"x_min":88,"x_max":739,"o":"m 347 -17 q 157 58 226 -17 q 88 272 88 132 l 88 706 l 282 706 l 282 292 q 315 175 282 214 q 406 136 347 136 q 506 185 468 136 q 544 328 544 235 l 544 706 l 739 706 l 739 0 l 557 0 l 557 89 l 554 89 q 465 12 518 40 q 347 -17 413 -17 m 660 989 q 590 834 654 889 q 417 779 525 779 q 244 834 308 779 q 174 989 179 889 l 306 989 q 338 924 308 947 q 417 900 368 900 q 495 924 465 900 q 528 989 525 947 l 660 989 z "},"Ů":{"ha":997,"x_min":106,"x_max":892,"o":"m 892 378 q 790 81 892 183 q 499 -22 688 -22 q 208 81 310 -22 q 106 378 106 183 l 106 989 l 310 989 l 310 385 q 358 217 310 275 q 499 158 407 158 q 639 217 590 158 q 688 385 688 275 l 688 989 l 892 989 l 892 378 m 499 1342 q 605 1298 561 1342 q 649 1192 649 1254 q 605 1085 649 1129 q 499 1042 561 1042 q 392 1085 436 1042 q 349 1192 349 1129 q 392 1298 349 1254 q 499 1342 436 1342 m 499 1267 q 446 1245 468 1267 q 424 1192 424 1224 q 446 1139 424 1161 q 499 1117 468 1117 q 552 1139 531 1117 q 574 1192 574 1161 q 552 1245 574 1224 q 499 1267 531 1267 z "},"ů":{"ha":833,"x_min":88,"x_max":739,"o":"m 347 -17 q 157 58 226 -17 q 88 272 88 132 l 88 706 l 282 706 l 282 292 q 315 175 282 214 q 406 136 347 136 q 506 185 468 136 q 544 328 544 235 l 544 706 l 739 706 l 739 0 l 557 0 l 557 89 l 554 89 q 465 12 518 40 q 347 -17 413 -17 m 417 1072 q 523 1028 479 1072 q 567 922 567 985 q 523 816 567 860 q 417 772 479 772 q 310 816 354 772 q 267 922 267 860 q 310 1028 267 985 q 417 1072 354 1072 m 417 997 q 364 976 386 997 q 342 922 342 954 q 364 869 342 892 q 417 847 386 847 q 470 869 449 847 q 492 922 492 892 q 470 976 492 954 q 417 997 449 997 z "},"Ű":{"ha":997,"x_min":106,"x_max":892,"o":"m 892 378 q 790 81 892 183 q 499 -22 688 -22 q 208 81 310 -22 q 106 378 106 183 l 106 989 l 310 989 l 310 385 q 358 217 310 275 q 499 158 407 158 q 639 217 590 158 q 688 385 688 275 l 688 989 l 892 989 l 892 378 m 231 1056 l 365 1258 l 578 1258 l 383 1056 l 231 1056 m 494 1056 l 629 1258 l 842 1258 l 647 1056 l 494 1056 z "},"ű":{"ha":833,"x_min":88,"x_max":788,"o":"m 347 -17 q 157 58 226 -17 q 88 272 88 132 l 88 706 l 282 706 l 282 292 q 315 175 282 214 q 406 136 347 136 q 506 185 468 136 q 544 328 544 235 l 544 706 l 739 706 l 739 0 l 557 0 l 557 89 l 554 89 q 465 12 518 40 q 347 -17 413 -17 m 176 786 l 311 989 l 524 989 l 329 786 l 176 786 m 440 786 l 575 989 l 788 989 l 593 786 l 440 786 z "},"Ų":{"ha":997,"x_min":106,"x_max":892,"o":"m 892 378 q 851 170 892 257 q 732 22 811 83 q 660 -49 681 -18 q 640 -111 640 -79 q 689 -165 640 -165 q 739 -157 718 -165 l 739 -256 q 631 -274 694 -274 q 513 -241 553 -274 q 474 -147 474 -208 q 492 -81 474 -110 q 549 -21 510 -51 l 549 -18 q 499 -22 525 -22 q 208 81 310 -22 q 106 378 106 183 l 106 989 l 310 989 l 310 385 q 358 217 310 275 q 499 158 407 158 q 639 217 590 158 q 688 385 688 275 l 688 989 l 892 989 l 892 378 z "},"ų":{"ha":833,"x_min":88,"x_max":743,"o":"m 693 -165 q 743 -157 722 -165 l 743 -256 q 635 -274 699 -274 q 517 -242 557 -274 q 478 -153 478 -210 q 504 -73 478 -108 q 586 0 531 -37 l 557 0 l 557 89 l 554 89 q 465 12 518 40 q 347 -17 413 -17 q 157 58 226 -17 q 88 272 88 132 l 88 706 l 282 706 l 282 292 q 315 175 282 214 q 406 136 347 136 q 506 185 468 136 q 544 328 544 235 l 544 706 l 739 706 l 739 0 q 665 -65 686 -36 q 644 -122 644 -93 q 693 -165 644 -165 z "},"Ŵ":{"ha":1328,"x_min":13,"x_max":1315,"o":"m 843 0 l 751 392 q 665 815 700 610 l 663 815 q 576 392 628 610 l 485 0 l 219 0 l 13 989 l 213 989 l 283 629 q 356 201 328 404 l 358 201 q 449 629 396 411 l 535 989 l 793 989 l 879 629 q 969 201 932 411 l 972 201 q 1044 629 1000 404 l 1115 989 l 1315 989 l 1108 0 l 843 0 m 764 1258 l 922 1056 l 744 1056 l 660 1161 l 576 1056 l 399 1056 l 557 1258 l 764 1258 z "},"ŵ":{"ha":1125,"x_min":7,"x_max":1118,"o":"m 685 0 l 622 278 q 564 579 590 422 l 561 579 q 503 278 535 422 l 440 0 l 163 0 l 7 706 l 200 706 l 253 433 q 304 126 286 263 l 307 126 q 367 431 332 282 l 429 706 l 696 706 l 758 431 q 818 126 793 282 l 821 126 q 872 433 839 263 l 925 706 l 1118 706 l 963 0 l 685 0 m 563 892 l 478 786 l 300 786 l 458 989 l 665 989 l 824 786 l 646 786 l 563 892 z "},"Ŷ":{"ha":886,"x_min":3,"x_max":882,"o":"m 544 0 l 340 0 l 340 385 l 3 989 l 232 989 l 326 803 q 442 551 389 679 l 444 551 q 560 803 497 679 l 654 989 l 882 989 l 544 385 l 544 0 m 546 1258 l 704 1056 l 526 1056 l 442 1161 l 358 1056 l 181 1056 l 339 1258 l 546 1258 z "},"ŷ":{"ha":700,"x_min":-10,"x_max":710,"o":"m 457 -4 q 377 -160 421 -104 q 272 -241 333 -217 q 121 -265 211 -265 q 19 -254 67 -265 l 19 -99 q 94 -110 50 -110 q 188 -78 153 -110 q 224 4 224 -47 q 217 49 224 24 q 190 132 211 74 l -10 706 l 199 706 l 271 469 q 349 174 315 321 l 351 174 q 433 469 393 344 l 510 706 l 710 706 l 457 -4 m 350 892 l 265 786 l 88 786 l 246 989 l 453 989 l 611 786 l 433 786 l 350 892 z "},"Ÿ":{"ha":886,"x_min":3,"x_max":882,"o":"m 544 0 l 340 0 l 340 385 l 3 989 l 232 989 l 326 803 q 442 551 389 679 l 444 551 q 560 803 497 679 l 654 989 l 882 989 l 544 385 l 544 0 m 207 1068 l 207 1235 l 378 1235 l 378 1068 l 207 1068 m 508 1068 l 508 1235 l 679 1235 l 679 1068 l 508 1068 z "},"Ź":{"ha":808,"x_min":28,"x_max":781,"o":"m 271 175 l 271 172 l 781 172 l 781 0 l 28 0 l 28 179 l 514 814 l 514 817 l 50 817 l 50 989 l 757 989 l 757 810 l 271 175 m 286 1056 l 393 1258 l 633 1258 l 439 1056 l 286 1056 z "},"ź":{"ha":672,"x_min":39,"x_max":633,"o":"m 274 156 l 274 153 l 633 153 l 633 0 l 39 0 l 39 158 l 385 550 l 385 553 l 53 553 l 53 706 l 619 706 l 619 547 l 274 156 m 208 786 l 315 989 l 556 989 l 361 786 l 208 786 z "},"Ż":{"ha":808,"x_min":28,"x_max":781,"o":"m 271 175 l 271 172 l 781 172 l 781 0 l 28 0 l 28 179 l 514 814 l 514 817 l 50 817 l 50 989 l 757 989 l 757 810 l 271 175 m 307 1068 l 307 1235 l 501 1235 l 501 1068 l 307 1068 z "},"ż":{"ha":672,"x_min":39,"x_max":633,"o":"m 274 156 l 274 153 l 633 153 l 633 0 l 39 0 l 39 158 l 385 550 l 385 553 l 53 553 l 53 706 l 619 706 l 619 547 l 274 156 m 229 822 l 229 989 l 424 989 l 424 822 l 229 822 z "},"Ž":{"ha":808,"x_min":28,"x_max":781,"o":"m 271 175 l 271 172 l 781 172 l 781 0 l 28 0 l 28 179 l 514 814 l 514 817 l 50 817 l 50 989 l 757 989 l 757 810 l 271 175 m 300 1056 l 142 1258 l 319 1258 l 404 1153 l 488 1258 l 665 1258 l 507 1056 l 300 1056 z "},"ž":{"ha":672,"x_min":39,"x_max":633,"o":"m 274 156 l 274 153 l 633 153 l 633 0 l 39 0 l 39 158 l 385 550 l 385 553 l 53 553 l 53 706 l 619 706 l 619 547 l 274 156 m 222 786 l 64 989 l 242 989 l 326 883 l 410 989 l 588 989 l 429 786 l 222 786 z "},"ſ":{"ha":474,"x_min":14,"x_max":460,"o":"m 364 1000 q 460 989 413 1000 l 460 851 q 425 856 447 856 q 347 830 372 856 q 322 746 322 804 l 322 0 l 131 0 l 131 561 l 14 561 l 14 706 l 131 706 l 131 769 q 190 942 131 885 q 364 1000 250 1000 z "},"Ə":{"ha":1061,"x_min":51,"x_max":1010,"o":"m 517 1011 q 780 948 668 1011 q 951 768 892 885 q 1010 496 1010 651 q 951 231 1010 349 q 783 45 893 113 q 525 -22 672 -22 q 274 41 381 -22 q 109 220 167 104 q 51 493 51 336 q 56 564 51 539 l 797 564 q 710 768 789 701 q 514 835 632 835 q 367 794 424 835 q 296 688 310 753 l 78 688 q 154 851 99 778 q 302 967 210 924 q 517 1011 394 1011 m 525 158 q 702 219 632 158 q 790 394 772 281 l 265 394 q 353 219 282 279 q 525 158 424 158 z "},"ƒ":{"ha":833,"x_min":29,"x_max":804,"o":"m 693 1004 q 804 990 753 1004 l 804 842 q 735 850 775 850 q 646 822 678 850 q 596 722 614 793 l 578 650 l 731 650 l 731 506 l 543 506 l 417 8 q 313 -203 379 -142 q 122 -265 246 -265 q 29 -254 67 -265 l 29 -104 q 97 -112 58 -112 q 179 -85 151 -112 q 228 24 207 -57 l 350 506 l 210 506 l 210 650 l 385 650 l 407 738 q 510 941 443 878 q 693 1004 578 1004 z "},"Ǻ":{"ha":969,"x_min":4,"x_max":965,"o":"m 296 242 l 218 0 l 4 0 l 347 989 l 622 989 l 965 0 l 751 0 l 675 242 l 296 242 m 599 482 q 486 868 531 699 l 483 868 q 372 482 432 674 l 351 417 l 619 417 l 599 482 m 485 1318 q 591 1274 547 1318 q 635 1168 635 1231 q 591 1062 635 1106 q 485 1018 547 1018 q 378 1062 422 1018 q 335 1168 335 1106 q 378 1274 335 1231 q 485 1318 422 1318 m 485 1243 q 432 1222 454 1243 q 410 1168 410 1200 q 432 1115 410 1138 q 485 1093 454 1093 q 538 1115 517 1093 q 560 1168 560 1138 q 538 1222 560 1200 q 485 1243 517 1243 m 367 1347 l 474 1550 l 714 1550 l 519 1347 l 367 1347 z "},"ǻ":{"ha":760,"x_min":36,"x_max":693,"o":"m 371 728 q 597 658 521 728 q 674 449 674 588 l 674 193 q 693 0 674 74 l 518 0 q 508 94 508 40 l 506 94 q 276 -17 428 -17 q 101 44 167 -17 q 36 197 36 104 q 99 343 36 288 q 310 422 163 399 q 486 442 399 436 l 486 467 q 456 561 486 531 q 371 592 425 592 q 287 563 317 592 q 254 485 257 535 l 65 485 q 149 660 71 592 q 371 728 226 728 m 486 324 q 344 308 403 318 q 257 275 283 297 q 231 211 231 253 q 258 147 231 171 q 335 122 285 122 q 397 133 367 122 q 446 163 426 143 q 478 216 469 186 q 486 297 486 246 l 486 324 m 363 1057 q 469 1013 425 1057 q 513 907 513 969 q 469 801 513 844 q 363 757 425 757 q 256 801 300 757 q 213 907 213 844 q 256 1013 213 969 q 363 1057 300 1057 m 363 982 q 310 960 332 982 q 288 907 288 939 q 310 854 288 876 q 363 832 332 832 q 416 854 394 832 q 438 907 438 876 q 416 960 438 939 q 363 982 394 982 m 244 1086 l 351 1289 l 592 1289 l 397 1086 l 244 1086 z "},"Ǽ":{"ha":1340,"x_min":-8,"x_max":1271,"o":"m 1271 0 l 718 0 l 682 249 l 329 249 l 222 0 l -8 0 l 453 989 l 1258 989 l 1258 814 l 797 814 l 829 590 l 1226 590 l 1226 417 l 854 417 l 889 175 l 1271 175 l 1271 0 m 599 826 l 579 826 l 404 421 l 657 421 l 599 826 m 601 1056 l 708 1258 l 949 1258 l 754 1056 l 601 1056 z "},"ǽ":{"ha":1222,"x_min":36,"x_max":1174,"o":"m 833 115 q 923 142 888 115 q 965 214 958 169 l 1164 214 q 1106 94 1150 149 q 992 9 1063 40 q 833 -22 922 -22 q 685 10 750 -22 q 576 101 619 42 q 465 9 535 40 q 310 -22 396 -22 q 165 6 226 -22 q 69 85 103 35 q 36 197 36 135 q 120 368 36 308 q 392 428 204 428 l 500 428 l 500 467 q 469 562 500 532 q 378 592 439 592 q 290 563 321 592 q 256 485 258 535 l 67 485 q 151 660 72 592 q 378 728 231 728 q 611 644 538 728 q 832 728 699 728 q 1035 665 950 728 q 1153 493 1119 601 q 1174 313 1174 421 l 681 313 q 726 163 685 210 q 833 115 768 115 m 832 590 q 732 549 771 590 q 683 428 693 508 l 979 428 q 932 549 972 508 q 832 590 892 590 m 413 313 q 272 288 313 313 q 231 211 231 263 q 260 142 231 168 q 340 117 289 117 q 405 128 374 117 q 457 160 436 139 q 491 215 482 185 q 500 297 500 246 l 500 313 l 413 313 m 488 786 l 594 989 l 835 989 l 640 786 l 488 786 z "},"Ǿ":{"ha":1039,"x_min":51,"x_max":988,"o":"m 867 868 q 956 706 925 801 q 988 494 988 611 q 931 219 988 335 q 769 40 875 103 q 519 -22 664 -22 q 256 49 365 -22 l 174 -60 l 88 7 l 172 121 q 51 494 51 258 q 108 770 51 654 q 269 949 164 886 q 519 1011 375 1011 q 785 939 674 1011 l 867 1049 l 951 982 l 867 868 m 254 494 q 296 286 254 374 l 674 790 q 519 842 610 842 q 325 749 396 842 q 254 494 254 656 m 519 147 q 714 240 643 147 q 785 494 785 333 q 742 703 785 617 l 365 197 q 519 147 431 147 m 401 1056 l 508 1258 l 749 1258 l 554 1056 l 401 1056 z "},"ǿ":{"ha":819,"x_min":49,"x_max":771,"o":"m 674 625 q 771 353 771 524 q 726 154 771 239 q 601 24 682 69 q 410 -22 519 -22 q 219 24 301 -22 l 149 -72 l 75 -18 l 147 78 q 74 198 100 128 q 49 353 49 268 q 93 551 49 467 q 219 682 138 636 q 410 728 300 728 q 601 682 518 728 l 674 778 l 746 721 l 674 625 m 410 586 q 288 523 333 586 q 242 353 242 460 q 263 231 242 281 l 504 553 q 410 586 464 586 m 410 119 q 533 183 488 119 q 578 353 578 246 q 558 472 578 421 l 317 151 q 410 119 356 119 m 292 786 l 399 989 l 639 989 l 444 786 l 292 786 z "},"Ș":{"ha":875,"x_min":39,"x_max":825,"o":"m 418 1011 q 698 928 603 1011 q 793 686 793 846 l 586 686 q 542 806 586 764 q 414 849 497 849 q 304 819 346 849 q 263 740 263 789 q 283 679 263 703 q 349 638 304 656 q 478 600 393 621 q 664 541 593 571 q 780 451 735 511 q 825 290 825 392 q 776 126 825 197 q 640 17 728 56 q 439 -22 553 -22 q 145 68 251 -22 q 39 325 39 158 l 250 325 q 299 189 250 235 q 442 143 347 143 q 566 177 519 143 q 613 269 613 211 q 592 335 613 311 q 532 374 571 360 q 408 410 493 388 q 217 469 288 440 q 99 558 146 499 q 53 718 53 617 q 99 871 53 804 q 228 974 144 938 q 418 1011 311 1011 m 419 -375 l 342 -375 l 404 -226 l 342 -226 l 342 -82 l 514 -82 l 514 -226 l 419 -375 z "},"ș":{"ha":728,"x_min":49,"x_max":676,"o":"m 357 728 q 575 667 497 728 q 653 489 653 606 l 467 489 q 356 592 467 592 q 285 574 310 592 q 260 526 260 557 q 275 487 260 501 q 319 463 290 472 q 411 436 349 453 q 551 392 500 413 q 640 325 603 371 q 676 199 676 279 q 592 38 676 99 q 365 -22 508 -22 q 132 41 215 -22 q 49 229 49 104 l 246 229 q 278 147 246 176 q 369 118 310 118 q 446 136 419 118 q 472 186 472 154 q 456 233 472 215 q 409 260 439 250 q 310 289 379 271 q 180 330 226 311 q 99 392 133 349 q 65 511 65 435 q 102 623 65 574 q 205 700 139 672 q 357 728 271 728 m 354 -375 l 276 -375 l 339 -226 l 276 -226 l 276 -82 l 449 -82 l 449 -226 l 354 -375 z "},"Ț":{"ha":854,"x_min":14,"x_max":840,"o":"m 529 814 l 529 0 l 325 0 l 325 814 l 14 814 l 14 989 l 840 989 l 840 814 l 529 814 m 419 -375 l 342 -375 l 404 -226 l 342 -226 l 342 -82 l 514 -82 l 514 -226 l 419 -375 z "},"ț":{"ha":496,"x_min":11,"x_max":461,"o":"m 411 146 q 461 153 440 146 l 461 4 q 358 -10 417 -10 q 181 44 236 -10 q 125 219 125 97 l 125 561 l 11 561 l 11 706 l 125 706 l 125 889 l 319 889 l 319 706 l 454 706 l 454 561 l 319 561 l 319 254 q 340 171 319 196 q 411 146 361 146 m 268 -375 l 190 -375 l 253 -226 l 190 -226 l 190 -82 l 363 -82 l 363 -226 l 268 -375 z "},"ȷ":{"ha":386,"x_min":-44,"x_max":292,"o":"m 292 -15 q 227 -203 292 -143 q 51 -264 163 -264 q -44 -253 0 -264 l -44 -112 q -7 -117 -28 -117 q 72 -88 47 -117 q 97 14 97 -60 l 97 706 l 292 706 l 292 -15 z "},"ə":{"ha":796,"x_min":49,"x_max":747,"o":"m 390 728 q 582 681 501 728 q 705 549 663 633 q 747 353 747 464 q 706 161 747 246 q 584 27 664 76 q 397 -22 504 -22 q 213 24 292 -22 q 91 154 133 69 q 49 353 49 239 q 51 400 49 378 l 556 400 q 506 544 551 499 q 390 590 461 590 q 306 565 339 590 q 265 499 272 539 l 67 499 q 174 663 89 597 q 390 728 260 728 m 397 115 q 499 156 458 115 q 551 278 540 197 l 243 278 q 293 156 251 197 q 397 115 335 115 z "},"ʼ":{"ha":353,"x_min":81,"x_max":267,"o":"m 179 589 l 81 589 l 146 792 l 85 792 l 85 989 l 267 989 l 267 792 l 179 589 z "},"ˆ":{"ha":663,"x_min":69,"x_max":593,"o":"m 332 892 l 247 786 l 69 786 l 228 989 l 435 989 l 593 786 l 415 786 l 332 892 z "},"ˇ":{"ha":663,"x_min":69,"x_max":593,"o":"m 228 786 l 69 989 l 247 989 l 332 883 l 415 989 l 593 989 l 435 786 l 228 786 z "},"ˉ":{"ha":592,"x_min":69,"x_max":522,"o":"m 69 831 l 69 957 l 522 957 l 522 831 l 69 831 z "},"˘":{"ha":625,"x_min":69,"x_max":556,"o":"m 556 989 q 485 834 550 889 q 313 779 421 779 q 140 834 204 779 q 69 989 75 889 l 201 989 q 234 924 204 947 q 313 900 264 900 q 391 924 361 900 q 424 989 421 947 l 556 989 z "},"˙":{"ha":333,"x_min":69,"x_max":264,"o":"m 69 822 l 69 989 l 264 989 l 264 822 l 69 822 z "},"˚":{"ha":439,"x_min":69,"x_max":369,"o":"m 219 1072 q 326 1028 282 1072 q 369 922 369 985 q 326 816 369 860 q 219 772 282 772 q 113 816 157 772 q 69 922 69 860 q 113 1028 69 985 q 219 1072 157 1072 m 219 997 q 167 976 189 997 q 144 922 144 954 q 167 869 144 892 q 219 847 189 847 q 273 869 251 847 q 294 922 294 892 q 273 976 294 954 q 219 997 251 997 z "},"˛":{"ha":404,"x_min":69,"x_max":335,"o":"m 331 0 q 257 -65 278 -36 q 236 -122 236 -93 q 285 -165 236 -165 q 335 -157 314 -165 l 335 -256 q 226 -274 289 -274 q 109 -242 149 -274 q 69 -153 69 -210 q 96 -73 69 -108 q 178 0 122 -37 l 331 0 z "},"˜":{"ha":661,"x_min":69,"x_max":592,"o":"m 592 989 q 544 851 588 901 q 428 801 501 801 q 369 811 394 801 q 314 839 344 821 q 274 859 289 853 q 242 865 260 865 q 197 850 213 865 q 178 801 182 835 l 69 801 q 117 939 74 889 q 233 989 160 989 q 292 979 267 989 q 349 951 318 969 q 387 932 371 939 q 419 925 403 925 q 464 940 449 925 q 483 989 479 956 l 592 989 z "},"˝":{"ha":750,"x_min":69,"x_max":681,"o":"m 69 786 l 204 989 l 417 989 l 222 786 l 69 786 m 333 786 l 468 989 l 681 989 l 486 786 l 333 786 z "},"̒":{"ha":0,"x_min":69,"x_max":242,"o":"m 242 946 l 242 801 l 69 801 l 69 946 l 164 1094 l 242 1094 l 179 946 l 242 946 z "},"̦":{"ha":0,"x_min":69,"x_max":242,"o":"m 147 -375 l 69 -375 l 132 -226 l 69 -226 l 69 -82 l 242 -82 l 242 -226 l 147 -375 z "},"̳":{"ha":0,"x_min":-694,"x_max":0,"o":"m -694 -168 l -694 -69 l 0 -69 l 0 -168 l -694 -168 m -694 -369 l -694 -271 l 0 -271 l 0 -369 l -694 -369 z "},"ʹ":{"ha":299,"x_min":42,"x_max":257,"o":"m 42 706 l 83 989 l 257 989 l 164 706 l 42 706 z "},"͵":{"ha":299,"x_min":42,"x_max":257,"o":"m 42 -128 l 83 156 l 257 156 l 164 -128 l 42 -128 z "},";":{"ha":358,"x_min":67,"x_max":286,"o":"m 72 474 l 72 706 l 286 706 l 286 474 l 72 474 m 183 -239 l 67 -239 l 143 0 l 72 0 l 72 232 l 286 232 l 286 0 l 183 -239 z "},"΄":{"ha":378,"x_min":69,"x_max":308,"o":"m 69 789 l 118 1017 l 308 1017 l 214 789 l 69 789 z "},"΅":{"ha":750,"x_min":69,"x_max":681,"o":"m 278 789 l 324 1006 l 485 1006 l 410 789 l 278 789 m 69 806 l 69 968 l 226 968 l 226 806 l 69 806 m 524 806 l 524 968 l 681 968 l 681 806 l 524 806 z "},"Ά":{"ha":969,"x_min":4,"x_max":965,"o":"m 296 242 l 218 0 l 4 0 l 347 989 l 622 989 l 965 0 l 751 0 l 675 242 l 296 242 m 599 482 q 486 868 531 699 l 483 868 q 372 482 432 674 l 351 417 l 619 417 l 599 482 m 4 706 l 53 989 l 243 989 l 149 706 l 4 706 z "},"·":{"ha":358,"x_min":72,"x_max":286,"o":"m 72 474 l 72 706 l 286 706 l 286 474 l 72 474 z "},"Έ":{"ha":879,"x_min":-185,"x_max":810,"o":"m 318 814 l 318 590 l 765 590 l 765 417 l 318 417 l 318 175 l 810 175 l 810 0 l 114 0 l 114 989 l 797 989 l 797 814 l 318 814 m -185 706 l -136 989 l 54 989 l -40 706 l -185 706 z "},"Ή":{"ha":1042,"x_min":-185,"x_max":928,"o":"m 724 0 l 724 426 l 318 426 l 318 0 l 114 0 l 114 989 l 318 989 l 318 601 l 724 601 l 724 989 l 928 989 l 928 0 l 724 0 m -185 706 l -136 989 l 54 989 l -40 706 l -185 706 z "},"Ί":{"ha":432,"x_min":-185,"x_max":318,"o":"m 114 0 l 114 989 l 318 989 l 318 0 l 114 0 m -185 706 l -136 989 l 54 989 l -40 706 l -185 706 z "},"Ό":{"ha":1039,"x_min":-125,"x_max":988,"o":"m 519 1011 q 769 949 664 1011 q 931 770 875 886 q 988 494 988 654 q 931 219 988 335 q 769 40 875 103 q 519 -22 664 -22 q 269 40 375 -22 q 108 219 164 103 q 51 494 51 335 q 108 770 51 654 q 269 949 164 886 q 519 1011 375 1011 m 519 831 q 331 741 400 831 q 263 494 263 651 q 331 248 263 338 q 519 158 400 158 q 708 248 639 158 q 776 494 776 338 q 708 741 776 651 q 519 831 639 831 m -125 706 l -76 989 l 114 989 l 19 706 l -125 706 z "},"Ύ":{"ha":886,"x_min":-265,"x_max":882,"o":"m 544 0 l 340 0 l 340 385 l 3 989 l 232 989 l 326 803 q 442 551 389 679 l 444 551 q 560 803 497 679 l 654 989 l 882 989 l 544 385 l 544 0 m -265 706 l -217 989 l -26 989 l -121 706 l -265 706 z "},"Ώ":{"ha":1019,"x_min":-137,"x_max":976,"o":"m 510 1011 q 838 900 715 1011 q 961 575 961 789 q 910 360 961 454 q 768 175 860 267 l 768 172 l 976 172 l 976 0 l 579 0 l 579 181 q 706 349 661 264 q 750 544 750 433 q 685 757 750 683 q 510 831 619 831 q 335 757 400 831 q 269 544 269 683 q 314 349 269 433 q 440 181 358 264 l 440 0 l 43 0 l 43 172 l 251 172 l 251 175 q 109 360 160 267 q 58 575 58 454 q 181 900 58 789 q 510 1011 304 1011 m -137 706 l -89 989 l 101 989 l 7 706 l -137 706 z "},"ΐ":{"ha":439,"x_min":-121,"x_max":490,"o":"m 282 282 q 303 177 282 208 q 374 146 324 146 q 424 153 403 146 l 424 3 q 321 -10 382 -10 q 143 51 199 -10 q 88 247 88 111 l 88 706 l 282 706 l 282 282 m 88 789 l 133 1006 l 294 1006 l 219 789 l 88 789 m -121 806 l -121 968 l 36 968 l 36 806 l -121 806 m 333 806 l 333 968 l 490 968 l 490 806 l 333 806 z "},"Α":{"ha":969,"x_min":4,"x_max":965,"o":"m 296 242 l 218 0 l 4 0 l 347 989 l 622 989 l 965 0 l 751 0 l 675 242 l 296 242 m 599 482 q 486 868 531 699 l 483 868 q 372 482 432 674 l 351 417 l 619 417 l 599 482 z "},"Β":{"ha":903,"x_min":114,"x_max":853,"o":"m 469 989 q 739 921 649 989 q 829 735 829 853 q 787 593 829 650 q 657 504 744 536 l 657 501 q 806 423 758 479 q 853 271 853 367 q 759 73 853 146 q 500 0 665 0 l 114 0 l 114 989 l 469 989 m 318 582 l 463 582 q 592 611 551 582 q 633 704 633 640 q 595 794 633 765 q 472 822 557 822 l 318 822 l 318 582 m 318 168 l 469 168 q 604 198 563 168 q 646 292 646 228 q 603 390 646 360 q 464 421 561 421 l 318 421 l 318 168 z "},"Γ":{"ha":706,"x_min":114,"x_max":692,"o":"m 114 989 l 692 989 l 692 814 l 318 814 l 318 0 l 114 0 l 114 989 z "},"Δ":{"ha":969,"x_min":4,"x_max":965,"o":"m 4 0 l 350 989 l 625 989 l 965 0 l 4 0 m 596 482 q 485 868 536 674 l 482 868 q 369 482 438 699 l 271 175 l 693 175 l 596 482 z "},"Ε":{"ha":879,"x_min":114,"x_max":810,"o":"m 318 814 l 318 590 l 765 590 l 765 417 l 318 417 l 318 175 l 810 175 l 810 0 l 114 0 l 114 989 l 797 989 l 797 814 l 318 814 z "},"Ζ":{"ha":808,"x_min":28,"x_max":781,"o":"m 271 175 l 271 172 l 781 172 l 781 0 l 28 0 l 28 179 l 514 814 l 514 817 l 50 817 l 50 989 l 757 989 l 757 810 l 271 175 z "},"Η":{"ha":1042,"x_min":114,"x_max":928,"o":"m 724 0 l 724 426 l 318 426 l 318 0 l 114 0 l 114 989 l 318 989 l 318 601 l 724 601 l 724 989 l 928 989 l 928 0 l 724 0 z "},"Θ":{"ha":1039,"x_min":51,"x_max":988,"o":"m 519 1011 q 769 949 664 1011 q 931 770 875 886 q 988 496 988 654 q 931 219 988 336 q 769 40 875 103 q 519 -22 664 -22 q 269 40 375 -22 q 108 219 164 103 q 51 496 51 336 q 108 770 51 654 q 269 949 164 886 q 519 1011 375 1011 m 519 839 q 325 747 396 839 q 254 496 254 656 q 325 244 254 336 q 519 153 396 153 q 714 244 643 153 q 785 496 785 336 q 714 747 785 656 q 519 839 643 839 m 335 417 l 335 574 l 704 574 l 704 417 l 335 417 z "},"Ι":{"ha":432,"x_min":114,"x_max":318,"o":"m 114 0 l 114 989 l 318 989 l 318 0 l 114 0 z "},"Κ":{"ha":921,"x_min":114,"x_max":915,"o":"m 915 0 l 656 0 l 321 467 l 318 467 l 318 0 l 114 0 l 114 989 l 318 989 l 318 554 l 321 554 l 644 989 l 883 989 l 507 519 l 915 0 z "},"Λ":{"ha":950,"x_min":4,"x_max":946,"o":"m 725 0 l 581 475 q 476 857 525 654 l 474 857 q 369 475 425 654 l 225 0 l 4 0 l 336 989 l 614 989 l 946 0 l 725 0 z "},"Μ":{"ha":1367,"x_min":114,"x_max":1253,"o":"m 1057 0 l 1057 492 q 1065 863 1057 678 l 1063 863 q 957 499 1017 688 l 800 0 l 567 0 l 410 499 q 304 863 350 688 l 301 863 q 310 492 310 678 l 310 0 l 114 0 l 114 989 l 442 989 l 585 535 q 682 171 643 349 l 685 171 q 782 535 724 349 l 925 989 l 1253 989 l 1253 0 l 1057 0 z "},"Ν":{"ha":1078,"x_min":114,"x_max":964,"o":"m 674 0 l 482 401 q 301 810 376 625 l 299 810 q 310 381 310 581 l 310 0 l 114 0 l 114 989 l 404 989 l 596 588 q 776 179 701 364 l 779 179 q 768 608 768 408 l 768 989 l 964 989 l 964 0 l 674 0 z "},"Ξ":{"ha":938,"x_min":69,"x_max":868,"o":"m 89 785 l 89 989 l 849 989 l 849 785 l 89 785 m 113 396 l 113 600 l 825 600 l 825 396 l 113 396 m 69 0 l 69 204 l 868 204 l 868 0 l 69 0 z "},"Ο":{"ha":1039,"x_min":51,"x_max":988,"o":"m 519 1011 q 769 949 664 1011 q 931 770 875 886 q 988 494 988 654 q 931 219 988 335 q 769 40 875 103 q 519 -22 664 -22 q 269 40 375 -22 q 108 219 164 103 q 51 494 51 335 q 108 770 51 654 q 269 949 164 886 q 519 1011 375 1011 m 519 831 q 331 741 400 831 q 263 494 263 651 q 331 248 263 338 q 519 158 400 158 q 708 248 639 158 q 776 494 776 338 q 708 741 776 651 q 519 831 639 831 z "},"Π":{"ha":1026,"x_min":114,"x_max":913,"o":"m 710 0 l 710 814 l 318 814 l 318 0 l 114 0 l 114 989 l 913 989 l 913 0 l 710 0 z "},"Ρ":{"ha":883,"x_min":114,"x_max":850,"o":"m 488 989 q 757 903 664 989 q 850 669 850 817 q 757 436 850 522 q 488 350 664 350 l 318 350 l 318 0 l 114 0 l 114 989 l 488 989 m 318 519 l 460 519 q 642 669 642 519 q 460 819 642 819 l 318 819 l 318 519 z "},"Σ":{"ha":813,"x_min":32,"x_max":785,"o":"m 294 817 l 294 814 l 528 503 l 274 175 l 274 172 l 785 172 l 785 0 l 32 0 l 32 179 l 283 503 l 47 817 l 47 989 l 765 989 l 765 817 l 294 817 z "},"Τ":{"ha":854,"x_min":14,"x_max":840,"o":"m 529 814 l 529 0 l 325 0 l 325 814 l 14 814 l 14 989 l 840 989 l 840 814 l 529 814 z "},"Υ":{"ha":886,"x_min":3,"x_max":882,"o":"m 544 0 l 340 0 l 340 385 l 3 989 l 232 989 l 326 803 q 442 551 389 679 l 444 551 q 560 803 497 679 l 654 989 l 882 989 l 544 385 l 544 0 z "},"Φ":{"ha":1157,"x_min":51,"x_max":1106,"o":"m 676 935 q 993 811 881 921 q 1106 499 1106 701 q 993 188 1106 297 q 676 63 881 78 l 676 -42 l 481 -42 l 481 63 q 164 190 276 78 q 51 506 51 301 q 164 813 51 706 q 481 935 276 921 l 481 1031 l 676 1031 l 676 935 m 481 767 q 317 693 374 758 q 260 506 260 628 q 317 308 260 378 q 481 231 374 239 l 481 767 m 676 231 q 840 307 782 239 q 897 499 897 375 q 840 691 897 624 q 676 767 782 758 l 676 231 z "},"Χ":{"ha":875,"x_min":4,"x_max":871,"o":"m 871 0 l 633 0 l 439 350 l 436 350 l 242 0 l 4 0 l 314 503 l 19 989 l 253 989 l 436 647 l 439 647 l 622 989 l 856 989 l 561 503 l 871 0 z "},"Ψ":{"ha":1168,"x_min":56,"x_max":1113,"o":"m 1113 672 q 1009 349 1113 456 q 686 226 906 242 l 686 0 l 482 0 l 482 226 q 159 349 263 242 q 56 672 56 456 l 56 989 l 260 989 l 260 678 q 310 476 260 540 q 482 403 361 413 l 482 989 l 686 989 l 686 403 q 858 476 807 413 q 908 678 908 540 l 908 989 l 1113 989 l 1113 672 z "},"Ω":{"ha":1019,"x_min":43,"x_max":976,"o":"m 510 1011 q 838 900 715 1011 q 961 575 961 789 q 910 360 961 454 q 768 175 860 267 l 768 172 l 976 172 l 976 0 l 579 0 l 579 181 q 706 349 661 264 q 750 544 750 433 q 685 757 750 683 q 510 831 619 831 q 335 757 400 831 q 269 544 269 683 q 314 349 269 433 q 440 181 358 264 l 440 0 l 43 0 l 43 172 l 251 172 l 251 175 q 109 360 160 267 q 58 575 58 454 q 181 900 58 789 q 510 1011 304 1011 z "},"Ϊ":{"ha":432,"x_min":-19,"x_max":453,"o":"m 114 0 l 114 989 l 318 989 l 318 0 l 114 0 m -19 1106 l -19 1272 l 151 1272 l 151 1106 l -19 1106 m 282 1106 l 282 1272 l 453 1272 l 453 1106 l 282 1106 z "},"Ϋ":{"ha":886,"x_min":3,"x_max":882,"o":"m 544 0 l 340 0 l 340 385 l 3 989 l 232 989 l 326 803 q 442 551 389 679 l 444 551 q 560 803 497 679 l 654 989 l 882 989 l 544 385 l 544 0 m 207 1068 l 207 1235 l 378 1235 l 378 1068 l 207 1068 m 508 1068 l 508 1235 l 679 1235 l 679 1068 l 508 1068 z "},"ά":{"ha":851,"x_min":49,"x_max":831,"o":"m 342 724 q 460 694 406 724 q 547 608 514 664 l 550 608 q 561 706 553 660 l 750 706 q 736 456 736 606 l 736 233 q 751 160 736 181 q 797 140 765 140 q 831 144 814 140 l 831 6 q 713 -11 781 -11 q 553 99 578 -11 l 550 99 q 461 13 518 43 q 339 -18 404 -18 q 185 28 251 -18 q 84 158 119 74 q 49 353 49 242 q 85 548 49 464 q 188 678 121 632 q 342 724 254 724 m 404 575 q 293 515 335 575 q 251 353 251 454 q 293 191 251 251 q 404 131 335 131 q 511 190 471 131 q 551 353 551 249 q 511 516 551 457 q 404 575 471 575 m 325 789 l 374 1017 l 564 1017 l 469 789 l 325 789 z "},"έ":{"ha":719,"x_min":50,"x_max":676,"o":"m 351 728 q 580 663 497 728 q 663 479 663 597 l 469 479 q 440 558 469 531 q 356 585 410 585 q 283 564 310 585 q 256 507 256 543 q 287 446 256 468 q 372 424 318 424 l 442 424 l 442 283 l 372 283 q 242 199 242 283 q 272 142 242 163 q 353 121 303 121 q 482 232 482 121 l 676 232 q 593 42 676 107 q 353 -22 510 -22 q 132 34 214 -22 q 50 190 50 90 q 84 300 50 258 q 193 364 118 342 l 193 367 q 97 428 126 390 q 67 524 67 465 q 144 674 67 619 q 351 728 221 728 m 275 789 l 324 1017 l 514 1017 l 419 789 l 275 789 z "},"ή":{"ha":856,"x_min":21,"x_max":768,"o":"m 518 724 q 702 649 636 724 q 768 432 768 575 l 768 -257 l 574 -257 l 574 408 q 542 531 574 489 q 451 572 511 572 q 350 522 389 572 q 311 381 311 471 l 311 0 l 117 0 l 117 468 q 102 548 117 525 q 56 571 88 571 q 21 567 35 571 l 21 699 q 133 717 79 717 q 238 687 200 717 q 289 589 275 657 l 292 589 q 385 688 326 653 q 518 724 444 724 m 304 789 l 353 1017 l 543 1017 l 449 789 l 304 789 z "},"ί":{"ha":439,"x_min":88,"x_max":424,"o":"m 282 282 q 303 177 282 208 q 374 146 324 146 q 424 153 403 146 l 424 3 q 321 -10 382 -10 q 143 51 199 -10 q 88 247 88 111 l 88 706 l 282 706 l 282 282 m 111 789 l 160 1017 l 350 1017 l 256 789 l 111 789 z "},"ΰ":{"ha":836,"x_min":18,"x_max":768,"o":"m 131 717 q 266 668 222 717 q 310 500 310 619 l 310 268 q 340 162 310 194 q 429 129 369 129 q 575 363 575 129 q 526 706 575 551 l 715 706 q 768 347 768 544 q 685 73 768 168 q 432 -22 601 -22 q 194 44 274 -22 q 114 251 114 110 l 114 454 q 100 542 114 518 q 53 565 86 565 q 18 561 33 565 l 18 699 q 131 717 76 717 m 304 789 l 350 1006 l 511 1006 l 436 789 l 304 789 m 96 806 l 96 968 l 253 968 l 253 806 l 96 806 m 550 806 l 550 968 l 707 968 l 707 806 l 550 806 z "},"α":{"ha":851,"x_min":49,"x_max":831,"o":"m 342 724 q 460 694 406 724 q 547 608 514 664 l 550 608 q 561 706 553 660 l 750 706 q 736 456 736 606 l 736 233 q 751 160 736 181 q 797 140 765 140 q 831 144 814 140 l 831 6 q 713 -11 781 -11 q 553 99 578 -11 l 550 99 q 461 13 518 43 q 339 -18 404 -18 q 185 28 251 -18 q 84 158 119 74 q 49 353 49 242 q 85 548 49 464 q 188 678 121 632 q 342 724 254 724 m 404 575 q 293 515 335 575 q 251 353 251 454 q 293 191 251 251 q 404 131 335 131 q 511 190 471 131 q 551 353 551 249 q 511 516 551 457 q 404 575 471 575 z "},"β":{"ha":842,"x_min":94,"x_max":796,"o":"m 426 1011 q 660 943 574 1011 q 746 760 746 875 q 568 535 746 583 l 568 532 q 796 271 796 485 q 712 63 796 139 q 482 -14 628 -14 q 367 6 415 -14 q 292 64 318 26 l 289 64 l 289 -257 l 94 -257 l 96 668 q 182 922 96 832 q 426 1011 268 1011 m 432 867 q 323 820 357 867 q 289 674 289 774 l 289 269 q 326 167 289 204 q 436 131 363 131 q 554 173 511 131 q 597 290 597 215 q 545 412 597 372 q 390 451 493 451 l 371 451 l 371 603 l 390 603 q 519 638 475 603 q 563 740 563 674 q 528 833 563 800 q 432 867 494 867 z "},"γ":{"ha":772,"x_min":11,"x_max":758,"o":"m 758 706 q 672 349 738 507 q 478 8 607 190 l 478 -8 q 474 -133 478 -60 q 463 -257 469 -206 l 268 -257 q 279 -133 275 -206 q 283 -8 283 -60 q 252 217 283 86 q 165 458 221 347 q 106 547 133 524 q 43 571 78 571 q 11 568 31 571 l 11 703 q 113 718 60 718 q 228 683 182 718 q 317 557 274 649 q 378 390 353 479 q 414 219 403 300 l 417 219 q 512 454 478 339 q 557 706 546 569 l 758 706 z "},"δ":{"ha":819,"x_min":49,"x_max":771,"o":"m 404 1003 q 693 967 561 1003 l 693 807 q 560 847 629 833 q 429 861 490 861 q 365 851 382 861 q 347 822 347 842 q 381 775 347 799 q 503 706 415 751 q 703 546 635 638 q 771 319 771 454 q 726 138 771 215 q 600 19 682 61 q 410 -22 518 -22 q 220 19 301 -22 q 94 138 139 61 q 49 318 49 214 q 113 519 49 436 q 297 643 178 603 l 297 646 q 178 742 215 699 q 142 840 142 785 q 404 1003 142 1003 m 406 558 q 293 469 333 529 q 253 318 253 408 q 296 178 253 231 q 410 126 339 126 q 524 179 481 126 q 567 322 567 232 q 406 558 567 486 z "},"ε":{"ha":719,"x_min":50,"x_max":676,"o":"m 351 728 q 580 663 497 728 q 663 479 663 597 l 469 479 q 440 558 469 531 q 356 585 410 585 q 283 564 310 585 q 256 507 256 543 q 287 446 256 468 q 372 424 318 424 l 442 424 l 442 283 l 372 283 q 242 199 242 283 q 272 142 242 163 q 353 121 303 121 q 482 232 482 121 l 676 232 q 593 42 676 107 q 353 -22 510 -22 q 132 34 214 -22 q 50 190 50 90 q 84 300 50 258 q 193 364 118 342 l 193 367 q 97 428 126 390 q 67 524 67 465 q 144 674 67 619 q 351 728 221 728 z "},"ζ":{"ha":669,"x_min":49,"x_max":650,"o":"m 642 849 q 251 333 251 628 q 299 209 251 251 q 464 149 346 167 q 610 83 569 132 q 650 -53 650 33 q 611 -201 650 -131 l 457 -201 q 479 -103 479 -153 q 451 -30 479 -56 q 340 6 422 -4 q 115 92 181 25 q 49 290 49 160 q 147 595 49 453 q 415 846 244 738 l 415 849 l 85 849 l 85 989 l 642 989 l 642 849 z "},"η":{"ha":856,"x_min":21,"x_max":768,"o":"m 518 724 q 702 649 636 724 q 768 432 768 575 l 768 -257 l 574 -257 l 574 408 q 542 531 574 489 q 451 572 511 572 q 350 522 389 572 q 311 381 311 471 l 311 0 l 117 0 l 117 468 q 102 548 117 525 q 56 571 88 571 q 21 567 35 571 l 21 699 q 133 717 79 717 q 238 687 200 717 q 289 589 275 657 l 292 589 q 385 688 326 653 q 518 724 444 724 z "},"θ":{"ha":865,"x_min":50,"x_max":815,"o":"m 432 1008 q 716 874 617 1008 q 815 494 815 740 q 716 115 815 249 q 432 -19 617 -19 q 149 115 249 -19 q 50 494 50 249 q 149 874 50 740 q 432 1008 249 1008 m 432 867 q 304 788 351 867 q 249 563 257 710 l 614 563 q 558 788 606 710 q 432 867 511 867 m 432 122 q 558 201 511 122 q 614 426 606 279 l 249 426 q 304 201 257 279 q 432 122 351 122 z "},"ι":{"ha":439,"x_min":88,"x_max":424,"o":"m 282 282 q 303 177 282 208 q 374 146 324 146 q 424 153 403 146 l 424 3 q 321 -10 382 -10 q 143 51 199 -10 q 88 247 88 111 l 88 706 l 282 706 l 282 282 z "},"κ":{"ha":778,"x_min":89,"x_max":796,"o":"m 343 254 l 283 188 l 283 0 l 89 0 l 89 706 l 283 706 l 283 404 l 286 404 l 411 550 q 553 680 492 644 q 694 715 615 715 q 761 706 728 715 l 761 546 q 715 553 740 553 q 599 515 656 553 q 461 389 542 478 l 796 0 l 563 0 l 343 254 z "},"λ":{"ha":829,"x_min":-10,"x_max":819,"o":"m 208 1001 q 335 977 283 1001 q 428 891 386 953 q 514 714 471 829 l 679 276 q 738 163 711 192 q 800 135 765 135 q 819 138 808 135 l 819 0 q 739 -11 783 -11 q 642 6 681 -11 q 572 66 603 22 q 513 192 540 110 q 403 501 475 293 l 401 501 q 286 213 347 360 l 199 0 l -10 0 l 306 699 q 243 817 275 785 q 161 850 211 850 q 93 839 122 850 l 93 983 q 208 1001 138 1001 z "},"μ":{"ha":851,"x_min":94,"x_max":838,"o":"m 743 233 q 758 160 743 181 q 804 140 772 140 q 838 144 821 140 l 838 6 q 719 -11 788 -11 q 565 101 590 -11 l 563 101 q 498 21 543 50 q 394 -8 453 -8 q 289 21 326 -8 l 289 -257 l 94 -257 l 94 706 l 289 706 l 289 292 q 320 175 289 214 q 410 136 351 136 q 510 185 472 136 q 549 328 549 235 l 549 706 l 743 706 l 743 233 z "},"ν":{"ha":753,"x_min":8,"x_max":731,"o":"m 104 717 q 233 667 183 717 q 308 504 283 617 l 389 147 l 392 147 q 505 444 474 333 q 536 651 536 556 q 532 706 536 681 l 724 706 q 731 640 731 678 q 713 483 731 561 q 649 295 694 406 q 513 0 603 185 l 254 0 l 126 449 q 87 545 107 519 q 35 571 67 571 q 8 567 18 571 l 8 699 q 104 717 49 717 z "},"ξ":{"ha":676,"x_min":49,"x_max":660,"o":"m 521 849 q 347 810 406 849 q 288 697 288 771 q 334 608 288 639 q 458 578 381 578 l 601 578 l 601 439 l 475 439 q 306 398 361 439 q 251 288 251 357 q 300 194 251 225 q 474 147 349 163 q 619 84 579 133 q 660 -53 660 35 q 621 -201 660 -131 l 467 -201 q 490 -103 490 -150 q 456 -27 490 -54 q 325 10 421 0 q 115 85 182 24 q 49 253 49 146 q 260 504 49 453 l 260 507 q 151 571 189 526 q 113 683 113 615 q 224 846 113 810 l 224 849 l 79 849 l 79 989 l 656 989 l 656 849 l 521 849 z "},"ο":{"ha":819,"x_min":49,"x_max":771,"o":"m 410 728 q 601 682 519 728 q 726 551 682 636 q 771 353 771 467 q 726 154 771 239 q 601 24 682 69 q 410 -22 519 -22 q 219 24 300 -22 q 93 154 138 69 q 49 353 49 239 q 93 551 49 467 q 219 682 138 636 q 410 728 300 728 m 410 578 q 295 517 338 578 q 253 353 253 456 q 295 189 253 250 q 410 128 338 128 q 524 189 482 128 q 567 353 567 250 q 524 517 567 456 q 410 578 482 578 z "},"π":{"ha":933,"x_min":13,"x_max":908,"o":"m 769 561 l 769 240 q 789 158 769 181 q 849 135 808 135 q 888 140 875 135 l 888 3 q 776 -11 842 -11 q 624 40 674 -11 q 575 214 575 92 l 575 561 l 336 561 l 336 0 l 142 0 l 142 561 l 13 561 l 13 706 l 908 706 l 908 561 l 769 561 z "},"ρ":{"ha":836,"x_min":88,"x_max":788,"o":"m 433 728 q 621 681 540 728 q 744 548 701 635 q 788 344 788 461 q 747 153 788 235 q 633 28 707 72 q 457 -17 558 -17 q 353 2 399 -17 q 285 54 308 21 l 282 54 l 282 -257 l 88 -257 l 88 353 q 130 551 88 467 q 251 682 172 636 q 433 728 329 728 m 422 576 q 312 516 353 576 q 271 353 271 456 q 312 192 271 251 q 422 132 353 132 q 541 191 499 132 q 583 353 583 250 q 541 517 583 457 q 422 576 499 576 z "},"ς":{"ha":767,"x_min":43,"x_max":738,"o":"m 394 728 q 640 647 553 728 q 738 426 728 565 l 536 426 q 494 538 531 497 q 394 579 457 579 q 286 528 325 579 q 247 383 247 476 q 301 236 247 289 q 472 167 356 183 q 630 97 586 150 q 674 -53 674 43 q 635 -201 674 -131 l 479 -201 q 503 -103 503 -154 q 469 -20 503 -49 q 338 19 435 8 q 117 122 190 35 q 43 364 43 208 q 137 631 43 535 q 394 728 231 728 z "},"σ":{"ha":861,"x_min":49,"x_max":847,"o":"m 667 565 l 667 563 q 741 468 715 526 q 767 333 767 410 q 723 144 767 225 q 599 21 679 64 q 410 -22 518 -22 q 219 22 300 -22 q 93 149 138 67 q 49 343 49 232 q 93 536 49 454 q 219 662 138 618 q 410 706 300 706 l 847 706 l 847 565 l 667 565 m 408 568 q 294 510 335 568 q 253 347 253 453 q 294 185 253 243 q 408 128 335 128 q 526 185 485 128 q 567 347 567 243 q 526 510 567 453 q 408 568 485 568 z "},"τ":{"ha":650,"x_min":13,"x_max":638,"o":"m 414 565 l 414 240 q 433 158 414 181 q 493 135 453 135 q 532 140 519 135 l 532 3 q 421 -11 486 -11 q 269 40 318 -11 q 219 214 219 92 l 219 565 l 13 565 l 13 706 l 638 706 l 638 565 l 414 565 z "},"υ":{"ha":836,"x_min":18,"x_max":768,"o":"m 131 717 q 266 668 222 717 q 310 500 310 619 l 310 268 q 340 162 310 194 q 429 129 369 129 q 575 363 575 129 q 526 706 575 551 l 715 706 q 768 347 768 544 q 685 73 768 168 q 432 -22 601 -22 q 194 44 274 -22 q 114 251 114 110 l 114 454 q 100 542 114 518 q 53 565 86 565 q 18 561 33 565 l 18 699 q 131 717 76 717 z "},"φ":{"ha":1104,"x_min":49,"x_max":1056,"o":"m 1056 353 q 945 84 1056 183 q 644 -22 835 -15 l 644 -257 l 460 -257 l 460 -22 q 159 84 269 -15 q 49 353 49 183 q 159 622 49 522 q 460 728 269 721 l 460 919 l 644 919 l 644 728 q 945 622 835 721 q 1056 353 1056 522 m 246 353 q 301 183 246 244 q 460 117 357 122 l 460 589 q 301 522 357 583 q 246 353 246 461 m 644 117 q 802 183 747 122 q 857 353 857 244 q 802 522 857 461 q 644 589 747 583 l 644 117 z "},"χ":{"ha":835,"x_min":-1,"x_max":831,"o":"m 124 724 q 260 685 211 724 q 351 551 310 647 l 425 385 l 428 385 l 617 706 l 831 706 l 531 222 l 638 -4 q 701 -99 671 -75 q 774 -122 731 -122 q 818 -118 797 -122 l 818 -250 q 707 -268 768 -268 q 574 -230 624 -268 q 481 -94 525 -192 l 414 54 l 411 54 l 213 -257 l -1 -257 l 313 213 l 199 456 q 135 553 165 528 q 60 578 106 578 q 11 571 35 578 l 11 703 q 64 718 33 713 q 124 724 94 724 z "},"ψ":{"ha":1143,"x_min":88,"x_max":1074,"o":"m 1074 360 q 974 92 1074 188 q 674 -12 875 -3 l 674 -257 l 479 -257 l 479 -12 q 186 75 285 -6 q 88 319 88 156 l 88 706 l 282 706 l 282 339 q 331 191 282 240 q 479 133 381 142 l 479 919 l 674 919 l 674 135 q 879 375 879 156 q 825 706 879 560 l 1017 706 q 1074 360 1074 551 z "},"ω":{"ha":1156,"x_min":69,"x_max":1086,"o":"m 996 706 q 1063 517 1040 618 q 1086 311 1086 417 q 1017 66 1086 151 q 807 -19 947 -19 q 579 126 621 -19 l 576 126 q 349 -19 535 -19 q 139 66 208 -19 q 69 311 69 151 q 92 517 69 417 q 160 706 115 618 l 363 706 q 294 528 318 624 q 271 333 271 432 q 299 179 271 232 q 386 126 326 126 q 481 254 481 126 l 481 538 l 675 538 l 675 254 q 769 126 675 126 q 885 333 885 126 q 861 528 885 432 q 793 706 838 624 l 996 706 z "},"ϊ":{"ha":439,"x_min":-51,"x_max":424,"o":"m 282 282 q 303 177 282 208 q 374 146 324 146 q 424 153 403 146 l 424 3 q 321 -10 382 -10 q 143 51 199 -10 q 88 247 88 111 l 88 706 l 282 706 l 282 282 m -51 822 l -51 989 l 119 989 l 119 822 l -51 822 m 250 822 l 250 989 l 421 989 l 421 822 l 250 822 z "},"ϋ":{"ha":836,"x_min":18,"x_max":768,"o":"m 131 717 q 266 668 222 717 q 310 500 310 619 l 310 268 q 340 162 310 194 q 429 129 369 129 q 575 363 575 129 q 526 706 575 551 l 715 706 q 768 347 768 544 q 685 73 768 168 q 432 -22 601 -22 q 194 44 274 -22 q 114 251 114 110 l 114 454 q 100 542 114 518 q 53 565 86 565 q 18 561 33 565 l 18 699 q 131 717 76 717 m 165 822 l 165 989 l 336 989 l 336 822 l 165 822 m 467 822 l 467 989 l 638 989 l 638 822 l 467 822 z "},"ό":{"ha":819,"x_min":49,"x_max":771,"o":"m 410 728 q 601 682 519 728 q 726 551 682 636 q 771 353 771 467 q 726 154 771 239 q 601 24 682 69 q 410 -22 519 -22 q 219 24 300 -22 q 93 154 138 69 q 49 353 49 239 q 93 551 49 467 q 219 682 138 636 q 410 728 300 728 m 410 578 q 295 517 338 578 q 253 353 253 456 q 295 189 253 250 q 410 128 338 128 q 524 189 482 128 q 567 353 567 250 q 524 517 567 456 q 410 578 482 578 m 336 789 l 385 1017 l 575 1017 l 481 789 l 336 789 z "},"ύ":{"ha":836,"x_min":18,"x_max":768,"o":"m 131 717 q 266 668 222 717 q 310 500 310 619 l 310 268 q 340 162 310 194 q 429 129 369 129 q 575 363 575 129 q 526 706 575 551 l 715 706 q 768 347 768 544 q 685 73 768 168 q 432 -22 601 -22 q 194 44 274 -22 q 114 251 114 110 l 114 454 q 100 542 114 518 q 53 565 86 565 q 18 561 33 565 l 18 699 q 131 717 76 717 m 328 789 l 376 1017 l 567 1017 l 472 789 l 328 789 z "},"ώ":{"ha":1156,"x_min":69,"x_max":1086,"o":"m 996 706 q 1063 517 1040 618 q 1086 311 1086 417 q 1017 66 1086 151 q 807 -19 947 -19 q 579 126 621 -19 l 576 126 q 349 -19 535 -19 q 139 66 208 -19 q 69 311 69 151 q 92 517 69 417 q 160 706 115 618 l 363 706 q 294 528 318 624 q 271 333 271 432 q 299 179 271 232 q 386 126 326 126 q 481 254 481 126 l 481 538 l 675 538 l 675 254 q 769 126 675 126 q 885 333 885 126 q 861 528 885 432 q 793 706 838 624 l 996 706 m 504 789 l 553 1017 l 743 1017 l 649 789 l 504 789 z "},"Ѐ":{"ha":879,"x_min":114,"x_max":810,"o":"m 318 814 l 318 590 l 765 590 l 765 417 l 318 417 l 318 175 l 810 175 l 810 0 l 114 0 l 114 989 l 797 989 l 797 814 l 318 814 m 574 1056 l 421 1056 l 226 1258 l 467 1258 l 574 1056 z "},"Ё":{"ha":879,"x_min":114,"x_max":810,"o":"m 318 814 l 318 590 l 765 590 l 765 417 l 318 417 l 318 175 l 810 175 l 810 0 l 114 0 l 114 989 l 797 989 l 797 814 l 318 814 m 219 1068 l 219 1235 l 390 1235 l 390 1068 l 219 1068 m 521 1068 l 521 1235 l 692 1235 l 692 1068 l 521 1068 z "},"Ђ":{"ha":1114,"x_min":14,"x_max":1081,"o":"m 529 814 l 529 596 q 740 642 621 642 q 991 554 901 642 q 1081 310 1081 467 q 992 71 1081 160 q 747 -18 903 -18 q 618 0 672 -18 l 618 169 q 717 157 663 157 q 876 308 876 157 q 703 467 876 467 q 529 426 604 467 l 529 0 l 325 0 l 325 814 l 14 814 l 14 989 l 840 989 l 840 814 l 529 814 z "},"Ѓ":{"ha":706,"x_min":114,"x_max":692,"o":"m 114 989 l 692 989 l 692 814 l 318 814 l 318 0 l 114 0 l 114 989 m 285 1056 l 392 1258 l 632 1258 l 438 1056 l 285 1056 z "},"Є":{"ha":988,"x_min":51,"x_max":932,"o":"m 932 347 q 805 75 917 172 q 508 -22 693 -22 q 265 40 368 -22 q 106 219 161 103 q 51 494 51 335 q 107 769 51 653 q 267 949 163 886 q 513 1011 371 1011 q 726 965 635 1011 q 871 836 818 919 q 928 646 924 753 l 722 646 q 656 781 711 732 q 513 831 601 831 q 350 765 414 831 q 268 582 286 699 l 613 582 l 613 407 l 268 407 q 349 224 286 289 q 508 158 411 158 q 654 208 599 158 q 722 347 710 257 l 932 347 z "},"Ѕ":{"ha":875,"x_min":39,"x_max":825,"o":"m 418 1011 q 698 928 603 1011 q 793 686 793 846 l 586 686 q 542 806 586 764 q 414 849 497 849 q 304 819 346 849 q 263 740 263 789 q 283 679 263 703 q 349 638 304 656 q 478 600 393 621 q 664 541 593 571 q 780 451 735 511 q 825 290 825 392 q 776 126 825 197 q 640 17 728 56 q 439 -22 553 -22 q 145 68 251 -22 q 39 325 39 158 l 250 325 q 299 189 250 235 q 442 143 347 143 q 566 177 519 143 q 613 269 613 211 q 592 335 613 311 q 532 374 571 360 q 408 410 493 388 q 217 469 288 440 q 99 558 146 499 q 53 718 53 617 q 99 871 53 804 q 228 974 144 938 q 418 1011 311 1011 z "},"І":{"ha":432,"x_min":114,"x_max":318,"o":"m 114 0 l 114 989 l 318 989 l 318 0 l 114 0 z "},"Ї":{"ha":432,"x_min":-19,"x_max":453,"o":"m 114 0 l 114 989 l 318 989 l 318 0 l 114 0 m -19 1068 l -19 1235 l 151 1235 l 151 1068 l -19 1068 m 282 1068 l 282 1235 l 453 1235 l 453 1068 l 282 1068 z "},"Ј":{"ha":544,"x_min":21,"x_max":438,"o":"m 438 315 q 359 69 438 147 q 111 -10 281 -10 q 21 1 58 -10 l 21 175 q 86 168 58 168 q 170 184 139 168 q 217 241 201 200 q 233 358 233 282 l 233 989 l 438 989 l 438 315 z "},"Љ":{"ha":1472,"x_min":15,"x_max":1439,"o":"m 1076 639 q 1346 553 1253 639 q 1439 319 1439 467 q 1346 86 1439 172 q 1076 0 1253 0 l 703 0 l 703 814 l 425 814 q 378 292 414 467 q 274 54 342 117 q 83 -8 207 -8 q 15 0 43 -8 l 15 167 q 40 164 26 164 q 146 224 110 164 q 201 458 182 285 q 229 989 219 631 l 907 989 l 907 639 l 1076 639 m 907 169 l 1049 169 q 1231 319 1231 169 q 1049 469 1231 469 l 907 469 l 907 169 z "},"Њ":{"ha":1493,"x_min":114,"x_max":1460,"o":"m 1097 639 q 1367 553 1274 639 q 1460 319 1460 467 q 1367 86 1460 172 q 1097 0 1274 0 l 724 0 l 724 426 l 318 426 l 318 0 l 114 0 l 114 989 l 318 989 l 318 601 l 724 601 l 724 989 l 928 989 l 928 639 l 1097 639 m 1069 169 q 1251 319 1251 169 q 1069 469 1251 469 l 928 469 l 928 169 l 1069 169 z "},"Ћ":{"ha":1113,"x_min":14,"x_max":1067,"o":"m 757 608 q 987 530 907 608 q 1067 304 1067 451 l 1067 0 l 863 0 l 863 264 q 822 390 863 346 q 703 433 781 433 q 529 408 603 433 l 529 0 l 325 0 l 325 814 l 14 814 l 14 989 l 840 989 l 840 814 l 529 814 l 529 576 q 757 608 628 608 z "},"Ќ":{"ha":921,"x_min":114,"x_max":915,"o":"m 915 0 l 656 0 l 321 467 l 318 467 l 318 0 l 114 0 l 114 989 l 318 989 l 318 554 l 321 554 l 644 989 l 883 989 l 507 519 l 915 0 m 343 1056 l 450 1258 l 690 1258 l 496 1056 l 343 1056 z "},"Ѝ":{"ha":1078,"x_min":114,"x_max":964,"o":"m 310 608 q 299 179 310 408 l 301 179 q 482 588 376 364 l 674 989 l 964 989 l 964 0 l 768 0 l 768 381 q 779 810 768 581 l 776 810 q 596 401 701 625 l 404 0 l 114 0 l 114 989 l 310 989 l 310 608 m 643 1056 l 490 1056 l 296 1258 l 536 1258 l 643 1056 z "},"Ў":{"ha":947,"x_min":3,"x_max":944,"o":"m 558 194 q 433 35 503 82 q 267 -12 363 -12 q 153 0 197 -12 l 153 171 q 221 163 179 163 q 310 189 276 163 q 343 265 343 215 q 334 316 343 293 q 278 433 325 339 l 3 989 l 224 989 l 350 704 q 474 418 419 550 l 476 418 q 597 704 535 565 l 724 989 l 944 989 l 558 194 m 717 1258 q 647 1103 711 1158 q 474 1049 582 1049 q 301 1103 365 1049 q 231 1258 236 1158 l 363 1258 q 395 1193 365 1217 q 474 1169 425 1169 q 552 1193 522 1169 q 585 1258 582 1217 l 717 1258 z "},"Џ":{"ha":1028,"x_min":114,"x_max":914,"o":"m 604 0 l 604 -222 l 410 -222 l 410 0 l 114 0 l 114 989 l 318 989 l 318 175 l 710 175 l 710 989 l 914 989 l 914 0 l 604 0 z "},"А":{"ha":969,"x_min":4,"x_max":965,"o":"m 296 242 l 218 0 l 4 0 l 347 989 l 622 989 l 965 0 l 751 0 l 675 242 l 296 242 m 599 482 q 486 868 531 699 l 483 868 q 372 482 432 674 l 351 417 l 619 417 l 599 482 z "},"Б":{"ha":924,"x_min":114,"x_max":872,"o":"m 318 819 l 318 615 l 522 615 q 779 533 686 615 q 872 307 872 450 q 780 82 872 164 q 522 0 688 0 l 114 0 l 114 989 l 810 989 l 810 819 l 318 819 m 318 169 l 482 169 q 663 307 663 169 q 617 410 663 375 q 482 446 572 446 l 318 446 l 318 169 z "},"В":{"ha":903,"x_min":114,"x_max":853,"o":"m 469 989 q 739 921 649 989 q 829 735 829 853 q 787 593 829 650 q 657 504 744 536 l 657 501 q 806 423 758 479 q 853 271 853 367 q 759 73 853 146 q 500 0 665 0 l 114 0 l 114 989 l 469 989 m 318 582 l 463 582 q 592 611 551 582 q 633 704 633 640 q 595 794 633 765 q 472 822 557 822 l 318 822 l 318 582 m 318 168 l 469 168 q 604 198 563 168 q 646 292 646 228 q 603 390 646 360 q 464 421 561 421 l 318 421 l 318 168 z "},"Г":{"ha":706,"x_min":114,"x_max":692,"o":"m 114 989 l 692 989 l 692 814 l 318 814 l 318 0 l 114 0 l 114 989 z "},"Д":{"ha":1103,"x_min":28,"x_max":1083,"o":"m 1083 -222 l 889 -222 l 889 0 l 222 0 l 222 -222 l 28 -222 l 28 175 l 146 175 q 213 444 189 264 q 243 989 238 624 l 958 989 l 958 175 l 1083 175 l 1083 -222 m 439 814 q 358 175 426 378 l 754 175 l 754 814 l 439 814 z "},"Е":{"ha":879,"x_min":114,"x_max":810,"o":"m 318 814 l 318 590 l 765 590 l 765 417 l 318 417 l 318 175 l 810 175 l 810 0 l 114 0 l 114 989 l 797 989 l 797 814 l 318 814 z "},"Ж":{"ha":1275,"x_min":6,"x_max":1269,"o":"m 1269 0 l 1028 0 l 740 494 l 738 494 l 738 0 l 538 0 l 538 494 l 535 494 l 247 0 l 6 0 l 346 519 l 40 989 l 275 989 l 535 526 l 538 526 l 538 989 l 738 989 l 738 526 l 740 526 l 1000 989 l 1235 989 l 929 519 l 1269 0 z "},"З":{"ha":883,"x_min":36,"x_max":833,"o":"m 444 1010 q 718 936 619 1010 q 817 732 817 863 q 775 596 817 649 q 643 511 733 543 l 643 508 q 788 418 742 476 q 833 265 833 360 q 785 113 833 178 q 649 13 736 49 q 446 -22 561 -22 q 142 66 247 -22 q 36 322 36 154 l 253 322 q 301 194 253 238 q 446 150 350 150 q 568 184 522 150 q 614 275 614 218 q 563 376 614 343 q 404 410 511 410 l 340 410 l 340 578 l 404 578 q 549 614 496 578 q 601 711 601 650 q 557 803 601 768 q 438 838 513 838 q 268 674 268 838 l 49 674 q 152 922 49 833 q 444 1010 256 1010 z "},"И":{"ha":1078,"x_min":114,"x_max":964,"o":"m 310 608 q 299 179 310 408 l 301 179 q 482 588 376 364 l 674 989 l 964 989 l 964 0 l 768 0 l 768 381 q 779 810 768 581 l 776 810 q 596 401 701 625 l 404 0 l 114 0 l 114 989 l 310 989 l 310 608 z "},"Й":{"ha":1078,"x_min":114,"x_max":964,"o":"m 310 608 q 299 179 310 408 l 301 179 q 482 588 376 364 l 674 989 l 964 989 l 964 0 l 768 0 l 768 381 q 779 810 768 581 l 776 810 q 596 401 701 625 l 404 0 l 114 0 l 114 989 l 310 989 l 310 608 m 768 1258 q 698 1103 763 1158 q 525 1049 633 1049 q 352 1103 417 1049 q 282 1258 288 1158 l 414 1258 q 447 1193 417 1217 q 525 1169 476 1169 q 603 1193 574 1169 q 636 1258 633 1217 l 768 1258 z "},"К":{"ha":921,"x_min":114,"x_max":915,"o":"m 915 0 l 656 0 l 321 467 l 318 467 l 318 0 l 114 0 l 114 989 l 318 989 l 318 554 l 321 554 l 644 989 l 883 989 l 507 519 l 915 0 z "},"Л":{"ha":1021,"x_min":15,"x_max":907,"o":"m 703 0 l 703 814 l 425 814 q 378 292 414 467 q 274 54 342 117 q 83 -8 207 -8 q 15 0 43 -8 l 15 167 q 40 164 26 164 q 146 224 110 164 q 201 458 182 285 q 229 989 219 631 l 907 989 l 907 0 l 703 0 z "},"М":{"ha":1367,"x_min":114,"x_max":1253,"o":"m 1057 0 l 1057 492 q 1065 863 1057 678 l 1063 863 q 957 499 1017 688 l 800 0 l 567 0 l 410 499 q 304 863 350 688 l 301 863 q 310 492 310 678 l 310 0 l 114 0 l 114 989 l 442 989 l 585 535 q 682 171 643 349 l 685 171 q 782 535 724 349 l 925 989 l 1253 989 l 1253 0 l 1057 0 z "},"Н":{"ha":1042,"x_min":114,"x_max":928,"o":"m 724 0 l 724 426 l 318 426 l 318 0 l 114 0 l 114 989 l 318 989 l 318 601 l 724 601 l 724 989 l 928 989 l 928 0 l 724 0 z "},"О":{"ha":1039,"x_min":51,"x_max":988,"o":"m 519 1011 q 769 949 664 1011 q 931 770 875 886 q 988 494 988 654 q 931 219 988 335 q 769 40 875 103 q 519 -22 664 -22 q 269 40 375 -22 q 108 219 164 103 q 51 494 51 335 q 108 770 51 654 q 269 949 164 886 q 519 1011 375 1011 m 519 831 q 331 741 400 831 q 263 494 263 651 q 331 248 263 338 q 519 158 400 158 q 708 248 639 158 q 776 494 776 338 q 708 741 776 651 q 519 831 639 831 z "},"П":{"ha":1026,"x_min":114,"x_max":913,"o":"m 710 0 l 710 814 l 318 814 l 318 0 l 114 0 l 114 989 l 913 989 l 913 0 l 710 0 z "},"Р":{"ha":883,"x_min":114,"x_max":850,"o":"m 488 989 q 757 903 664 989 q 850 669 850 817 q 757 436 850 522 q 488 350 664 350 l 318 350 l 318 0 l 114 0 l 114 989 l 488 989 m 318 519 l 460 519 q 642 669 642 519 q 460 819 642 819 l 318 819 l 318 519 z "},"С":{"ha":974,"x_min":51,"x_max":918,"o":"m 504 1011 q 716 965 625 1011 q 858 836 807 919 q 914 646 910 753 l 708 646 q 644 781 699 732 q 504 831 590 831 q 327 741 392 831 q 263 494 263 651 q 326 248 263 338 q 500 158 389 158 q 642 208 588 158 q 708 347 697 257 l 918 347 q 793 75 904 172 q 500 -22 682 -22 q 261 40 363 -22 q 106 219 160 103 q 51 494 51 335 q 106 769 51 653 q 263 949 161 886 q 504 1011 365 1011 z "},"Т":{"ha":854,"x_min":14,"x_max":840,"o":"m 529 814 l 529 0 l 325 0 l 325 814 l 14 814 l 14 989 l 840 989 l 840 814 l 529 814 z "},"У":{"ha":947,"x_min":3,"x_max":944,"o":"m 558 194 q 433 35 503 82 q 267 -12 363 -12 q 153 0 197 -12 l 153 171 q 221 163 179 163 q 310 189 276 163 q 343 265 343 215 q 334 316 343 293 q 278 433 325 339 l 3 989 l 224 989 l 350 704 q 474 418 419 550 l 476 418 q 597 704 535 565 l 724 989 l 944 989 l 558 194 z "},"Ф":{"ha":1197,"x_min":51,"x_max":1146,"o":"m 1146 494 q 1030 193 1146 303 q 697 71 914 83 l 697 -36 l 499 -36 l 499 71 q 167 193 283 83 q 51 494 51 303 q 167 796 51 686 q 499 918 283 906 l 499 1025 l 697 1025 l 697 918 q 1030 796 914 906 q 1146 494 1146 686 m 697 240 q 873 319 811 253 q 935 494 935 385 q 873 670 935 604 q 697 749 811 736 l 697 240 m 263 494 q 324 319 263 385 q 499 240 385 254 l 499 749 q 324 669 385 735 q 263 494 263 604 z "},"Х":{"ha":875,"x_min":4,"x_max":871,"o":"m 871 0 l 633 0 l 439 350 l 436 350 l 242 0 l 4 0 l 314 503 l 19 989 l 253 989 l 436 647 l 439 647 l 622 989 l 856 989 l 561 503 l 871 0 z "},"Ц":{"ha":1069,"x_min":114,"x_max":1039,"o":"m 1039 175 l 1039 -222 l 844 -222 l 844 0 l 114 0 l 114 989 l 318 989 l 318 175 l 710 175 l 710 989 l 914 989 l 914 175 l 1039 175 z "},"Ч":{"ha":943,"x_min":46,"x_max":829,"o":"m 625 0 l 625 374 q 509 351 574 360 q 383 343 444 343 q 133 422 219 343 q 46 647 46 500 l 46 989 l 250 989 l 250 688 q 298 562 250 606 q 438 518 346 518 q 535 525 485 518 q 625 543 585 532 l 625 989 l 829 989 l 829 0 l 625 0 z "},"Ш":{"ha":1428,"x_min":114,"x_max":1314,"o":"m 114 0 l 114 989 l 318 989 l 318 175 l 613 175 l 613 989 l 817 989 l 817 175 l 1111 175 l 1111 989 l 1314 989 l 1314 0 l 114 0 z "},"Щ":{"ha":1458,"x_min":114,"x_max":1439,"o":"m 1439 175 l 1439 -222 l 1244 -222 l 1244 0 l 114 0 l 114 989 l 318 989 l 318 175 l 613 175 l 613 989 l 817 989 l 817 175 l 1111 175 l 1111 989 l 1314 989 l 1314 175 l 1439 175 z "},"Ъ":{"ha":1053,"x_min":14,"x_max":1019,"o":"m 657 639 q 926 553 833 639 q 1019 319 1019 467 q 926 86 1019 172 q 657 0 833 0 l 283 0 l 283 814 l 14 814 l 14 989 l 488 989 l 488 639 l 657 639 m 488 169 l 629 169 q 811 319 811 169 q 629 469 811 469 l 488 469 l 488 169 z "},"Ы":{"ha":1315,"x_min":114,"x_max":1201,"o":"m 114 989 l 318 989 l 318 639 l 488 639 q 757 553 664 639 q 850 319 850 467 q 757 86 850 172 q 488 0 664 0 l 114 0 l 114 989 m 997 0 l 997 989 l 1201 989 l 1201 0 l 997 0 m 460 169 q 642 319 642 169 q 460 469 642 469 l 318 469 l 318 169 l 460 169 z "},"Ь":{"ha":883,"x_min":114,"x_max":850,"o":"m 114 989 l 318 989 l 318 639 l 488 639 q 757 553 664 639 q 850 319 850 467 q 757 86 850 172 q 488 0 664 0 l 114 0 l 114 989 m 460 169 q 642 319 642 169 q 460 469 642 469 l 318 469 l 318 169 l 460 169 z "},"Э":{"ha":988,"x_min":56,"x_max":936,"o":"m 475 1011 q 721 949 617 1011 q 881 769 825 886 q 936 494 936 653 q 881 219 936 335 q 723 40 826 103 q 479 -22 619 -22 q 183 75 294 -22 q 56 347 71 172 l 265 347 q 333 208 278 257 q 479 158 389 158 q 639 224 576 158 q 719 407 701 289 l 375 407 l 375 582 l 719 582 q 638 765 701 699 q 475 831 574 831 q 331 781 386 831 q 265 646 276 732 l 60 646 q 117 836 64 753 q 261 965 169 919 q 475 1011 353 1011 z "},"Ю":{"ha":1438,"x_min":114,"x_max":1386,"o":"m 935 1011 q 1176 949 1074 1011 q 1332 770 1278 886 q 1386 494 1386 654 q 1332 219 1386 335 q 1176 40 1278 103 q 935 -22 1074 -22 q 628 92 746 -22 q 488 407 510 206 l 318 407 l 318 0 l 114 0 l 114 989 l 318 989 l 318 582 l 488 582 q 628 897 510 783 q 935 1011 746 1011 m 935 158 q 1111 248 1047 158 q 1175 494 1175 338 q 1111 741 1175 651 q 935 831 1047 831 q 759 740 824 831 q 694 494 694 650 q 759 249 694 339 q 935 158 824 158 z "},"Я":{"ha":919,"x_min":1,"x_max":806,"o":"m 806 0 l 601 0 l 601 367 l 417 367 l 401 367 l 224 0 l 1 0 l 214 404 q 95 512 135 442 q 56 681 56 582 q 147 909 56 829 q 417 989 238 989 l 806 989 l 806 0 m 443 824 q 261 681 261 824 q 432 529 261 529 l 601 529 l 601 824 l 443 824 z "},"а":{"ha":760,"x_min":36,"x_max":693,"o":"m 371 728 q 597 658 521 728 q 674 449 674 588 l 674 193 q 693 0 674 74 l 518 0 q 508 94 508 40 l 506 94 q 276 -17 428 -17 q 101 44 167 -17 q 36 197 36 104 q 99 343 36 288 q 310 422 163 399 q 486 442 399 436 l 486 467 q 456 561 486 531 q 371 592 425 592 q 287 563 317 592 q 254 485 257 535 l 65 485 q 149 660 71 592 q 371 728 226 728 m 486 324 q 344 308 403 318 q 257 275 283 297 q 231 211 231 253 q 258 147 231 171 q 335 122 285 122 q 397 133 367 122 q 446 163 426 143 q 478 216 469 186 q 486 297 486 246 l 486 324 z "},"б":{"ha":833,"x_min":51,"x_max":774,"o":"m 738 849 q 511 821 671 829 q 333 786 397 815 q 240 701 269 757 q 199 551 210 646 l 201 551 q 447 686 261 686 q 619 645 546 686 q 733 528 693 604 q 774 350 774 453 q 729 152 774 236 q 603 23 685 68 q 413 -22 522 -22 q 145 85 239 -22 q 51 392 51 192 q 97 733 51 610 q 232 912 142 857 q 472 978 322 967 q 738 1011 664 992 l 738 849 m 408 544 q 290 491 328 544 q 253 343 253 438 q 294 184 253 240 q 411 128 335 128 q 528 182 488 128 q 569 335 569 236 q 527 489 569 433 q 408 544 485 544 z "},"в":{"ha":763,"x_min":94,"x_max":713,"o":"m 411 706 q 696 515 696 706 q 664 417 696 454 q 565 364 632 381 l 565 361 q 713 197 713 335 q 639 51 713 103 q 431 0 565 0 l 94 0 l 94 706 l 411 706 m 282 415 l 388 415 q 506 497 506 415 q 388 579 506 579 l 282 579 l 282 415 m 282 126 l 386 126 q 518 213 518 126 q 386 299 518 299 l 282 299 l 282 126 z "},"г":{"ha":613,"x_min":94,"x_max":599,"o":"m 289 561 l 289 0 l 94 0 l 94 706 l 599 706 l 599 561 l 289 561 z "},"д":{"ha":889,"x_min":11,"x_max":878,"o":"m 878 -222 l 683 -222 l 683 0 l 206 0 l 206 -222 l 11 -222 l 11 144 l 100 144 q 160 329 138 207 q 194 706 183 451 l 781 706 l 781 144 l 878 144 l 878 -222 m 381 561 q 321 144 365 286 l 586 144 l 586 561 l 381 561 z "},"е":{"ha":796,"x_min":49,"x_max":747,"o":"m 400 115 q 494 142 457 115 q 539 214 532 169 l 738 214 q 678 94 724 149 q 562 9 633 40 q 400 -22 490 -22 q 211 26 290 -22 q 90 160 132 74 q 49 358 49 246 q 90 547 49 464 q 211 679 132 631 q 399 728 290 728 q 606 665 519 728 q 725 493 692 601 q 747 313 747 422 l 240 313 q 288 163 244 210 q 400 115 332 115 m 399 590 q 297 551 338 590 q 244 435 256 513 l 553 435 q 502 551 544 511 q 399 590 460 590 z "},"ж":{"ha":1056,"x_min":-17,"x_max":1072,"o":"m 839 0 l 625 360 l 622 360 l 622 0 l 433 0 l 433 360 l 431 360 l 217 0 l -17 0 l 244 381 l 11 706 l 224 706 l 431 392 l 433 392 l 433 706 l 622 706 l 622 392 l 625 392 l 832 706 l 1044 706 l 811 381 l 1072 0 l 839 0 z "},"з":{"ha":717,"x_min":40,"x_max":667,"o":"m 365 728 q 573 674 496 728 q 650 524 650 619 q 620 428 650 465 q 524 367 590 390 l 524 364 q 633 300 599 342 q 667 190 667 258 q 585 34 667 90 q 364 -22 503 -22 q 124 42 207 -22 q 40 232 40 107 l 235 232 q 364 121 235 121 q 444 142 414 121 q 475 199 475 163 q 344 283 475 283 l 275 283 l 275 424 l 344 424 q 430 446 399 424 q 461 507 461 468 q 434 564 461 543 q 361 585 407 585 q 277 558 307 585 q 247 479 247 531 l 54 479 q 137 663 54 597 q 365 728 219 728 z "},"и":{"ha":931,"x_min":94,"x_max":836,"o":"m 642 0 l 642 263 q 653 539 642 392 l 650 539 q 529 278 599 404 l 378 0 l 94 0 l 94 706 l 289 706 l 289 442 q 278 167 289 314 l 281 167 q 401 428 332 301 l 553 706 l 836 706 l 836 0 l 642 0 z "},"й":{"ha":931,"x_min":94,"x_max":836,"o":"m 642 0 l 642 263 q 653 539 642 392 l 650 539 q 529 278 599 404 l 378 0 l 94 0 l 94 706 l 289 706 l 289 442 q 278 167 289 314 l 281 167 q 401 428 332 301 l 553 706 l 836 706 l 836 0 l 642 0 m 710 989 q 640 834 704 889 q 467 779 575 779 q 294 834 358 779 q 224 989 229 889 l 356 989 q 388 924 358 947 q 467 900 418 900 q 545 924 515 900 q 578 989 575 947 l 710 989 z "},"к":{"ha":778,"x_min":94,"x_max":768,"o":"m 528 0 l 292 331 l 289 331 l 289 0 l 94 0 l 94 706 l 289 706 l 289 421 l 292 421 l 519 706 l 739 706 l 471 381 l 768 0 l 528 0 z "},"л":{"ha":797,"x_min":8,"x_max":703,"o":"m 508 0 l 508 561 l 343 561 q 308 202 338 325 q 224 35 278 79 q 78 -8 169 -8 q 8 0 40 -8 l 8 138 q 35 135 22 135 q 106 177 81 135 q 144 342 131 219 q 163 706 158 464 l 703 706 l 703 0 l 508 0 z "},"м":{"ha":1158,"x_min":94,"x_max":1064,"o":"m 883 0 l 883 324 q 890 578 883 436 l 889 578 q 808 326 857 467 l 694 0 l 464 0 l 349 326 q 269 578 296 485 l 267 578 q 274 324 274 436 l 274 0 l 94 0 l 94 706 l 400 706 l 506 404 q 578 146 546 288 l 581 146 q 653 404 607 269 l 757 706 l 1064 706 l 1064 0 l 883 0 z "},"н":{"ha":851,"x_min":94,"x_max":757,"o":"m 563 0 l 563 286 l 289 286 l 289 0 l 94 0 l 94 706 l 289 706 l 289 431 l 563 431 l 563 706 l 757 706 l 757 0 l 563 0 z "},"о":{"ha":819,"x_min":49,"x_max":771,"o":"m 410 728 q 601 682 519 728 q 726 551 682 636 q 771 353 771 467 q 726 154 771 239 q 601 24 682 69 q 410 -22 519 -22 q 219 24 300 -22 q 93 154 138 69 q 49 353 49 239 q 93 551 49 467 q 219 682 138 636 q 410 728 300 728 m 410 578 q 295 517 338 578 q 253 353 253 456 q 295 189 253 250 q 410 128 338 128 q 524 189 482 128 q 567 353 567 250 q 524 517 567 456 q 410 578 482 578 z "},"п":{"ha":840,"x_min":94,"x_max":746,"o":"m 551 0 l 551 561 l 289 561 l 289 0 l 94 0 l 94 706 l 746 706 l 746 0 l 551 0 z "},"р":{"ha":831,"x_min":94,"x_max":782,"o":"m 489 724 q 643 678 576 724 q 746 548 710 632 q 782 353 782 464 q 747 158 782 242 q 645 28 711 74 q 492 -18 579 -18 q 377 9 431 -18 q 292 85 324 36 l 289 85 l 289 -257 l 94 -257 l 94 706 l 283 706 l 283 613 l 286 613 q 372 694 318 665 q 489 724 426 724 m 426 575 q 319 516 360 575 q 279 353 279 457 q 319 190 279 249 q 426 131 360 131 q 538 191 496 131 q 579 353 579 251 q 538 515 579 454 q 426 575 496 575 z "},"с":{"ha":781,"x_min":49,"x_max":738,"o":"m 404 728 q 570 692 497 728 q 687 590 643 656 q 738 443 731 525 l 535 443 q 494 542 529 506 q 403 578 458 578 q 292 517 332 578 q 251 353 251 457 q 292 188 251 249 q 403 128 332 128 q 494 167 458 128 q 533 276 529 207 l 738 276 q 636 60 726 142 q 404 -22 546 -22 q 217 24 297 -22 q 92 156 136 71 q 49 353 49 240 q 92 550 49 465 q 217 681 136 635 q 404 728 297 728 z "},"т":{"ha":658,"x_min":8,"x_max":650,"o":"m 426 561 l 426 0 l 232 0 l 232 561 l 8 561 l 8 706 l 650 706 l 650 561 l 426 561 z "},"у":{"ha":700,"x_min":-10,"x_max":710,"o":"m 457 -4 q 377 -160 421 -104 q 272 -241 333 -217 q 121 -265 211 -265 q 19 -254 67 -265 l 19 -99 q 94 -110 50 -110 q 188 -78 153 -110 q 224 4 224 -47 q 217 49 224 24 q 190 132 211 74 l -10 706 l 199 706 l 271 469 q 349 174 315 321 l 351 174 q 433 469 393 344 l 510 706 l 710 706 l 457 -4 z "},"ф":{"ha":1139,"x_min":49,"x_max":1090,"o":"m 667 672 q 808 724 729 724 q 957 678 893 724 q 1056 548 1021 632 q 1090 353 1090 464 q 1056 158 1090 242 q 956 28 1021 74 q 806 -18 892 -18 q 667 32 729 -18 l 667 -257 l 472 -257 l 472 32 q 333 -18 410 -18 q 183 28 247 -18 q 83 158 118 74 q 49 353 49 242 q 83 548 49 464 q 182 678 118 632 q 331 724 246 724 q 472 672 410 724 l 472 989 l 667 989 l 667 672 m 396 575 q 290 515 329 575 q 251 353 251 454 q 290 191 251 251 q 396 131 329 131 q 472 164 439 131 l 472 542 q 396 575 439 575 m 743 575 q 667 542 700 575 l 667 164 q 743 131 700 131 q 848 191 808 131 q 888 353 888 251 q 848 515 888 454 q 743 575 808 575 z "},"х":{"ha":706,"x_min":-8,"x_max":714,"o":"m 714 0 l 488 0 l 354 239 l 351 239 l 218 0 l -8 0 l 233 363 l 7 706 l 231 706 l 351 499 l 354 499 l 475 706 l 699 706 l 472 363 l 714 0 z "},"ц":{"ha":854,"x_min":94,"x_max":843,"o":"m 843 144 l 843 -222 l 649 -222 l 649 0 l 94 0 l 94 706 l 289 706 l 289 144 l 551 144 l 551 706 l 746 706 l 746 144 l 843 144 z "},"ч":{"ha":775,"x_min":40,"x_max":681,"o":"m 486 0 l 486 256 q 290 231 397 231 q 105 287 169 231 q 40 447 40 343 l 40 706 l 235 706 l 235 488 q 267 404 235 433 q 361 375 299 375 q 486 394 428 375 l 486 706 l 681 706 l 681 0 l 486 0 z "},"ш":{"ha":1186,"x_min":94,"x_max":1092,"o":"m 94 0 l 94 706 l 289 706 l 289 144 l 496 144 l 496 706 l 690 706 l 690 144 l 897 144 l 897 706 l 1092 706 l 1092 0 l 94 0 z "},"щ":{"ha":1200,"x_min":94,"x_max":1189,"o":"m 1189 144 l 1189 -222 l 994 -222 l 994 0 l 94 0 l 94 706 l 289 706 l 289 144 l 496 144 l 496 706 l 690 706 l 690 144 l 897 144 l 897 706 l 1092 706 l 1092 144 l 1189 144 z "},"ъ":{"ha":868,"x_min":8,"x_max":825,"o":"m 540 478 q 752 416 679 478 q 825 239 825 354 q 752 61 825 122 q 540 0 679 0 l 190 0 l 190 561 l 8 561 l 8 706 l 385 706 l 385 478 l 540 478 m 385 140 l 514 140 q 631 239 631 140 q 514 338 631 338 l 385 338 l 385 140 z "},"ы":{"ha":1114,"x_min":94,"x_max":1019,"o":"m 444 478 q 656 416 583 478 q 729 239 729 354 q 656 61 729 122 q 444 0 583 0 l 94 0 l 94 706 l 289 706 l 289 478 l 444 478 m 289 140 l 418 140 q 535 239 535 140 q 418 338 535 338 l 289 338 l 289 140 m 825 0 l 825 706 l 1019 706 l 1019 0 l 825 0 z "},"ь":{"ha":772,"x_min":94,"x_max":729,"o":"m 444 478 q 656 416 583 478 q 729 239 729 354 q 656 61 729 122 q 444 0 583 0 l 94 0 l 94 706 l 289 706 l 289 478 l 444 478 m 289 140 l 418 140 q 535 239 535 140 q 418 338 535 338 l 289 338 l 289 140 z "},"э":{"ha":781,"x_min":43,"x_max":732,"o":"m 376 728 q 564 681 483 728 q 688 550 644 635 q 732 353 732 465 q 688 156 732 240 q 564 24 644 71 q 376 -22 483 -22 q 144 57 235 -22 q 43 268 54 136 l 242 268 q 283 162 246 201 q 378 122 319 122 q 479 167 439 122 q 531 290 519 211 l 297 290 l 297 429 l 528 429 q 476 542 515 501 q 378 583 436 583 q 283 548 319 583 q 240 451 246 513 l 43 451 q 94 594 51 532 q 210 692 138 657 q 376 728 283 728 z "},"ю":{"ha":1175,"x_min":94,"x_max":1126,"o":"m 765 728 q 956 682 875 728 q 1082 551 1038 636 q 1126 353 1126 467 q 1082 154 1126 239 q 956 24 1038 69 q 765 -22 875 -22 q 524 58 618 -22 q 410 281 429 139 l 289 281 l 289 0 l 94 0 l 94 706 l 289 706 l 289 425 l 410 425 q 524 647 429 567 q 765 728 618 728 m 765 128 q 880 189 838 128 q 922 353 922 250 q 880 517 922 456 q 765 578 838 578 q 651 517 693 578 q 608 353 608 456 q 651 189 608 250 q 765 128 693 128 z "},"я":{"ha":782,"x_min":11,"x_max":688,"o":"m 688 0 l 500 0 l 500 231 l 358 231 l 339 231 l 214 0 l 11 0 l 169 267 q 53 472 53 325 q 129 646 53 586 q 358 706 206 706 l 688 706 l 688 0 m 382 563 q 275 540 311 563 q 239 467 239 517 q 374 368 239 368 l 500 368 l 500 563 l 382 563 z "},"ѐ":{"ha":796,"x_min":49,"x_max":747,"o":"m 400 115 q 494 142 457 115 q 539 214 532 169 l 738 214 q 678 94 724 149 q 562 9 633 40 q 400 -22 490 -22 q 211 26 290 -22 q 90 160 132 74 q 49 358 49 246 q 90 547 49 464 q 211 679 132 631 q 399 728 290 728 q 606 665 519 728 q 725 493 692 601 q 747 313 747 422 l 240 313 q 288 163 244 210 q 400 115 332 115 m 399 590 q 297 551 338 590 q 244 435 256 513 l 553 435 q 502 551 544 511 q 399 590 460 590 m 515 786 l 363 786 l 168 989 l 408 989 l 515 786 z "},"ё":{"ha":796,"x_min":49,"x_max":747,"o":"m 400 115 q 494 142 457 115 q 539 214 532 169 l 738 214 q 678 94 724 149 q 562 9 633 40 q 400 -22 490 -22 q 211 26 290 -22 q 90 160 132 74 q 49 358 49 246 q 90 547 49 464 q 211 679 132 631 q 399 728 290 728 q 606 665 519 728 q 725 493 692 601 q 747 313 747 422 l 240 313 q 288 163 244 210 q 400 115 332 115 m 399 590 q 297 551 338 590 q 244 435 256 513 l 553 435 q 502 551 544 511 q 399 590 460 590 m 161 822 l 161 989 l 332 989 l 332 822 l 161 822 m 463 822 l 463 989 l 633 989 l 633 822 l 463 822 z "},"ђ":{"ha":833,"x_min":-8,"x_max":746,"o":"m 486 647 q 676 573 607 647 q 746 358 746 499 l 746 -15 q 681 -203 746 -143 q 506 -264 617 -264 q 410 -253 454 -264 l 410 -112 q 447 -117 426 -117 q 526 -88 501 -117 q 551 14 551 -60 l 551 339 q 519 456 551 417 q 428 494 486 494 q 327 445 365 494 q 289 303 289 396 l 289 0 l 94 0 l 94 756 l -8 756 l -8 878 l 94 878 l 94 989 l 289 989 l 289 878 l 583 878 l 583 756 l 289 756 l 289 553 l 292 553 q 378 624 328 600 q 486 647 429 647 z "},"ѓ":{"ha":613,"x_min":94,"x_max":599,"o":"m 289 561 l 289 0 l 94 0 l 94 706 l 599 706 l 599 561 l 289 561 m 229 786 l 336 989 l 576 989 l 382 786 l 229 786 z "},"є":{"ha":781,"x_min":49,"x_max":738,"o":"m 403 122 q 498 162 461 122 q 539 268 535 201 l 738 268 q 636 57 726 136 q 404 -22 546 -22 q 217 24 297 -22 q 92 156 136 71 q 49 353 49 240 q 92 550 49 465 q 217 681 136 635 q 404 728 297 728 q 570 692 497 728 q 686 594 643 657 q 738 451 729 532 l 540 451 q 498 548 535 513 q 403 583 461 583 q 305 542 344 583 q 253 429 265 501 l 483 429 l 483 290 l 250 290 q 301 167 261 211 q 403 122 342 122 z "},"ѕ":{"ha":728,"x_min":49,"x_max":676,"o":"m 357 728 q 575 667 497 728 q 653 489 653 606 l 467 489 q 356 592 467 592 q 285 574 310 592 q 260 526 260 557 q 275 487 260 501 q 319 463 290 472 q 411 436 349 453 q 551 392 500 413 q 640 325 603 371 q 676 199 676 279 q 592 38 676 99 q 365 -22 508 -22 q 132 41 215 -22 q 49 229 49 104 l 246 229 q 278 147 246 176 q 369 118 310 118 q 446 136 419 118 q 472 186 472 154 q 456 233 472 215 q 409 260 439 250 q 310 289 379 271 q 180 330 226 311 q 99 392 133 349 q 65 511 65 435 q 102 623 65 574 q 205 700 139 672 q 357 728 271 728 z "},"і":{"ha":383,"x_min":94,"x_max":289,"o":"m 94 822 l 94 989 l 289 989 l 289 822 l 94 822 m 94 0 l 94 706 l 289 706 l 289 0 l 94 0 z "},"ї":{"ha":383,"x_min":-14,"x_max":397,"o":"m 94 0 l 94 706 l 289 706 l 289 0 l 94 0 m -14 822 l -14 989 l 157 989 l 157 822 l -14 822 m 226 822 l 226 989 l 397 989 l 397 822 l 226 822 z "},"ј":{"ha":386,"x_min":-44,"x_max":292,"o":"m 97 822 l 97 989 l 292 989 l 292 822 l 97 822 m 292 -15 q 227 -203 292 -143 q 51 -264 163 -264 q -44 -253 0 -264 l -44 -112 q -7 -117 -28 -117 q 72 -88 47 -117 q 97 14 97 -60 l 97 706 l 292 706 l 292 -15 z "},"љ":{"ha":1186,"x_min":8,"x_max":1143,"o":"m 858 478 q 1070 416 997 478 q 1143 239 1143 354 q 1070 61 1143 122 q 858 0 997 0 l 508 0 l 508 561 l 343 561 q 308 202 338 325 q 224 35 278 79 q 78 -8 169 -8 q 8 0 40 -8 l 8 138 q 35 135 22 135 q 106 177 81 135 q 144 342 131 219 q 163 706 158 464 l 703 706 l 703 478 l 858 478 m 703 140 l 832 140 q 949 239 949 140 q 832 338 949 338 l 703 338 l 703 140 z "},"њ":{"ha":1240,"x_min":94,"x_max":1197,"o":"m 913 478 q 1124 416 1051 478 q 1197 239 1197 354 q 1124 61 1197 122 q 913 0 1051 0 l 563 0 l 563 286 l 289 286 l 289 0 l 94 0 l 94 706 l 289 706 l 289 431 l 563 431 l 563 706 l 757 706 l 757 478 l 913 478 m 757 140 l 886 140 q 1003 239 1003 140 q 886 338 1003 338 l 757 338 l 757 140 z "},"ћ":{"ha":833,"x_min":-8,"x_max":746,"o":"m 486 647 q 676 573 607 647 q 746 358 746 499 l 746 0 l 551 0 l 551 339 q 519 456 551 417 q 428 494 486 494 q 327 445 365 494 q 289 303 289 396 l 289 0 l 94 0 l 94 756 l -8 756 l -8 878 l 94 878 l 94 989 l 289 989 l 289 878 l 583 878 l 583 756 l 289 756 l 289 553 l 292 553 q 378 624 328 600 q 486 647 429 647 z "},"ќ":{"ha":778,"x_min":94,"x_max":768,"o":"m 528 0 l 292 331 l 289 331 l 289 0 l 94 0 l 94 706 l 289 706 l 289 421 l 292 421 l 519 706 l 739 706 l 471 381 l 768 0 l 528 0 m 286 786 l 393 989 l 633 989 l 439 786 l 286 786 z "},"ѝ":{"ha":931,"x_min":94,"x_max":836,"o":"m 642 0 l 642 263 q 653 539 642 392 l 650 539 q 529 278 599 404 l 378 0 l 94 0 l 94 706 l 289 706 l 289 442 q 278 167 289 314 l 281 167 q 401 428 332 301 l 553 706 l 836 706 l 836 0 l 642 0 m 585 786 l 432 786 l 238 989 l 478 989 l 585 786 z "},"ў":{"ha":700,"x_min":-10,"x_max":710,"o":"m 457 -4 q 377 -160 421 -104 q 272 -241 333 -217 q 121 -265 211 -265 q 19 -254 67 -265 l 19 -99 q 94 -110 50 -110 q 188 -78 153 -110 q 224 4 224 -47 q 217 49 224 24 q 190 132 211 74 l -10 706 l 199 706 l 271 469 q 349 174 315 321 l 351 174 q 433 469 393 344 l 510 706 l 710 706 l 457 -4 m 593 989 q 523 834 588 889 q 350 779 458 779 q 177 834 242 779 q 107 989 113 889 l 239 989 q 272 924 242 947 q 350 900 301 900 q 428 924 399 900 q 461 989 458 947 l 593 989 z "},"џ":{"ha":840,"x_min":94,"x_max":746,"o":"m 514 0 l 514 -222 l 319 -222 l 319 0 l 94 0 l 94 706 l 289 706 l 289 144 l 551 144 l 551 706 l 746 706 l 746 0 l 514 0 z "},"Ґ":{"ha":706,"x_min":114,"x_max":692,"o":"m 318 814 l 318 0 l 114 0 l 114 989 l 497 989 l 497 1181 l 692 1181 l 692 814 l 318 814 z "},"ґ":{"ha":613,"x_min":94,"x_max":599,"o":"m 289 561 l 289 0 l 94 0 l 94 706 l 418 706 l 418 928 l 599 928 l 599 561 l 289 561 z "},"Ғ":{"ha":706,"x_min":25,"x_max":692,"o":"m 318 525 l 519 525 l 519 378 l 318 378 l 318 0 l 114 0 l 114 378 l 25 378 l 25 525 l 114 525 l 114 989 l 692 989 l 692 814 l 318 814 l 318 525 z "},"ғ":{"ha":619,"x_min":18,"x_max":606,"o":"m 296 386 l 471 386 l 471 253 l 296 253 l 296 0 l 101 0 l 101 253 l 18 253 l 18 386 l 101 386 l 101 706 l 606 706 l 606 561 l 296 561 l 296 386 z "},"Җ":{"ha":1275,"x_min":6,"x_max":1269,"o":"m 1269 -222 l 1075 -222 l 1075 0 l 1028 0 l 740 494 l 738 494 l 738 0 l 538 0 l 538 494 l 535 494 l 247 0 l 6 0 l 346 519 l 40 989 l 275 989 l 535 526 l 538 526 l 538 989 l 738 989 l 738 526 l 740 526 l 1000 989 l 1235 989 l 929 519 l 1154 175 l 1269 175 l 1269 -222 z "},"җ":{"ha":1056,"x_min":-17,"x_max":1072,"o":"m 1072 -222 l 878 -222 l 878 0 l 839 0 l 625 360 l 622 360 l 622 0 l 433 0 l 433 360 l 431 360 l 217 0 l -17 0 l 244 381 l 11 706 l 224 706 l 431 392 l 433 392 l 433 706 l 622 706 l 622 392 l 625 392 l 832 706 l 1044 706 l 811 381 l 974 144 l 1072 144 l 1072 -222 z "},"Қ":{"ha":921,"x_min":114,"x_max":915,"o":"m 915 -222 l 721 -222 l 721 0 l 656 0 l 321 467 l 318 467 l 318 0 l 114 0 l 114 989 l 318 989 l 318 554 l 321 554 l 644 989 l 883 989 l 507 519 l 778 175 l 915 175 l 915 -222 z "},"қ":{"ha":778,"x_min":94,"x_max":768,"o":"m 768 -222 l 574 -222 l 574 0 l 528 0 l 292 331 l 289 331 l 289 0 l 94 0 l 94 706 l 289 706 l 289 421 l 292 421 l 519 706 l 739 706 l 471 381 l 656 144 l 768 144 l 768 -222 z "},"Ҝ":{"ha":1024,"x_min":114,"x_max":1018,"o":"m 528 426 l 528 211 l 375 211 l 375 426 l 314 426 l 314 0 l 114 0 l 114 989 l 314 989 l 314 601 l 375 601 l 375 817 l 528 817 l 528 601 l 531 601 l 749 989 l 983 989 l 679 521 l 1018 0 l 776 0 l 531 426 l 528 426 z "},"ҝ":{"ha":858,"x_min":94,"x_max":872,"o":"m 456 304 l 456 139 l 335 139 l 335 304 l 283 304 l 283 0 l 94 0 l 94 706 l 283 706 l 283 449 l 335 449 l 335 614 l 456 614 l 456 449 l 463 449 l 632 706 l 844 706 l 611 381 l 872 0 l 639 0 l 458 304 l 456 304 z "},"Ң":{"ha":1083,"x_min":114,"x_max":1053,"o":"m 858 -222 l 858 0 l 724 0 l 724 426 l 318 426 l 318 0 l 114 0 l 114 989 l 318 989 l 318 601 l 724 601 l 724 989 l 928 989 l 928 175 l 1053 175 l 1053 -222 l 858 -222 z "},"ң":{"ha":865,"x_min":94,"x_max":854,"o":"m 660 -222 l 660 0 l 563 0 l 563 286 l 289 286 l 289 0 l 94 0 l 94 706 l 289 706 l 289 431 l 563 431 l 563 706 l 757 706 l 757 144 l 854 144 l 854 -222 l 660 -222 z "},"Ү":{"ha":886,"x_min":3,"x_max":882,"o":"m 544 0 l 340 0 l 340 385 l 3 989 l 232 989 l 326 803 q 442 551 389 679 l 444 551 q 560 803 497 679 l 654 989 l 882 989 l 544 385 l 544 0 z "},"ү":{"ha":708,"x_min":-10,"x_max":718,"o":"m 451 -18 l 451 -257 l 257 -257 l 257 -18 l -10 706 l 193 706 l 275 461 q 353 189 315 344 l 356 189 q 433 461 393 344 l 515 706 l 718 706 l 451 -18 z "},"Ҳ":{"ha":875,"x_min":4,"x_max":871,"o":"m 871 -222 l 676 -222 l 676 0 l 633 0 l 439 350 l 436 350 l 242 0 l 4 0 l 314 503 l 19 989 l 253 989 l 436 647 l 439 647 l 622 989 l 856 989 l 561 503 l 763 175 l 871 175 l 871 -222 z "},"ҳ":{"ha":706,"x_min":-8,"x_max":714,"o":"m 714 -222 l 519 -222 l 519 0 l 488 0 l 354 239 l 351 239 l 218 0 l -8 0 l 233 363 l 7 706 l 231 706 l 351 499 l 354 499 l 475 706 l 699 706 l 472 363 l 618 144 l 714 144 l 714 -222 z "},"Ҹ":{"ha":943,"x_min":46,"x_max":829,"o":"m 829 0 l 625 0 l 625 374 q 521 353 582 361 l 521 167 l 354 167 l 354 343 q 125 428 204 350 q 46 647 46 507 l 46 989 l 250 989 l 250 688 q 354 531 250 564 l 354 789 l 521 789 l 521 524 q 625 543 576 529 l 625 989 l 829 989 l 829 0 z "},"ҹ":{"ha":775,"x_min":40,"x_max":681,"o":"m 681 0 l 486 0 l 486 256 q 421 242 446 244 l 421 110 l 300 110 l 300 231 l 290 231 q 105 287 169 231 q 40 447 40 343 l 40 706 l 235 706 l 235 488 q 251 418 235 444 q 300 382 267 392 l 300 585 l 421 585 l 421 379 q 486 394 457 386 l 486 706 l 681 706 l 681 0 z "},"Һ":{"ha":943,"x_min":114,"x_max":897,"o":"m 318 989 l 318 615 q 434 638 369 629 q 560 646 499 646 q 810 567 724 646 q 897 342 897 489 l 897 0 l 693 0 l 693 301 q 645 427 693 383 q 506 471 597 471 q 408 464 458 471 q 318 446 358 457 l 318 0 l 114 0 l 114 989 l 318 989 z "},"һ":{"ha":833,"x_min":94,"x_max":746,"o":"m 292 628 q 378 699 328 675 q 486 722 429 722 q 676 648 607 722 q 746 433 746 574 l 746 0 l 551 0 l 551 414 q 519 531 551 492 q 428 569 486 569 q 327 520 365 569 q 289 378 289 471 l 289 0 l 94 0 l 94 989 l 289 989 l 289 628 l 292 628 z "},"Ӏ":{"ha":432,"x_min":114,"x_max":318,"o":"m 114 0 l 114 989 l 318 989 l 318 0 l 114 0 z "},"ӏ":{"ha":383,"x_min":94,"x_max":289,"o":"m 94 0 l 94 989 l 289 989 l 289 0 l 94 0 z "},"Ә":{"ha":1061,"x_min":51,"x_max":1010,"o":"m 517 1011 q 780 948 668 1011 q 951 768 892 885 q 1010 496 1010 651 q 951 231 1010 349 q 783 45 893 113 q 525 -22 672 -22 q 274 41 381 -22 q 109 220 167 104 q 51 493 51 336 q 56 564 51 539 l 797 564 q 710 768 789 701 q 514 835 632 835 q 367 794 424 835 q 296 688 310 753 l 78 688 q 154 851 99 778 q 302 967 210 924 q 517 1011 394 1011 m 525 158 q 702 219 632 158 q 790 394 772 281 l 265 394 q 353 219 282 279 q 525 158 424 158 z "},"ә":{"ha":796,"x_min":49,"x_max":747,"o":"m 390 728 q 582 681 501 728 q 705 549 663 633 q 747 353 747 464 q 706 161 747 246 q 584 27 664 76 q 397 -22 504 -22 q 213 24 292 -22 q 91 154 133 69 q 49 353 49 239 q 51 400 49 378 l 556 400 q 506 544 551 499 q 390 590 461 590 q 306 565 339 590 q 265 499 272 539 l 67 499 q 174 663 89 597 q 390 728 260 728 m 397 115 q 499 156 458 115 q 551 278 540 197 l 243 278 q 293 156 251 197 q 397 115 335 115 z "},"Ө":{"ha":1039,"x_min":51,"x_max":988,"o":"m 519 1011 q 769 949 664 1011 q 931 770 875 886 q 988 494 988 654 q 931 219 988 335 q 769 40 875 103 q 519 -22 664 -22 q 269 40 375 -22 q 108 219 164 103 q 51 494 51 335 q 108 770 51 654 q 269 949 164 886 q 519 1011 375 1011 m 519 842 q 344 773 413 842 q 256 582 275 704 l 785 582 q 697 773 765 704 q 519 842 628 842 m 519 147 q 697 216 628 147 q 785 407 765 285 l 256 407 q 344 216 275 285 q 519 147 413 147 z "},"ө":{"ha":819,"x_min":49,"x_max":771,"o":"m 410 728 q 601 682 519 728 q 726 551 682 636 q 771 353 771 467 q 726 154 771 239 q 601 24 682 69 q 410 -22 519 -22 q 219 24 300 -22 q 93 154 138 69 q 49 353 49 239 q 93 551 49 467 q 219 682 138 636 q 410 728 300 728 m 410 586 q 301 540 344 586 q 246 415 258 494 l 572 415 q 517 540 560 494 q 410 586 474 586 m 410 119 q 517 165 474 119 q 572 290 560 210 l 246 290 q 301 165 258 210 q 410 119 344 119 z "},"Ẁ":{"ha":1328,"x_min":13,"x_max":1315,"o":"m 843 0 l 751 392 q 665 815 700 610 l 663 815 q 576 392 628 610 l 485 0 l 219 0 l 13 989 l 213 989 l 283 629 q 356 201 328 404 l 358 201 q 449 629 396 411 l 535 989 l 793 989 l 879 629 q 969 201 932 411 l 972 201 q 1044 629 1000 404 l 1115 989 l 1315 989 l 1108 0 l 843 0 m 779 1056 l 626 1056 l 432 1258 l 672 1258 l 779 1056 z "},"ẁ":{"ha":1125,"x_min":7,"x_max":1118,"o":"m 685 0 l 622 278 q 564 579 590 422 l 561 579 q 503 278 535 422 l 440 0 l 163 0 l 7 706 l 200 706 l 253 433 q 304 126 286 263 l 307 126 q 367 431 332 282 l 429 706 l 696 706 l 758 431 q 818 126 793 282 l 821 126 q 872 433 839 263 l 925 706 l 1118 706 l 963 0 l 685 0 m 681 786 l 528 786 l 333 989 l 574 989 l 681 786 z "},"Ẃ":{"ha":1328,"x_min":13,"x_max":1315,"o":"m 843 0 l 751 392 q 665 815 700 610 l 663 815 q 576 392 628 610 l 485 0 l 219 0 l 13 989 l 213 989 l 283 629 q 356 201 328 404 l 358 201 q 449 629 396 411 l 535 989 l 793 989 l 879 629 q 969 201 932 411 l 972 201 q 1044 629 1000 404 l 1115 989 l 1315 989 l 1108 0 l 843 0 m 543 1056 l 650 1258 l 890 1258 l 696 1056 l 543 1056 z "},"ẃ":{"ha":1125,"x_min":7,"x_max":1118,"o":"m 685 0 l 622 278 q 564 579 590 422 l 561 579 q 503 278 535 422 l 440 0 l 163 0 l 7 706 l 200 706 l 253 433 q 304 126 286 263 l 307 126 q 367 431 332 282 l 429 706 l 696 706 l 758 431 q 818 126 793 282 l 821 126 q 872 433 839 263 l 925 706 l 1118 706 l 963 0 l 685 0 m 444 786 l 551 989 l 792 989 l 597 786 l 444 786 z "},"Ẅ":{"ha":1328,"x_min":13,"x_max":1315,"o":"m 843 0 l 751 392 q 665 815 700 610 l 663 815 q 576 392 628 610 l 485 0 l 219 0 l 13 989 l 213 989 l 283 629 q 356 201 328 404 l 358 201 q 449 629 396 411 l 535 989 l 793 989 l 879 629 q 969 201 932 411 l 972 201 q 1044 629 1000 404 l 1115 989 l 1315 989 l 1108 0 l 843 0 m 425 1068 l 425 1235 l 596 1235 l 596 1068 l 425 1068 m 726 1068 l 726 1235 l 897 1235 l 897 1068 l 726 1068 z "},"ẅ":{"ha":1125,"x_min":7,"x_max":1118,"o":"m 685 0 l 622 278 q 564 579 590 422 l 561 579 q 503 278 535 422 l 440 0 l 163 0 l 7 706 l 200 706 l 253 433 q 304 126 286 263 l 307 126 q 367 431 332 282 l 429 706 l 696 706 l 758 431 q 818 126 793 282 l 821 126 q 872 433 839 263 l 925 706 l 1118 706 l 963 0 l 685 0 m 326 822 l 326 989 l 497 989 l 497 822 l 326 822 m 628 822 l 628 989 l 799 989 l 799 822 l 628 822 z "},"ẞ":{"ha":1113,"x_min":100,"x_max":1060,"o":"m 778 592 q 988 477 915 557 q 1060 271 1060 397 q 967 56 1060 132 q 718 -19 875 -19 q 474 53 558 -19 q 390 267 390 125 l 586 267 q 618 178 586 208 q 714 147 650 147 q 811 180 776 147 q 846 274 846 213 q 774 406 846 361 q 561 460 703 450 l 561 599 l 729 783 q 653 826 697 811 q 557 842 608 842 q 368 774 432 842 q 304 572 304 706 l 304 0 l 100 0 l 100 568 q 221 897 100 785 q 571 1008 342 1008 q 808 957 700 1008 q 985 818 915 906 l 778 592 z "},"Ỳ":{"ha":886,"x_min":3,"x_max":882,"o":"m 544 0 l 340 0 l 340 385 l 3 989 l 232 989 l 326 803 q 442 551 389 679 l 444 551 q 560 803 497 679 l 654 989 l 882 989 l 544 385 l 544 0 m 561 1056 l 408 1056 l 214 1258 l 454 1258 l 561 1056 z "},"ỳ":{"ha":700,"x_min":-10,"x_max":710,"o":"m 457 -4 q 377 -160 421 -104 q 272 -241 333 -217 q 121 -265 211 -265 q 19 -254 67 -265 l 19 -99 q 94 -110 50 -110 q 188 -78 153 -110 q 224 4 224 -47 q 217 49 224 24 q 190 132 211 74 l -10 706 l 199 706 l 271 469 q 349 174 315 321 l 351 174 q 433 469 393 344 l 510 706 l 710 706 l 457 -4 m 468 786 l 315 786 l 121 989 l 361 989 l 468 786 z "},"‐":{"ha":444,"x_min":42,"x_max":403,"o":"m 42 329 l 42 482 l 403 482 l 403 329 l 42 329 z "},"–":{"ha":694,"x_min":28,"x_max":667,"o":"m 28 329 l 28 482 l 667 482 l 667 329 l 28 329 z "},"—":{"ha":1389,"x_min":28,"x_max":1361,"o":"m 28 329 l 28 482 l 1361 482 l 1361 329 l 28 329 z "},"―":{"ha":1389,"x_min":28,"x_max":1361,"o":"m 28 329 l 28 482 l 1361 482 l 1361 329 l 28 329 z "},"‗":{"ha":694,"x_min":0,"x_max":694,"o":"m 0 -168 l 0 -69 l 694 -69 l 694 -168 l 0 -168 m 0 -369 l 0 -271 l 694 -271 l 694 -369 l 0 -369 z "},"‘":{"ha":353,"x_min":86,"x_max":272,"o":"m 174 989 l 272 989 l 207 786 l 268 786 l 268 589 l 86 589 l 86 786 l 174 989 z "},"’":{"ha":353,"x_min":81,"x_max":267,"o":"m 179 589 l 81 589 l 146 792 l 85 792 l 85 989 l 267 989 l 267 792 l 179 589 z "},"‚":{"ha":353,"x_min":81,"x_max":267,"o":"m 179 -203 l 81 -203 l 146 0 l 85 0 l 85 197 l 267 197 l 267 0 l 179 -203 z "},"‛":{"ha":353,"x_min":86,"x_max":272,"o":"m 268 792 l 207 792 l 272 589 l 174 589 l 86 792 l 86 989 l 268 989 l 268 792 z "},"“":{"ha":606,"x_min":86,"x_max":525,"o":"m 174 989 l 272 989 l 207 786 l 268 786 l 268 589 l 86 589 l 86 786 l 174 989 m 426 989 l 525 989 l 460 786 l 521 786 l 521 589 l 339 589 l 339 786 l 426 989 z "},"”":{"ha":606,"x_min":81,"x_max":519,"o":"m 179 589 l 81 589 l 146 792 l 85 792 l 85 989 l 267 989 l 267 792 l 179 589 m 432 589 l 333 589 l 399 792 l 338 792 l 338 989 l 519 989 l 519 792 l 432 589 z "},"„":{"ha":606,"x_min":81,"x_max":519,"o":"m 179 -203 l 81 -203 l 146 0 l 85 0 l 85 197 l 267 197 l 267 0 l 179 -203 m 432 -203 l 333 -203 l 399 0 l 338 0 l 338 197 l 519 197 l 519 0 l 432 -203 z "},"†":{"ha":783,"x_min":75,"x_max":708,"o":"m 708 744 l 708 590 l 489 590 l 489 -167 l 294 -167 l 294 590 l 75 590 l 75 744 l 294 744 l 294 989 l 489 989 l 489 744 l 708 744 z "},"‡":{"ha":783,"x_min":75,"x_max":708,"o":"m 708 744 l 708 590 l 489 590 l 489 232 l 708 232 l 708 78 l 489 78 l 489 -167 l 294 -167 l 294 78 l 75 78 l 75 232 l 294 232 l 294 590 l 75 590 l 75 744 l 294 744 l 294 989 l 489 989 l 489 744 l 708 744 z "},"•":{"ha":500,"x_min":56,"x_max":444,"o":"m 250 300 q 153 326 197 300 q 82 397 108 353 q 56 494 56 442 q 82 592 56 547 q 153 663 108 638 q 250 689 197 689 q 348 663 303 689 q 419 592 393 638 q 444 494 444 547 q 419 397 444 442 q 348 326 393 353 q 250 300 303 300 z "},"…":{"ha":1247,"x_min":72,"x_max":1175,"o":"m 72 0 l 72 232 l 286 232 l 286 0 l 72 0 m 517 0 l 517 232 l 731 232 l 731 0 l 517 0 m 961 0 l 961 232 l 1175 232 l 1175 0 l 961 0 z "},"‰":{"ha":1515,"x_min":42,"x_max":1474,"o":"m 165 -42 l 749 978 l 865 978 l 282 -42 l 165 -42 m 244 958 q 394 897 342 958 q 447 721 447 835 q 394 545 447 607 q 244 483 342 483 q 94 545 147 483 q 42 721 42 607 q 94 897 42 835 q 244 958 147 958 m 244 854 q 193 819 211 854 q 175 721 175 785 q 193 622 175 657 q 244 588 211 588 q 296 622 278 588 q 314 721 314 657 q 296 819 314 785 q 244 854 278 854 m 786 453 q 936 391 883 453 q 989 215 989 329 q 936 40 989 101 q 786 -22 883 -22 q 636 40 689 -22 q 583 215 583 101 q 636 391 583 329 q 786 453 689 453 m 1271 453 q 1421 391 1368 453 q 1474 215 1474 329 q 1421 40 1474 101 q 1271 -22 1368 -22 q 1121 40 1174 -22 q 1068 215 1068 101 q 1121 391 1068 329 q 1271 453 1174 453 m 786 349 q 735 314 753 349 q 717 215 717 279 q 735 117 717 151 q 786 82 753 82 q 838 117 819 82 q 856 215 856 151 q 838 314 856 279 q 786 349 819 349 m 1271 349 q 1219 314 1238 349 q 1201 215 1201 279 q 1219 117 1201 151 q 1271 82 1238 82 q 1322 117 1304 82 q 1340 215 1340 151 q 1322 314 1340 279 q 1271 349 1304 349 z "},"′":{"ha":299,"x_min":42,"x_max":257,"o":"m 42 610 l 83 936 l 257 936 l 164 610 l 42 610 z "},"″":{"ha":554,"x_min":42,"x_max":513,"o":"m 297 610 l 339 936 l 513 936 l 419 610 l 297 610 m 42 610 l 83 936 l 257 936 l 164 610 l 42 610 z "},"‹":{"ha":450,"x_min":61,"x_max":389,"o":"m 389 75 l 219 75 l 61 353 l 219 631 l 389 631 l 239 353 l 389 75 z "},"›":{"ha":450,"x_min":61,"x_max":389,"o":"m 389 353 l 231 75 l 61 75 l 211 353 l 61 631 l 231 631 l 389 353 z "},"‼":{"ha":797,"x_min":107,"x_max":690,"o":"m 497 275 l 454 989 l 690 989 l 647 275 l 497 275 m 465 0 l 465 183 l 679 183 l 679 0 l 465 0 m 150 275 l 107 989 l 343 989 l 300 275 l 150 275 m 118 0 l 118 183 l 332 183 l 332 0 l 118 0 z "},"‽":{"ha":760,"x_min":42,"x_max":708,"o":"m 485 904 q 650 814 592 882 q 708 643 708 746 q 677 506 708 560 q 558 396 646 453 q 470 326 492 351 q 449 258 449 301 l 283 258 q 282 293 282 271 q 292 377 282 344 q 330 438 303 410 q 414 507 357 465 q 488 575 471 549 q 506 643 506 601 q 474 718 506 690 q 385 746 443 746 q 282 715 317 746 q 244 618 247 685 l 42 618 q 103 807 44 735 q 269 903 161 879 l 265 989 l 490 989 l 485 904 m 471 183 l 471 0 l 257 0 l 257 183 l 471 183 z "},"‾":{"ha":694,"x_min":0,"x_max":694,"o":"m 0 1081 l 0 1207 l 694 1207 l 694 1081 l 0 1081 z "},"⁄":{"ha":206,"x_min":-217,"x_max":422,"o":"m -217 0 l 296 936 l 422 936 l -90 0 l -217 0 z "},"⁰":{"ha":651,"x_min":43,"x_max":608,"o":"m 326 1129 q 535 1040 461 1129 q 608 786 608 950 q 535 532 608 621 q 326 443 461 443 q 116 532 189 443 q 43 786 43 621 q 116 1040 43 950 q 326 1129 189 1129 m 326 997 q 246 942 274 997 q 218 786 218 888 q 246 629 218 685 q 326 574 274 574 q 405 629 378 574 q 432 786 432 685 q 405 942 432 888 q 326 997 378 997 z "},"⁴":{"ha":624,"x_min":15,"x_max":608,"o":"m 503 593 l 503 458 l 335 458 l 335 593 l 15 593 l 15 728 l 279 1114 l 503 1114 l 503 721 l 608 721 l 608 593 l 503 593 m 340 721 l 340 793 q 347 993 340 882 l 346 993 q 229 813 294 906 l 165 721 l 340 721 z "},"⁵":{"ha":628,"x_min":47,"x_max":581,"o":"m 231 976 l 218 849 l 221 849 q 281 885 246 872 q 354 897 315 897 q 517 837 454 897 q 581 681 581 776 q 506 508 581 572 q 311 443 432 443 q 119 497 190 443 q 47 646 47 551 l 219 646 q 246 592 221 611 q 310 572 271 572 q 381 598 356 572 q 406 672 406 624 q 380 746 406 719 q 311 772 354 772 q 254 755 276 772 q 224 710 232 738 l 56 719 l 93 1114 l 542 1114 l 542 976 l 231 976 z "},"⁶":{"ha":622,"x_min":43,"x_max":583,"o":"m 332 1129 q 503 1076 439 1129 q 575 928 568 1024 l 401 928 q 324 1001 393 1001 q 207 822 213 1001 l 210 822 q 363 885 267 885 q 522 826 460 885 q 583 675 583 768 q 550 554 583 607 q 456 472 517 501 q 318 443 396 443 q 115 526 186 443 q 43 771 43 610 q 119 1035 43 940 q 332 1129 196 1129 m 319 764 q 254 738 279 764 q 229 667 229 711 q 254 599 229 625 q 319 574 279 574 q 385 599 360 574 q 410 668 410 625 q 385 738 410 711 q 319 764 361 764 z "},"⁷":{"ha":556,"x_min":15,"x_max":540,"o":"m 540 976 q 410 738 465 874 q 328 458 354 603 l 142 458 q 238 748 175 611 q 372 971 301 885 l 15 971 l 15 1114 l 540 1114 l 540 976 z "},"⁸":{"ha":626,"x_min":43,"x_max":583,"o":"m 313 1129 q 497 1079 426 1129 q 568 946 568 1029 q 535 854 568 893 q 444 800 501 815 l 444 797 q 545 740 507 783 q 583 636 583 697 q 510 494 583 546 q 313 443 438 443 q 115 494 188 443 q 43 636 43 546 q 81 740 43 697 q 181 797 118 783 l 181 800 q 90 854 124 815 q 57 946 57 893 q 128 1079 57 1029 q 313 1129 199 1129 m 313 1001 q 244 982 269 1001 q 219 931 219 963 q 244 876 219 896 q 313 856 269 856 q 381 876 356 856 q 406 931 406 896 q 381 982 406 963 q 313 1001 356 1001 m 313 731 q 241 709 268 731 q 214 651 214 688 q 241 594 214 615 q 313 572 268 572 q 385 594 358 572 q 411 651 411 615 q 385 709 411 688 q 313 731 358 731 z "},"⁹":{"ha":622,"x_min":39,"x_max":579,"o":"m 290 443 q 119 496 183 443 q 47 644 54 549 l 221 644 q 299 571 229 571 q 415 750 410 571 l 413 750 q 260 688 357 688 q 101 746 163 688 q 39 897 39 804 q 72 1018 39 965 q 166 1100 106 1071 q 304 1129 226 1129 q 508 1046 436 1129 q 579 801 579 963 q 503 538 579 632 q 290 443 426 443 m 303 808 q 368 835 343 808 q 393 906 393 863 q 368 973 393 947 q 303 999 343 999 q 238 973 263 999 q 213 904 213 947 q 237 835 213 861 q 303 808 261 808 z "},"⁺":{"ha":574,"x_min":63,"x_max":511,"o":"m 511 831 l 511 701 l 353 701 l 353 547 l 221 547 l 221 701 l 63 701 l 63 831 l 221 831 l 221 985 l 353 985 l 353 831 l 511 831 z "},"⁻":{"ha":574,"x_min":63,"x_max":511,"o":"m 63 701 l 63 831 l 511 831 l 511 701 l 63 701 z "},"⁼":{"ha":574,"x_min":63,"x_max":511,"o":"m 63 804 l 63 928 l 511 928 l 511 804 l 63 804 m 63 604 l 63 728 l 511 728 l 511 604 l 63 604 z "},"⁽":{"ha":349,"x_min":40,"x_max":319,"o":"m 319 1179 q 242 963 265 1065 q 218 747 218 860 q 242 533 218 635 q 319 315 265 431 l 185 315 q 75 523 110 419 q 40 747 40 626 q 75 972 40 868 q 185 1179 110 1076 l 319 1179 z "}}}
